<?xml version="1.0" standalone="no"?>
<!DOCTYPE svg PUBLIC "-//W3C//DTD SVG 1.1//EN" "http://www.w3.org/Graphics/SVG/1.1/DTD/svg11.dtd" >
<!--
2013-9-30: Created.
-->
<svg>
<metadata>
Created by iconfont
</metadata>
<defs>

<font id="iconfont" horiz-adv-x="1024" >
  <font-face
    font-family="iconfont"
    font-weight="500"
    font-stretch="normal"
    units-per-em="1024"
    ascent="896"
    descent="-128"
  />
    <missing-glyph />
    
    <glyph glyph-name="duankai" unicode="&#59042;" d="M826.833567 845.313891H192.307271c-79.600252 0-144.207039-58.733222-144.207039-131.098856v-314.64139c0-72.368067 64.605571-131.101289 144.207039-131.101289h634.526296c79.597819 0 144.204606 58.733222 144.204607 131.101289V714.215035c0 72.366851-64.606787 131.098856-144.204607 131.098856z m86.518629-445.740246c0-42.999024-39.219946-78.663692-86.518629-78.663692H192.307271c-47.298683 0-86.521061 35.664669-86.521061 78.663692V714.215035c0 42.999024 39.222378 78.656395 86.521061 78.656395h634.526296c47.298683 0 86.518628-35.658587 86.518629-78.656395v-314.64139zM641.982283-19.602371l-83.781929 80.988063 80.988063 80.98563c13.964466 13.966898 13.964466 36.302016 0 48.873805-13.965682 12.563275-36.308097 13.964466-48.87259 0l-80.986846-80.988063-80.98563 80.988063c-13.966898 13.964466-36.306881 13.964466-48.871372 0-12.570573-13.969331-13.969331-36.308097 0-48.873805l80.983197-80.98563-80.983197-80.988063c-13.969331-13.965682-13.969331-36.306881 0-48.872589 6.976759-6.982841 15.353493-9.769409 25.12655-9.769409 9.777923 0 18.160738 2.786568 25.135066 9.769409l80.992927 80.984414 80.984414-80.984414c6.981625-6.982841 15.357142-9.769409 25.133849-9.769409 9.771842 0 18.147359 2.786568 25.136281 9.769409 13.958384 13.963249 13.958384 36.300799 0.001217 48.872589zM316.741959 90.579586H72.522539c-13.674984 0-24.422307-12.690988-24.422307-28.84238 0-16.147744 10.746107-28.842381 24.422307-28.842381h244.21942c13.677416 0 24.423523 12.694637 24.423523 28.842381-0.001216 16.151393-10.747323 28.842381-24.423523 28.84238zM946.128126 90.579586H701.900191c-13.677416 0-24.415009-12.690988-24.415009-28.84238 0-16.147744 10.737593-28.842381 24.415009-28.842381h244.227935c13.677416 0 24.421091 12.694637 24.421091 28.842381 0 16.151393-10.743674 28.842381-24.421091 28.84238z"  horiz-adv-x="1024" />

    
    <glyph glyph-name="weixiu" unicode="&#59034;" d="M372 162.6c-1.4 5-0.1 10.3 3.9 13.7l264.5 228.3c4 3.5 9.7 4.2 14.6 2 84.1-36.2 181.7-24.5 246.2 38.4 46.1 45 64.9 106.7 58.7 168.3L832.5 489.2c-3.5-3.5-8.7-4.8-13.5-3.5l-160.3 41.9c-4.8 1.3-8.6 5-9.9 9.7l-43 156.4c-1.3 4.7 0.1 9.8 3.6 13.2L736.8 831.1c-63.1 6-126.3-12.3-172.4-57.3-64.4-62.9-76.5-158.1-39.4-240.2 2.2-4.8 1.5-10.3-2.1-14.2l-234-258.1c-3.5-3.9-8.9-5.2-14-3.8-59.3 16.1-127.2-6-161.9-68-22.2-39.7-21.5-89.9 1.5-129.2 48.5-82.6 158.4-92.9 222.1-30.7 37 36 48.5 87.1 35.4 133z m-193.9-94.4c-32.8 32-32.8 84 0 116s86 32 118.9 0c32.8-32 32.8-84 0-116s-86.1-32-118.9 0zM888 145.6l-208.2 203c-5.2 5.1-13.6 5.4-19.2 0.6L471.4 185.9c-6-5.2-6.3-14.3-0.6-19.9l219-213.7c21.9-21.4 57.4-21.4 79.3 0l118.9 116c21.8 21.3 21.8 55.9 0 77.3zM723.8 15.7c-5.5-5.3-14.3-5.3-19.8 0L545.5 170.4c-5.5 5.3-5.5 14 0 19.3l19.8 19.3c5.5 5.3 14.3 5.3 19.8 0l158.5-154.7c5.5-5.3 5.5-14 0-19.3l-19.8-19.3z m79.2 77.4c-5.5-5.3-14.3-5.3-19.8 0L624.7 247.8c-5.5 5.3-5.5 14 0 19.3l19.8 19.3c5.5 5.3 14.3 5.3 19.8 0l158.5-154.7c5.5-5.3 5.5-14 0-19.3L803 93.1zM363.7 426.3l37.2 41c4.9 5.4 4.6 13.6-0.6 18.7l-53.9 52.6 19.8 19.3c5.5 5.3 5.5 14 0 19.3L188 751.2c-5.5 5.3-14.3 5.3-19.8 0l-99.1-96.7c-5.5-5.3-5.5-14 0-19.3l178.3-174c5.5-5.3 14.3-5.3 19.8 0l19.8 19.3 56.3-54.9c5.7-5.5 15.1-5.2 20.4 0.7z"  horiz-adv-x="1024" />

    
    <glyph glyph-name="dui" unicode="&#58913;" d="M1004.8 498.488889l-18.488889-5.688889-16.355555-7.822222-23.466667-12.088889-19.2-11.377778-19.911111-13.511111-23.466667-19.2-32.711111-27.022222-28.444444-26.311111-23.466667-22.044445-32-34.133333-44.088889-48.355556-14.222222-14.933333-35.555556-41.955556-37.688889-44.8-36.266666-46.933333-30.577778-40.533333-17.777778-25.6-32.711111-46.222222-31.288889-46.933334-28.444444-47.644444-9.955556-17.066667-4.266667-7.822222-9.244444 12.088889-12.8 14.933333-23.466667 28.444445-31.288889 35.555555-29.866666 32-38.4 39.111111-42.666667 39.111111-32 27.733334-29.866667 24.177777-20.622222 15.644445L149.333333 177.777778l-14.933333 9.955555-27.022222 18.488889-19.2 10.666667-22.044445 12.088889L42.666667 240.355556l-23.466667 9.244444 218.311111 136.533333 190.577778-224 155.733333 292.266667 4.266667 7.111111 5.688889 7.822222 17.777778 28.444445 17.777777 26.311111 15.644445 22.755555 16.355555 23.466667 16.355556 22.044445 15.644444 19.2 26.311111 33.422222 17.066667 19.911111 13.511111 15.644444 11.377778 12.8 8.533333 8.533334 8.533334 9.244444 7.822222 8.533333 8.533333 8.533334 9.244445 9.244444 8.533333 8.533334 8.533333 7.822222 9.955556 9.244444 8.533333 7.822222 6.4 5.688889 6.4 5.688889 6.4 4.977778 4.977778 4.266667 4.977778 4.266666 6.4 4.977778 6.4 5.688889 4.266666 2.844444 5.688889 4.266667 5.688889 4.266667 12.088889 9.244444 10.666667 7.111111 9.955555 6.4 9.244445 6.4 7.822222 4.977778 4.266667 2.844445 5.688889 3.555555 4.977777 2.844445 9.955556 5.688888 15.644444 9.955556v-6.4l-0.711111-13.511111-2.844444-24.177778-3.555556-32.711111-3.555555-34.844444-1.422223-19.2-2.844444-33.422223-1.422222-20.622222v-20.622222l0.711111-27.022222 2.133333-27.733334 3.555556-27.733333 4.977778-22.755556 7.111111-27.733333 8.533333-24.177778 2.133333-4.977777 2.133334-5.688889 2.133333-3.555556zM972.8 710.4c-266.666667-115.911111-442.311111-542.577778-544-697.6-49.777778 116.622222-215.466667 240.355556-306.488889 302.222222l-103.111111-64L42.666667 240.355556l22.755555-11.377778 22.044445-12.088889 19.2-11.377778 27.022222-18.488889 14.933333-9.244444 24.888889-19.2 20.622222-14.933334 29.155556-24.177777 32.711111-28.444445 41.955556-39.111111 38.4-38.4 29.155555-32 31.288889-35.555555 24.177778-28.444445 12.8-14.933333 9.244444-12.088889 4.266667 7.822222 9.244444 17.066667 28.444445 48.355555 31.288889 46.222223 33.422222 46.222222 17.777778 25.6 30.577777 40.533333 36.266667 46.222222 37.688889 44.8 35.555556 41.955556 14.222222 14.933333 44.8 49.066667 32 33.422222 22.755555 22.044445 28.444445 26.311111 32.711111 27.022222 24.177778 19.2 19.911111 13.511111 19.2 12.088889 22.755555 12.088889 17.066667 7.822222 18.488889 5.688889v1.422222l-2.133333 3.555556-2.133334 5.688889-2.133333 5.688888-8.533333 24.177778-7.822223 27.733334-4.266666 22.044444-3.555556 27.733333-2.133333 27.733334-0.711111 27.022222v20.622222l2.133333 18.488889z"  horiz-adv-x="1024" />

    
    <glyph glyph-name="hangren" unicode="&#58955;" d="M440.106 312.304l-8.666 17.333-39.394-115.816a90.21 90.21 0 0 0-12.605-22.06l-78.787-111.483a43.726 43.726 0 0 1-5.515-35.454 46.484 46.484 0 0 1 21.272-29.544 51.211 51.211 0 0 1 29.151-9.06 48.848 48.848 0 0 1 10.637 0 47.272 47.272 0 0 1 31.12 22.453l74.453 110.301a275.752 275.752 0 0 1 23.242 45.302l21.667 60.272-5.91 3.151a159.936 159.936 0 0 0-60.665 64.605zM582.71 602.632a88.635 88.635 0 0 1 89.422 87.453 89.423 89.423 0 0 1-178.845 0 88.635 88.635 0 0 1 89.423-87.453z m83.513-384.477l-68.938 125.664-2.364 3.94-6.696 9.848 5.12 25.605 22.06 89.029a108.331 108.331 0 0 1-78.786 128.816 88.635 88.635 0 0 1-26.787 4.333 60.666 60.666 0 0 1-47.666-14.182l-89.028-84.695a90.21 90.21 0 0 1-12.606-18.515L309.32 380.061a39.393 39.393 0 0 1 20.484-54.363 44.514 44.514 0 0 1 57.908 18.12l52 109.12 14.969 14.182-13-56.333c-13-48.06-6.697-118.18 94.937-172.936l3.152-1.97 30.333-54.756a861.53 861.53 0 0 0 31.908-152.452 44.12 44.12 0 0 1 19.697-31.12 53.575 53.575 0 0 1 29.939-9.06h6.303a51.605 51.605 0 0 1 33.09 17.332 49.635 49.635 0 0 1 10.242 39.393l-19.303 133.15a149.694 149.694 0 0 1-15.757 39.787z m59.09 169.39a39.393 39.393 0 0 1-19.697 22.848l-78.786 39.394-20.485-83.514 60.666-32.302a39.393 39.393 0 0 1 20.09-5.91 45.302 45.302 0 0 1 39.394 59.09z"  horiz-adv-x="1024" />

    
    <glyph glyph-name="zuozhuan" unicode="&#58910;" d="M615.8 706.9c-178 0-322.9-163-322.9-363.2H85.3l282.5-282.5 282.5 282.5h-196c0 111.3 72.4 201.8 161.4 201.8S777.1 455 777.1 343.7c0-25.5-3.8-50.3-11.3-73.8-13.5-42.5 10-87.9 52.5-101.4 8.1-2.6 16.4-3.8 24.5-3.8 34.2 0 66 21.9 76.9 56.3 12.5 39.3 18.8 80.6 18.8 122.7 0.2 200.2-144.7 363.2-322.7 363.2z"  horiz-adv-x="1024" />

    
    <glyph glyph-name="zhihang" unicode="&#59032;" d="M597.333 512h192L512 896 234.667 512h192v-640h170.666V512z"  horiz-adv-x="1024" />

    
    <glyph glyph-name="zuozhuan1" unicode="&#59033;" d="M64.3 563.4L467.2 832.1V653h492.5v-716.3H780.6V473.9H467.2v-179.1z"  horiz-adv-x="1024" />

    
    <glyph glyph-name="youzhuan" unicode="&#58917;" d="M926.4 590.4L618.4 809.6c-8 4.8-18.4-0.8-18.4-10.4l32.8-128.8c1.6-6.4-3.2-13.6-10.4-13.6h-432c-8 0-15.2-6.4-15.2-15.2v-691.2c0-8 6.4-15.2 15.2-15.2h117.6c8 0 15.2 6.4 15.2 15.2v544c0 8 6.4 15.2 15.2 15.2h284.8c7.2 0 12-6.4 10.4-13.6l-32.8-136c0-9.6 10.4-15.2 18.4-10.4L928 568.8c6.4 5.6 6.4 16.8-1.6 21.6z"  horiz-adv-x="1024" />

    
    <glyph glyph-name="zhihangzuozhuanyouzhuan" unicode="&#58962;" d="M214.686897 471.491188V622.227126h467.116628v-722.920459h119.584368V682.01931c0 18.989119-5.257318 34.211801-15.693487 45.511111-10.436169 11.456245-25.109579 17.1059-44.098697 17.105901H214.686897V895.529195L3.923372 682.097778l210.685057-210.685058zM1276.19433 471.491188V622.227126h-467.116629v-722.920459H689.493333V682.01931c0 18.989119 5.257318 34.211801 15.693487 45.511111 10.436169 11.456245 25.109579 17.1059 44.098697 17.105901h526.908813V895.529195l210.685057-213.431417-210.685057-210.685058z"  horiz-adv-x="1492" />

    
    <glyph glyph-name="zuozhuan2" unicode="&#58967;" d="M285.696 896v-121.304615C867.800615 772.253538 1101.981538 409.442462 1102.769231-128h-128.393846c-0.551385 471.985231-177.467077 781.863385-688.679385 784.226462v-119.571693L0 716.248615 285.696 896z"  horiz-adv-x="1102" />

    
    <glyph glyph-name="youzhuan1" unicode="&#58968;" d="M817.073231 896v-121.304615C234.968615 772.253538 0.787692 409.442462 0-128h128.393846c0.551385 471.985231 177.467077 781.863385 688.679385 784.226462v-119.571693L1102.769231 716.248615 817.073231 896z"  horiz-adv-x="1102" />

    
    <glyph glyph-name="daochu1" unicode="&#58909;" d="M877.614 152.749v-218.749h-731.227v218.861c0 30.205 23.399 54.673 52.254 54.673s52.254-24.468 52.254-54.729c0 0 0-0.056 0-0.056v-109.346h522.264v109.403c0 30.205 23.399 54.673 52.254 54.673s52.254-24.468 52.254-54.729c-0.056 0.056-0.056 0.056-0.056 0zM752.067 477.808c-10.181-10.688-26.718-10.688-36.955 0l-150.914 158.057v-400.938c0-15.13-11.7-27.337-26.099-27.337h-52.198c-14.399 0-26.099 12.263-26.099 27.337v400.938l-150.914-158.057c-10.181-10.688-26.718-10.688-36.955 0l-36.955 38.643c-10.181 10.688-10.181 28.012 0 38.699l258.574 270.835c10.181 10.688 26.718 10.688 36.899 0l258.517-270.835c10.181-10.688 10.181-28.012 0-38.699l-36.899-38.643z"  horiz-adv-x="1024" />

    
    <glyph glyph-name="tongbu" unicode="&#58966;" d="M929.671498 431.352258a420.558412 420.558412 0 0 1-417.667498 372.686845l36.305913 35.019951a32.129038 32.129038 0 1 1-44.337673 46.264616l-88.352355-85.460442a32.129038 32.129038 0 0 1 0-45.300645l85.139451-88.031365a32.129038 32.129038 0 0 1 45.622635 44.658664l-27.309183 28.272153A356.623326 356.623326 0 0 0 773.207182 140.591961a32.129038 32.129038 0 1 1 47.228586-43.694693A420.879402 420.879402 0 0 1 929.671498 431.353258z m-372.686844-330.920095a32.129038 32.129038 0 1 1-44.658664-46.265616l27.630173-27.309182a356.623326 356.623326 0 0 0-303.290922 583.770527 32.129038 32.129038 0 1 1-50.1185 41.123769 421.201393 421.201393 0 0 1 323.851307-689.149373c13.172606 0 26.666202 0 40.160798 2.247933l-36.304913-38.231856a32.129038 32.129038 0 0 1 46.264615-44.658663l85.139451 88.031365a32.129038 32.129038 0 0 1 0 45.300644z"  horiz-adv-x="1024" />

    
    <glyph glyph-name="qunzuduoren" unicode="&#59094;" d="M647.157029 430.926629c51.210971 40.213943 84.245943 102.496914 84.245943 172.494629 0 120.994743-98.424686 219.421257-219.421257 219.421257-120.996571 0-219.421257-98.424686-219.421257-219.421257 0-69.997714 33.069714-132.280686 84.247771-172.494629-134.853486-53.891657-230.528-185.636571-230.528-339.487086l0-73.1392c0-20.214857 16.356571-36.571429 36.571429-36.571429l658.261943 0c20.214857 0 36.5696 16.356571 36.5696 36.571429l0 73.1392C877.685029 245.326629 782.045257 377.034971 647.157029 430.926629zM511.983543 749.701486c80.676571 0 146.282057-65.603657 146.282057-146.280229s-65.605486-146.282057-146.282057-146.282057-146.282057 65.605486-146.282057 146.282057S431.306971 749.701486 511.983543 749.701486zM804.544 54.868114 219.421257 54.868114l0 36.571429C219.421257 252.754286 350.666971 384 512.018286 384c161.314743 0 292.523886-131.245714 292.523886-292.560457L804.542171 54.868114zM267.170743 418.212571c1.000229 2.2144 1.000229 4.571429 1.499429 6.857143 0.356571 1.393371 0.749714 2.7136 0.928914 4.178286 0.285257 2.8928 0.107886 5.641143-0.285257 8.462629-0.142629 1.499429 0.213943 2.929371-0.142629 4.4288-0.213943 0.8576-0.821029 1.464686-1.071543 2.322286-0.570514 1.642057-1.3568 3.106743-2.143086 4.642743-1.499429 3.143314-3.143314 5.999543-5.392457 8.533943-0.321829 0.356571-0.714971 0.607086-1.071543 0.963657-3.320686 3.465143-7.1424 6.107429-11.499886 8-39.570286 17.642057-65.141029 56.927086-65.141029 100.2112 0 50.927543 34.497829 94.782171 83.924114 106.6752 19.642514 4.750629 31.712914 24.4992 26.998857 44.141714-4.785371 19.642514-24.607086 31.570286-44.141714 26.998857-82.389943-19.856457-139.924114-92.995657-139.924114-177.815771 0-46.2848 17.607314-89.674971 47.535543-122.673371C62.070857 394.821486 0.001829 296.182857 0.001829 184.577829l0-56.570514c0-20.213029 16.356571-36.5696 36.5696-36.5696s36.571429 16.356571 36.571429 36.5696l0 56.570514c0 101.140114 67.997257 187.922286 165.564343 212.4928C250.848914 398.785829 261.884343 406.176914 267.170743 418.212571zM866.578286 444.141714c29.9264 32.9984 47.531886 76.3904 47.531886 122.673371 0 82.603886-55.639771 155.243886-135.316114 176.636343-19.463314 5.215086-39.533714-6.321371-44.820114-25.821257-5.249829-19.534629 6.321371-39.570286 25.821257-44.820114 47.7824-12.820114 81.175771-56.426057 81.175771-105.9968 0-43.284114-25.536-82.497829-65.069714-100.174629-4.426971-1.929143-8.32-4.608-11.677257-8.107886-0.285257-0.321829-0.643657-0.535771-0.928914-0.8576-2.285714-2.5344-3.927771-5.463771-5.463771-8.641829-0.749714-1.536-1.570743-2.964114-2.106514-4.571429-0.250514-0.821029-0.8576-1.464686-1.071543-2.322286-0.356571-1.499429 0-2.929371-0.142629-4.4288-0.393143-2.821486-0.570514-5.571657-0.285257-8.462629 0.1792-1.464686 0.570514-2.784914 0.928914-4.178286 0.4992-2.285714 0.4992-4.642743 1.499429-6.857143 5.2864-12.035657 16.32-19.428571 28.461714-21.141943 97.567086-24.572343 165.566171-111.352686 165.566171-212.4928l0-56.570514c0-20.213029 16.356571-36.5696 36.5696-36.5696s36.5696 16.356571 36.5696 36.5696l0 56.570514C1023.822629 296.182857 961.7536 394.821486 866.578286 444.141714z"  horiz-adv-x="1024" />

    
    <glyph glyph-name="42" unicode="&#58918;" d="M870.4-128 153.6-128c-19.2 0-32 12.8-32 32L121.6 441.6c0 19.2 12.8 32 32 32l723.2 0c19.2 0 32-12.8 32-32l0-537.6C902.4-115.2 889.6-128 870.4-128zM185.6-64l659.2 0L844.8 409.6 185.6 409.6 185.6-64zM793.6 409.6c-19.2 0-32 12.8-32 32L761.6 582.4C761.6 723.2 646.4 832 512 832S262.4 723.2 262.4 582.4l0-140.8c0-19.2-12.8-32-32-32S198.4 422.4 198.4 441.6L198.4 582.4C198.4 755.2 339.2 896 512 896s313.6-140.8 313.6-313.6l0-140.8C825.6 422.4 812.8 409.6 793.6 409.6zM454.4 275.2c0-38.4 38.4-102.4 38.4-147.2 0-38.4-25.6-51.2-25.6-76.8 0-19.2 19.2-38.4 44.8-38.4 25.6 0 44.8 19.2 44.8 38.4 0 25.6-25.6 38.4-25.6 76.8 0 44.8 38.4 108.8 38.4 147.2 0 32-25.6 51.2-57.6 51.2S454.4 307.2 454.4 275.2z"  horiz-adv-x="1024" />

    
    <glyph glyph-name="lixian" unicode="&#59270;" d="M744.066403 493.933785l133.080971 64.10297 44.36237-45.328371-133.087111-64.10911L744.066403 493.933785zM655.353942 584.602807l177.443341 181.325765 44.350091-45.328371L699.704033 539.262156 655.353942 584.602807zM566.636365 675.25955l62.727647 136.016837 44.36851-45.347814-62.753229-135.997394L566.636365 675.25955zM633.918747 111.368716l35.18229-42.852994c25.440415-25.926486 66.476017-25.798573 91.711771 0.352017l68.849064 70.826092c25.235754 26.086122 25.037233 68.529793-0.37146 94.328365l-35.260062 42.865273c-18.007119 18.333554-43.933605 27.711132-66.578348 19.887956l-71.433936 73.960479c50.560536 52.185546 132.837424 52.42193 183.596482 0.594541l81.34261-89.8821c50.823526-51.935859 51.072189-136.343271 0.531096-188.593286L807.069319-25.460626C756.585531-77.525422 674.352645-77.82525 623.453395-25.946696l-81.317027 89.889263c-50.759057 52.000328-50.989301 136.343271-0.588401 188.522678l71.65804-72.496128C607.333252 157.669228 616.730273 128.927627 633.918747 111.368716zM411.68427 591.601198c7.228635 22.785959-1.63729 48.885384-19.280112 66.910922l-26.444279 43.358507c-25.113981 25.497721-65.420989 25.37697-90.182952-0.306992l-67.449181-69.668733c-24.794709-25.670659-24.685215-66.969251 0.261966-92.524277l26.444279-43.428092 52.863998-37.485753c16.765849-17.086144-8.546653 11.034311 12.800537 17.047258l69.75162-71.606875c-49.621141-51.284013-130.297578-51.514257-180.231851-0.537236l-71.606875 89.479941c-50.01716 50.977022-50.215682 133.822868-0.556679 185.036273L230.358505 794.101215c49.710169 51.16224 130.451074 51.520397 180.264597 0.601704l71.792093-89.651856c49.863664-50.861388 50.036603-133.829008 0.460488-184.997388L411.68427 591.601198zM242.205321 275.045519l-133.080971-64.10911-44.36237 45.334511 133.087111 64.10911L242.205321 275.045519zM330.917782 196.056514 153.48058 14.711306l-44.35623 45.328371 177.443341 181.345208L330.917782 196.056514zM419.635359 105.381351l-59.58098-136.003534-44.342927 45.334511 59.548234 136.010697L419.635359 105.381351z"  horiz-adv-x="1024" />

    
    <glyph glyph-name="tuding" unicode="&#58880;" d="M642 834L537 729l35-40-210-210-75 70-105-105 180-175-250-250 35-35 245 245 175-170 105 105-65 70 215 210 35-35 105 105L642 834z m180-315L537 234l75-75-35-35-320 320 35 35 70-70 285 280-35 35 35 35 245-245-35-35-35 40z"  horiz-adv-x="1024" />

    
    <glyph glyph-name="shijian" unicode="&#58965;" d="M512 825.6a441.6 441.6 0 1 1 0-883.2 441.6 441.6 0 0 1 0 883.2z m0-64a377.6 377.6 0 1 0 0-755.2 377.6 377.6 0 0 0 0 755.2zM544 416V640a32 32 0 1 1-64 0v-230.4c0-31.7952 25.8048-57.6 57.6-57.6H768a32 32 0 1 1 0 64h-224z"  horiz-adv-x="1024" />

    
    <glyph glyph-name="jiankongshexiangtou" unicode="&#58938;" d="M305.9 121.4c11-4.6 23-7.1 35.5-7.1 12 0 23.7 2.4 34.4 6.7l1.2 0.4c10.8 4.5 20.6 10.9 28.9 19l1.3 1.2c8.5 8.5 15.4 18.8 20.1 30.3 4.6 11 7.1 23 7.1 35.5 0 12.4-2.6 24.4-7.1 35.5a92.13 92.13 0 0 1-18.5 28.5l14.4 24.9 247.3-142.7c5.1-3 10.7-4.8 16.2-5.5h0.1c5.8-0.8 11.7-0.3 17.1 1.1 5.5 1.5 10.8 4 15.5 7.6 4 3.1 7.6 7 10.5 11.6l1 1.5L744 193l45.3-26.2c10.2-5.9 23.3-2.5 29.2 7.8l84.2 145.3c5.2 9.1 3 20.5-4.8 27l19.4 13.3 0.7 0.6c3.5 2.6 7 6.4 8.7 12 3 9.7 1.2 18.9-9.8 25.8l-0.6 0.4-594.6 343c-5.3 3-11 4.9-16.7 5.6-5.9 0.8-11.8 0.3-17.3-1.1-5.7-1.5-11-4.1-15.8-7.7-4-3.1-7.7-7-10.5-11.7l-1-1.5L176 579.5c-3-5.2-4.8-10.8-5.6-16.6-0.7-5.5-0.4-11 0.9-16.3l0.3-1.3c1.5-5.6 4.1-10.9 7.7-15.7 2.5-3.2 5.4-6.2 8.9-8.7l-16.3-29c-2.9-5.1-4.7-10.7-5.4-16.3-0.8-5.9-0.3-11.7 1.1-17.1 1.5-5.5 4-10.8 7.6-15.5 3.4-4.4 7.7-8.3 13-11.4l198-114.4-13.2-22.7c-9.9 3.6-20.6 5.6-31.6 5.6-12.5 0-24.4-2.5-35.5-7.1-11.4-4.7-21.6-11.6-30.2-20.1l-0.1-0.1c-8.5-8.5-15.4-18.8-20.1-30.1-3.2-7.8-5.4-16.1-6.4-24.6h-27.9v93.8c0 9.3-1.8 18.3-5.1 26.6l-0.4 1.2c-3.7 8.9-9.1 16.9-15.8 23.6-6.4 6.4-14 11.6-22.4 15.3l-1.2 0.5c-8.6 3.6-18.1 5.6-27.8 5.6h-30.9c-11.8 0-21.4-9.6-21.4-21.4v-322c0-11.8 9.6-21.4 21.4-21.4h30.9c9.7 0 19.2 2 27.8 5.6 8.3 3.5 15.9 8.4 22.3 14.5l1.4 1.2c6.7 6.7 12.1 14.7 15.8 23.7 3.6 8.6 5.6 18.1 5.6 27.8v82.4h33c0.5-1.2 0.9-2.4 1.4-3.6 4.8-11.5 11.7-21.8 20.2-30.3h0.1c8.2-8.2 18.4-15.1 29.8-19.8zM178.3 151.3V93c0-4.1-0.8-8-2.2-11.5-1.5-3.6-3.8-7-6.6-9.8l-0.8-0.8c-2.6-2.5-5.7-4.4-9-5.8-3.5-1.4-7.3-2.2-11.4-2.2h-9.5V342h9.5c4.1 0 8-0.8 11.5-2.2l0.8-0.3c3.3-1.5 6.4-3.6 8.9-6.1 2.8-2.8 5.1-6.2 6.6-9.9l0.3-0.7c1.3-3.3 1.9-6.9 1.9-10.8v-160.7zM765.1 230l24.2 42.4 60.8 41.6-57.8-99.7zM714.7 226.9c-11-19.4-20.4-35.5-21.4-36.4l-0.6-0.3-0.6-0.1-0.5 0.1-482.2 278.5-0.3 0.3-0.2 0.6-0.1 0.7c3.9 8.6 10 19.2 15.9 29.3l462-266.8c2.9-1.7 6-3 9.1-4l2.2-0.7c3.8-1 8-1.6 12.2-1.5 1.5 0 3 0.1 4.5 0.3zM341.4 157.1c-7 0-13.4 1.3-19.3 3.7-6.1 2.5-11.6 6.3-16.2 10.9v0.1c-4.7 4.7-8.4 10.2-10.9 16.2-1.4 3.5-2.5 7.1-3.1 10.9 0 0.6-0.1 1.2-0.2 1.7-0.3 2.2-0.4 4.4-0.4 6.7 0 6.9 1.3 13.4 3.7 19.3 2.5 6 6.2 11.6 10.8 16.2v0.1c4.7 4.7 10.2 8.3 16.3 10.8 5.8 2.4 12.3 3.7 19.3 3.7 6.9 0 13.4-1.3 19.2-3.7 6.1-2.5 11.6-6.2 16.2-10.8l0.1-0.1c4.6-4.7 8.3-10.2 10.9-16.2 2.4-5.8 3.7-12.3 3.7-19.3s-1.3-13.4-3.7-19.3c-2.4-6-6.2-11.5-10.9-16.2l-0.9-0.9c-4.4-4.2-9.7-7.6-15.4-10l-0.8-0.4c-5.6-2.2-11.8-3.4-18.4-3.4zM300.4 705.1l567.1-327.3-158.2-108.5-0.8 0.2c-157.1 77.2-338.9 196.6-495 285.8l-0.3 0.3c-0.2 0.2-0.3 0.5-0.4 0.8l-0.2 1c0.1 0.2 0.2 0.5 0.4 0.9 26.5 49.1 57.2 97.3 84.4 146.2l0.3 0.3c0.2 0.2 0.5 0.3 0.7 0.4 0.4 0.1 0.8 0.1 1.2 0.1 0.3 0 0.6-0.1 0.8-0.2z"  horiz-adv-x="1024" />

    
    <glyph glyph-name="guanlian" unicode="&#59055;" d="M516.869 885.21c-277.252 0-502.014-224.764-502.014-502.014s224.762-502.014 502.014-502.014c277.249 0 502.009 224.764 502.009 502.014C1018.877 660.448 794.118 885.21 516.869 885.21zM489.184 154.127l-30.18-29.215c-27.422-26.535-63.455-39.785-99.46-39.785-36.017 0-72.02 13.255-99.427 39.775-26.657 25.79-41.317 60.085-41.317 96.57 0 36.51 14.662 70.815 41.302 96.62l111.042 107.422c69.032 66.777 148.285 76.37 201.934 24.48 14.46-14.005 14.55-36.815 0.18-50.922-14.37-14.125-37.745-14.217-52.24-0.185-31.542 30.505-74.822-2.25-97.835-24.51l-111.04-107.43c-12.565-12.135-19.457-28.295-19.457-45.47 0-17.16 6.892-33.31 19.457-45.455 26.135-25.295 68.665-25.26 94.797 0l30.182 29.22c14.477 13.995 37.87 13.925 52.242-0.185C503.739 190.942 503.661 168.132 489.184 154.127zM773.618 429.311l-118.455-114.58c-36.605-35.425-75.07-53.315-111.505-53.315-29.75 0-58.152 11.93-83.002 35.99-14.492 14.02-14.582 36.825-0.185 50.93 14.372 14.115 37.75 14.21 52.227 0.19 10.835-10.49 36.27-35.095 90.405 17.315l118.49 114.592c12.54 12.152 19.45 28.315 19.45 45.487 0 17.16-6.9 33.305-19.485 45.47-23.585 22.812-59.75 33.905-87.38 7.155l-37.58-36.387c-14.48-14.002-37.86-13.925-52.245 0.185-14.385 14.122-14.29 36.922 0.2 50.94l37.595 36.385c53.31 51.597 133.865 48.565 191.469-7.17 26.64-25.797 41.32-60.085 41.32-96.577C814.938 489.411 800.258 455.109 773.618 429.311z"  horiz-adv-x="1024" />

    
    <glyph glyph-name="icon-test" unicode="&#59126;" d="M219.022222 491.140741c41.718519 0 78.696296-16.118519 107.140741-41.718519l76.8 66.370371L369.777778 635.259259c-4.740741-0.948148-8.533333-1.896296-12.325926-1.896296-27.496296-2.844444-62.577778 17.066667-62.577778 17.066667l9.481482 23.703703h146.014814l4.740741-14.222222-18.962963-2.844444s-17.066667-7.585185-37.925926-14.222223l30.340741-108.088888c9.481481-8.533333 19.911111-13.274074 32.237037-14.222223 14.222222-1.896296 30.340741 1.896296 43.614815 8.533334l201.955555 109.985185-6.637037 27.496296-24.651852-4.740741 1.896297-13.274074-13.274074-3.792592-0.948148 8.533333-58.785186-9.481481-4.74074 28.444444 58.785185 9.481482-0.948148 8.533333 13.274074 1.896296 1.896296-13.274074 77.748148 15.17037 3.792593-18.962963-15.170371-2.844444 3.792593-16.118518h0.948148v0.948148c67.318519-10.42963 80.592593-28.444444 76.8-54.992593-1.896296-9.481481-5.688889-19.911111-10.429629-31.288889-8.533333-22.755556-18.962963-49.303704-14.222223-80.592592h2.844445c43.614815 0 84.385185-18.014815 112.829629-46.45926 28.444444-28.444444 46.459259-69.214815 46.45926-112.829629 0-43.614815-18.014815-84.385185-46.45926-112.82963-28.444444-28.444444-69.214815-46.459259-112.829629-46.459259-43.614815 0-84.385185 18.014815-112.82963 46.459259-28.444444 28.444444-46.459259 69.214815-46.459259 112.82963 0 43.614815 18.014815 84.385185 46.459259 112.829629 16.118519 16.118519 36.02963 29.392593 57.837037 36.977778l-13.274074 56.888889c-3.792593-0.948148-8.533333-1.896296-12.325926-1.896296-18.962963-3.792593-37.925926-6.637037-43.614815-13.274074-4.740741-8.533333-58.785185-99.555556-89.125926-146.962963-19.911111-31.288889-42.666667-47.407407-58.785185-54.992593-4.740741-18.962963-19.911111-34.133333-38.874074-39.822222v-43.614815h8.533333v-15.17037H436.148148v15.17037h26.548148V279.703704c-18.962963 2.844444-35.081481 15.17037-42.666666 32.237037h-42.666667c-4.740741-36.02963-20.859259-69.214815-45.511111-92.918519-28.444444-28.444444-69.214815-46.459259-112.82963-46.459259-44.562963 0-84.385185 18.014815-112.829629 46.459259-28.444444 28.444444-46.459259 69.214815-46.45926 112.82963 0 43.614815 18.014815 84.385185 46.45926 112.829629 29.392593 28.444444 69.214815 46.459259 112.829629 46.45926zM862.814815 432.355556l-35.081482-60.681482c1.896296-1.896296 3.792593-2.844444 5.688889-4.740741 1.896296-1.896296 3.792593-4.740741 5.688889-6.637037l60.681482 35.081482c-4.740741 7.585185-10.42963 15.17037-17.066667 20.859259-5.688889 6.637037-12.325926 11.377778-19.911111 16.118519z m-40.770371-71.111112l-7.585185-13.274074v-1.896296l14.222222 8.533333c-0.948148 1.896296-2.844444 2.844444-3.792592 4.740741-0.948148 0-1.896296 0.948148-2.844445 1.896296z m83.437037 25.6l-60.681481-35.081481c1.896296-4.740741 3.792593-10.42963 3.792593-16.118519h70.162963c-0.948148 18.962963-5.688889 36.02963-13.274075 51.2z m-72.059259-41.718518l-17.066666-9.481482h18.962963c0 3.792593 0 6.637037-1.896297 9.481482z m85.333334-18.962963h-70.162963c-0.948148-5.688889-1.896296-10.42963-3.792593-16.118519l60.681481-35.081481c7.585185 16.118519 12.325926 33.185185 13.274075 51.2z m-82.488889 0h-18.962963l16.118518-9.481482c0.948148 2.844444 1.896296 5.688889 2.844445 9.481482z m63.525926-58.785185l-60.681482 35.081481c-1.896296-2.844444-3.792593-4.740741-5.688889-6.637037-1.896296-1.896296-3.792593-3.792593-5.688889-4.740741l35.081482-60.681481c7.585185 4.740741 14.222222 10.42963 19.911111 16.118519 6.637037 5.688889 12.325926 13.274074 17.066667 20.859259zM828.681481 308.148148l-16.118518 9.481482 9.481481-17.066667c0.948148 0.948148 1.896296 1.896296 3.792593 2.844444 0.948148 1.896296 1.896296 2.844444 2.844444 4.740741z m25.6-83.437037l-35.081481 60.681482c-4.740741-1.896296-10.42963-3.792593-16.118519-4.740741v-70.162963c18.962963 0.948148 36.02963 5.688889 51.2 14.222222z m-40.77037 71.111111l-9.481481 17.066667v-19.911111c2.844444 0.948148 6.637037 1.896296 9.481481 2.844444z m-19.911111-85.333333v70.162963c-5.688889 0-11.377778 1.896296-16.118519 3.792592l-35.081481-60.681481c16.118519-7.585185 33.185185-12.325926 51.2-13.274074z m0 82.488889v19.911111l-10.42963-17.066667c3.792593-1.896296 7.585185-2.844444 10.42963-2.844444z m-59.733333-64.474074l35.081481 60.681481c-2.844444 1.896296-4.740741 3.792593-7.585185 5.688889-1.896296 1.896296-3.792593 3.792593-4.740741 5.688889l-60.681481-35.081482c4.740741-7.585185 10.42963-14.222222 16.118518-19.911111 7.585185-5.688889 14.222222-12.325926 21.807408-17.066666z m41.718518 72.059259l10.42963 18.014815-18.014815-11.377778c0.948148-0.948148 1.896296-1.896296 2.844444-3.792593 0.948148-0.948148 2.844444-1.896296 4.740741-2.844444z m-84.385185-25.6l60.681481 35.081481c-2.844444 4.740741-3.792593 10.42963-4.74074 17.066667h-70.162963c0.948148-19.911111 6.637037-36.977778 14.222222-52.148148z m71.111111 40.77037l18.014815 10.42963h-20.859259c0.948148-3.792593 1.896296-6.637037 2.844444-10.42963z m-84.385185 19.911111h70.162963c0.948148 5.688889 1.896296 11.377778 4.740741 17.066667L692.148148 387.792593c-9.481481-16.118519-14.222222-33.185185-14.222222-52.148149z m81.540741 0h17.066666l-0.948148 2.844445-13.274074 7.585185c-0.948148-2.844444-1.896296-6.637037-2.844444-10.42963z m-63.525926 60.681482l60.681481-35.081482c1.896296 1.896296 3.792593 4.740741 5.688889 6.637037 1.896296 1.896296 3.792593 3.792593 6.637037 5.688889l-0.948148 1.896297-33.185185 57.837037c-7.585185-4.740741-15.17037-10.42963-21.807408-17.066667-6.637037-5.688889-12.325926-13.274074-17.066666-19.911111z m72.059259-41.718519l5.688889-2.844444-1.896296 7.585185-0.948149-0.948148c-0.948148-0.948148-1.896296-2.844444-2.844444-3.792593z m-25.6 83.437037l17.066667-30.34074-8.533334 35.081481c-1.896296-0.948148-5.688889-2.844444-8.533333-4.740741z m51.2-3.792592v17.066667h-3.792593l3.792593-17.066667z m10.42963 17.066667v-59.733334l2.844444-11.377778c4.740741-0.948148 9.481481-1.896296 13.274074-3.792592l35.081482 60.681481c-16.118519 8.533333-33.185185 13.274074-51.2 14.222223z m6.637037-90.074075l2.844444 4.740741c-0.948148 0.948148-2.844444 0.948148-3.792592 1.896296l0.948148-6.637037z m-527.170371 72.05926l-24.651852-41.718519 37.925926 32.237037c-3.792593 2.844444-8.533333 6.637037-13.274074 9.481482z m42.666667-46.45926l-40.77037-23.703703-15.170371-13.274074h67.318519c-0.948148 14.222222-5.688889 26.548148-11.377778 36.977777zM265.481481 310.044444l60.681482-35.081481c5.688889 11.377778 10.42963 23.703704 12.325926 36.977778h-72.059259c0-0.948148-0.948148-1.896296-0.948149-1.896297z m55.940741-43.614814l-60.681481 35.081481-5.688889-5.688889c-1.896296-1.896296-4.740741-3.792593-6.637037-5.688889l35.081481-60.681481c7.585185 4.740741 15.17037 10.42963 20.85926 17.066667 6.637037 5.688889 12.325926 12.325926 17.066666 19.911111z m-72.059259 40.77037l-6.637037 3.792593h-6.637037l6.637037-11.377778c1.896296 0.948148 2.844444 1.896296 3.792593 3.792592 0.948148 1.896296 1.896296 2.844444 2.844444 3.792593z m25.6-83.437037l-35.081482 60.681481c-4.740741-1.896296-10.42963-3.792593-16.118518-3.792592v-70.162963c18.962963 0.948148 36.02963 5.688889 51.2 13.274074z m-40.77037 72.059259l-9.481482 16.118519h-0.948148v-18.962963c3.792593 0 6.637037 0.948148 10.42963 2.844444z m-19.911112-85.333333v70.162963c-5.688889 0.948148-11.377778 1.896296-16.118518 4.740741l-35.081482-60.681482c15.17037-8.533333 32.237037-13.274074 51.2-14.222222z m0 82.488889v19.911111l-9.481481-17.066667c2.844444-0.948148 5.688889-1.896296 9.481481-2.844444z m-59.733333-63.525926l35.081482 60.681481c-1.896296 1.896296-4.740741 3.792593-6.637037 5.688889-1.896296 1.896296-3.792593 3.792593-5.688889 6.637037l-60.681482-35.081481c4.740741-7.585185 10.42963-14.222222 17.066667-20.859259 6.637037-6.637037 13.274074-12.325926 20.859259-17.066667z m41.718519 71.111111l9.481481 17.066667-17.066667-9.481482c0.948148-0.948148 1.896296-2.844444 3.792593-3.792592 0.948148-1.896296 1.896296-2.844444 3.792593-3.792593z m-83.437037-25.6l60.681481 35.081481c-1.896296 4.740741-3.792593 10.42963-4.740741 16.118519h-70.162963c0.948148-18.014815 5.688889-36.02963 14.222223-51.2z m71.111111 41.718518l17.066666 9.481482h-19.911111c0.948148-3.792593 1.896296-6.637037 2.844445-9.481482z m-85.333334 18.962963h70.162963c0.948148 5.688889 1.896296 11.377778 3.792593 16.118519l-60.681482 35.081481c-7.585185-15.17037-12.325926-32.237037-13.274074-51.2z m82.488889 0h19.911111l-17.066666 9.481482c-0.948148-2.844444-1.896296-5.688889-2.844445-9.481482z m-63.525926 59.733334l60.681482-35.081482c1.896296 2.844444 3.792593 4.740741 5.688889 6.637037 1.896296 1.896296 3.792593 3.792593 5.688889 4.740741l-35.081482 60.681482c-7.585185-4.740741-14.222222-10.42963-20.859259-16.118519-5.688889-5.688889-11.377778-13.274074-16.118519-20.859259z m71.111111-40.770371l17.066667-9.481481-9.481481 17.066667c-0.948148-0.948148-2.844444-1.896296-3.792593-2.844445-1.896296-1.896296-2.844444-3.792593-3.792593-4.740741z m-25.6 83.437037l35.081482-60.681481c4.740741 1.896296 10.42963 3.792593 16.118518 4.740741v70.162963c-18.962963-0.948148-36.02963-6.637037-51.2-14.222223z m40.770371-71.111111l8.533333-15.17037 0.948148 0.948148v17.066667c-2.844444-0.948148-5.688889-1.896296-9.481481-2.844445z m19.911111 84.385186v-70.162963c5.688889-0.948148 11.377778-1.896296 16.118518-3.792593l35.081482 60.681481c-15.17037 8.533333-32.237037 13.274074-51.2 13.274075z m0-81.540741v-8.533334l7.585185 6.637037c-1.896296 0.948148-4.740741 0.948148-7.585185 1.896297z m546.133333 272.118518l12.325926-53.096296c4.740741-19.911111-1.896296-31.288889-15.17037-38.874074l14.222222-59.733333h3.792593c-4.740741 33.185185 5.688889 61.62963 15.17037 84.385185 4.740741 11.377778 8.533333 20.859259 9.481482 29.392592 1.896296 17.066667-4.740741 29.392593-39.822223 37.925926zM525.274074 437.096296h-26.548148V384c9.481481-4.740741 17.066667-13.274074 22.755555-22.755556 9.481481 6.637037 20.859259 17.066667 31.288889 34.133334 30.340741 48.355556 88.177778 146.962963 89.125926 146.962963l0.948148 0.948148c14.222222 19.911111 41.718519 24.651852 69.214815 29.392592 3.792593 0.948148 6.637037 0.948148 10.42963 1.896297l-5.688889 22.755555-194.37037-103.348148H521.481481c-19.911111-9.481481-42.666667-14.222222-65.422222-11.377778-4.740741 0.948148-9.481481 1.896296-14.222222 3.792593l25.6-93.866667h5.688889v46.45926H464.592593v15.17037h58.785185v-17.066667h1.896296z m-107.140741-86.281481c3.792593 12.325926 12.325926 23.703704 22.755556 30.340741l-26.548148 95.762963L350.814815 421.925926c14.222222-20.859259 23.703704-44.562963 26.548148-71.111111h40.77037z"  horiz-adv-x="1024" />

    
    <glyph glyph-name="dian2" unicode="&#58925;" d="M512 384m-447.616766 0a438 438 0 1 0 895.233533 0 438 438 0 1 0-895.233533 0Z"  horiz-adv-x="1024" />

    
    <glyph glyph-name="yonghushezhi-" unicode="&#58908;" d="M387.3 335.2c-64.7 0-125.6 26.1-171.3 73.6-45.5 47.3-70.6 110-70.6 176.8 0 66.7 25.1 129.5 70.6 176.8C261.8 809.8 322.6 836 387.3 836s125.6-26.1 171.3-73.6c45.5-47.3 70.6-110 70.6-176.8 0-66.7-25.1-129.5-70.6-176.8-45.7-47.4-106.5-73.6-171.3-73.6z m0 460.8c-111.3 0-201.8-94.4-201.8-210.4S276 375.2 387.3 375.2s201.8 94.4 201.8 210.4S498.6 796 387.3 796zM710.1-68H64.5C42.7-68 25-50.2 25-28.4V97.4c0 62.9 24.5 122 69 166.5s103.6 69 166.5 69h253.8c12.6 0 25.3-1 37.7-3 10.9-1.8 18.3-12 16.6-22.9-1.8-10.9-12-18.3-22.9-16.6-10.3 1.7-20.8 2.5-31.3 2.5h-254C152.6 292.8 65 205.2 65 97.4V-28h644.9c6.7 8.6 19.2 10.2 27.9 3.6 8.8-6.7 10.5-19.3 3.7-28-7.5-9.9-19-15.6-31.4-15.6zM742.8 11.6c-7.3 0-14.5 1.9-20.9 5.6l-47.8 27.4c-20.1 11.5-27 37.2-15.5 57.3l7.9 13.7c-3.6 5.4-6.9 11-9.8 16.8h-15.8-0.1c-23.1 0-41.9 18.8-42 41.8l-0.2 55.1c0 11.2 4.3 21.8 12.2 29.7 7.9 8 18.4 12.3 29.6 12.4h15.8c1.5 3 3 5.9 4.5 8.6s3.3 5.5 5.2 8.3L658 302c-5.6 9.7-7.2 21-4.3 31.8 2.9 10.8 9.8 19.9 19.5 25.5l47.6 27.7c6.4 3.7 13.7 5.7 21.1 5.7 14.9 0 28.8-8 36.3-20.9l7.9-13.7c6.5 0.4 13 0.4 19.5 0l7.9 13.7c7.5 13 21.4 21.1 36.4 21.1 7.3 0 14.5-1.9 20.9-5.6l47.8-27.4c9.7-5.6 16.7-14.6 19.6-25.4s1.5-22.1-4.1-31.9l-7.9-13.7c3.6-5.4 6.9-11 9.8-16.8h15.9c23.1 0 41.9-18.8 42-41.8l0.2-55.1c0-11.2-4.3-21.8-12.2-29.7-7.9-8-18.4-12.3-29.6-12.4h-15.8c-1.5-3-3-5.9-4.5-8.6-1.6-2.7-3.3-5.5-5.2-8.3l7.9-13.6c5.6-9.7 7.2-21 4.3-31.8-2.9-10.8-9.8-19.9-19.5-25.5l-47.6-27.7c-6.4-3.7-13.7-5.7-21.1-5.7-14.9 0-28.8 8-36.3 20.9l-7.9 13.7c-6.5-0.4-13-0.4-19.5 0l-7.9-13.7c-7.5-13.1-21.4-21.2-36.4-21.2z m-73.2 160.9c8.2 0 15.6-5 18.6-12.7 4.3-10.9 10.2-21.1 17.6-30.3 5.2-6.4 5.9-15.3 1.8-22.5l-14.3-25c-0.5-0.9-0.2-2.1 0.7-2.7l47.8-27.4c0.3-0.2 0.6-0.3 1-0.3 0.3 0 1.2 0.1 1.7 1l14.3 25c4.1 7.1 12.2 11.1 20.3 9.8 11.7-1.7 23.6-1.7 35.1 0.1 8.1 1.3 16.2-2.6 20.4-9.7l14.5-24.9c0.5-0.9 1.5-1 1.7-1 0.3 0 0.7 0.1 1 0.3l47.6 27.7c0.5 0.3 0.8 0.7 0.9 1.2s0.1 1-0.2 1.5l-14.5 25c-4.1 7.1-3.5 16 1.6 22.5 4.2 5.3 7.4 9.9 10 14.5 2.6 4.6 5 9.6 7.4 15.9 3 7.7 10.4 12.7 18.6 12.8l28.9 0.1c0.5 0 1 0.2 1.4 0.6s0.6 0.9 0.6 1.4l-0.2 55.1c0 1.1-0.9 2-2 2l-28.8-0.1h-0.1c-8.2 0-15.6 5-18.6 12.7-4.3 10.9-10.2 21.1-17.6 30.3-5.2 6.4-5.9 15.3-1.8 22.5l14.3 25c0.3 0.5 0.3 1 0.2 1.5s-0.5 0.9-0.9 1.2L850.8 353c-0.3 0.2-0.6 0.3-1 0.3-0.3 0-1.2-0.1-1.7-1l-14.3-25c-4.1-7.1-12.2-11-20.3-9.8-11.7 1.7-23.6 1.7-35.1-0.1-8.1-1.3-16.2 2.6-20.4 9.7L743.5 352c-0.5 0.9-1.5 1-1.7 1-0.3 0-0.7-0.1-1-0.3L693.2 325c-0.5-0.3-0.8-0.7-0.9-1.2-0.1-0.5-0.1-1 0.2-1.5l14.5-25c4.1-7.1 3.5-16-1.6-22.5-4.2-5.3-7.4-9.9-10-14.5-2.6-4.6-5-9.6-7.4-15.9-3-7.7-10.4-12.7-18.6-12.8l-28.9-0.1c-0.5 0-1-0.2-1.4-0.6s-0.6-0.9-0.6-1.4l0.2-55.1c0-1.1 0.9-2 2-2l28.9 0.1zM796.3 143.3c-10.3 0-20.4 2.7-29.3 7.8-13.7 7.8-23.5 20.5-27.6 35.7-4.1 15.2-2.1 31.1 5.8 44.8 10.5 18.3 30.1 29.7 51.2 29.7 10.3 0 20.4-2.7 29.3-7.8 13.7-7.8 23.5-20.5 27.6-35.7s2.1-31.1-5.8-44.8c-10.5-18.3-30.1-29.7-51.2-29.7z m0.1 78c-6.8 0-13.1-3.7-16.5-9.6-2.5-4.4-3.2-9.5-1.9-14.4 1.3-4.9 4.5-9 8.9-11.5 2.9-1.7 6.1-2.5 9.4-2.5 6.8 0 13.1 3.7 16.5 9.6 2.5 4.4 3.2 9.5 1.9 14.4-1.3 4.9-4.5 9-8.9 11.5-2.9 1.7-6.1 2.5-9.4 2.5z"  horiz-adv-x="1024" />

    
    <glyph glyph-name="yidongbiaoge" unicode="&#58930;" d="M227.555556 327.736889L796.444444 327.111111v-113.777778l227.555556 170.666667-227.555556 170.666667v-113.777778L227.555556 440.32v-112.583111z m568.888888 112.526222L227.555556 440.888889V554.666667L0 384l227.555556-170.666667v113.777778l568.888888 0.568889V440.263111zM455.736889 668.444444L455.111111 99.555556H341.333333l170.666667-227.555556 170.666667 227.555556h-113.777778L568.32 668.444444H455.736889z m112.526222-568.888888L568.888889 668.444444h113.777778L512 896 341.333333 668.444444h113.777778l0.568889-568.888888h112.583111z"  horiz-adv-x="1024" />

    
    <glyph glyph-name="yuandian" unicode="&#59330;" d="M858.3 584.8C894 523.5 912 456.6 912 384s-17.9-139.5-53.7-200.8C822.5 122 774 73.4 712.8 37.7S584.6-16 512-16s-139.5 17.9-200.8 53.7c-61.2 35.7-109.7 84.2-145.6 145.6C129.9 244.5 112 311.4 112 384c0 72.5 17.9 139.4 53.7 200.8 35.7 61.2 84.2 109.7 145.6 145.6C372.5 766 439.4 784 512 784c72.5 0 139.4-17.9 200.8-53.7C774 694.5 822.5 646 858.3 584.8z m-204.1 44.4c-43.4 25.3-90.8 38-142.2 38s-98.8-12.7-142.2-38-77.8-59.7-103.1-103.1-38-90.8-38-142.2c0-51.4 12.7-98.8 38-142.2s59.7-77.8 103.1-103.1c43.4-25.3 90.8-38 142.2-38s98.8 12.7 142.2 38c43.4 25.3 77.8 59.7 103.1 103.1 25.3 43.4 38 90.8 38 142.2s-12.7 98.8-38 142.2c-25.4 43.4-59.8 77.8-103.1 103.1z m-47.9-151c26.1-26.1 39.1-57.5 39.1-94.3s-13-68.2-39.1-94.3c-26.1-26.1-57.5-39.1-94.3-39.1s-68.2 13-94.3 39.1c-26.1 26.1-39.1 57.5-39.1 94.3s13 68.2 39.1 94.3c26.1 26.1 57.5 39.1 94.3 39.1s68.2-13 94.3-39.1z"  horiz-adv-x="1024" />

    
    <glyph glyph-name="iconfontquestion" unicode="&#58894;" d="M512 819C271.8 819 77 624.2 77 384c0-240.2 194.8-435 435-435 240.2 0 435 194.8 435 435C947 624.2 752.2 819 512 819L512 819zM509.2 79.6c-35.4 0-64.2 28.2-64.2 62.9s28.7 62.9 64.2 62.9c35.4 0 64.2-28.2 64.2-62.9S544.7 79.6 509.2 79.6L509.2 79.6zM681.6 435.5c-12.6-19.8-39.3-46.7-80.3-80.8-21.2-17.6-34.4-31.8-39.5-42.6-5.1-10.7-7.5-29.9-7-57.6l-91.4 0c-0.2 13.1-0.4 21.1-0.4 24 0 29.6 4.9 53.9 14.7 73 9.8 19.1 29.4 40.6 58.7 64.4 29.3 23.9 46.9 39.5 52.6 46.9 8.8 11.7 13.3 24.6 13.3 38.6 0 19.5-7.9 36.2-23.5 50.2-15.6 13.9-36.8 20.9-63.3 20.9-25.6 0-47-7.3-64.2-21.8-17.2-14.5-32-46.5-35.5-66.3-3.3-18.7-93.4-26.6-92.3 11.3 1.1 37.9 20.8 79 54.6 108.8 33.8 29.8 78.2 44.7 133.1 44.7 57.8 0 103.7-15.1 137.9-45.3 34.2-30.2 51.2-65.3 51.2-105.4C700.4 476.3 694.1 455.3 681.6 435.5L681.6 435.5z"  horiz-adv-x="1024" />

    
    <glyph glyph-name="guanbi" unicode="&#58888;" d="M583.168 372.224L958.464 747.52c18.944 18.944 18.944 50.176 0 69.12l-2.048 2.048c-18.944 18.944-50.176 18.944-69.12 0L512 442.88 136.704 818.688c-18.944 18.944-50.176 18.944-69.12 0l-2.048-2.048c-19.456-18.944-19.456-50.176 0-69.12l375.296-375.296L65.536-3.072c-18.944-18.944-18.944-50.176 0-69.12l2.048-2.048c18.944-18.944 50.176-18.944 69.12 0L512 301.056 887.296-74.24c18.944-18.944 50.176-18.944 69.12 0l2.048 2.048c18.944 18.944 18.944 50.176 0 69.12L583.168 372.224z"  horiz-adv-x="1024" />

    
    <glyph glyph-name="yuanjiaofangkuang" unicode="&#58952;" d="M64 768.380142 64 768.380142 64-0.380141C64-35.452058 92.530723-64 127.619858-64L896.380141-64C931.452058-64 960-35.46928 960-0.380141L960 768.380142C960 803.452056 931.46928 832 896.380141 832L127.619858 832C92.547944 832 64 803.469277 64 768.380142L64 768.380142ZM0 768.380142C0 838.862643 57.24888 896 127.619858 896L896.380141 896C966.862643 896 1024 838.75112 1024 768.380142L1024-0.380141C1024-70.862643 966.751117-128 896.380141-128L127.619858-128C57.137357-128 0-70.751117 0-0.380141L0 768.380142 0 768.380142Z"  horiz-adv-x="1024" />

    
    <glyph glyph-name="qiehuanzuzhi" unicode="&#58893;" d="M272.050167 777.390377 916.711307 777.390377C978.164319 777.390377 1020.51595 748.863374 1042.685301 703.117089 1055.122564 677.452888 1059.082196 652.389129 1058.929203 632.95479L1057.549809 623.5527 951.899019 250.473335C946.395692 231.039699 926.180286 219.746956 906.746646 225.250286 887.313013 230.753616 876.020268 250.969021 881.523602 270.402657L987.174393 643.482022C987.174393 643.482022 985.793243 633.954785 985.792527 633.87393 985.861603 642.719577 983.533188 657.458036 976.8643 671.219221 966.533654 692.536428 949.147187 704.24752 916.711307 704.24752L265.823594 704.24752 317.397849 652.673265C331.67988 638.391234 331.67988 615.235486 317.397849 600.953454 303.115818 586.671424 279.96007 586.671424 265.678038 600.953454L154.785736 711.845756C140.503706 726.127788 140.503706 749.283536 154.785736 763.565567L266.851405 875.631235C281.133436 889.913266 304.289184 889.913266 318.571215 875.631235 332.853247 861.349204 332.853247 838.193456 318.571215 823.911425L272.050167 777.390377ZM206.505547 714.213081C206.911917 713.829694 207.327069 713.455515 207.750668 713.090877L206.505547 711.845756 206.505547 714.213081ZM825.092688 10.927082 180.431548 10.927082C118.978539 10.927082 76.626911 39.454084 54.457557 85.200369 42.020291 110.864574 38.060662 135.928335 38.213653 155.36267L39.593044 164.764761 145.243838 537.844125C150.747168 557.277761 170.962573 568.570504 190.396209 563.067174 209.829844 557.563843 221.122588 537.348438 215.619257 517.914803L109.968464 144.835438C109.968464 144.835438 111.349611 154.362675 111.350332 154.443527 111.281257 145.597886 113.609672 130.859425 120.278554 117.09824 130.6092 95.781032 147.995668 84.069939 180.431548 84.069939L831.319267 84.069939 779.745009 135.644197C765.462974 149.926224 765.462974 173.081974 779.745009 187.364006 794.027037 201.646037 817.182786 201.646037 831.464821 187.364006L942.357124 76.471706C956.639152 62.18967 956.639152 39.033922 942.357124 24.751894L830.291449-87.313774C816.009421-101.595809 792.853672-101.595809 778.571644-87.313774 764.289609-73.031746 764.289609-49.875997 778.571644-35.593962L825.092688 10.927082ZM890.637312 74.104379C890.230938 74.487764 889.815786 74.861948 889.392187 75.22658L890.637312 76.471706 890.637312 74.104379ZM786.285714 463.238095C806.483558 463.238095 822.857143 479.611682 822.857143 499.809524 822.857143 520.007366 806.483558 536.380952 786.285714 536.380952L416.507936 536.380952C396.310094 536.380952 379.936508 520.007366 379.936508 499.809524 379.936508 479.611682 396.310094 463.238095 416.507936 463.238095L786.285714 463.238095ZM680.634921 251.936508C700.832763 251.936508 717.20635 268.310094 717.20635 288.507936 717.20635 308.705779 700.832763 325.079365 680.634921 325.079365L310.857143 325.079365C290.659301 325.079365 274.285714 308.705779 274.285714 288.507936 274.285714 268.310094 290.659301 251.936508 310.857143 251.936508L680.634921 251.936508Z"  horiz-adv-x="1098" />

    
    <glyph glyph-name="caidan" unicode="&#58889;" d="M449.792 420.608H120.32c-15.616 0-28.16 12.544-28.16 28.16V778.24c0 15.616 12.544 28.16 28.16 28.16h329.472c15.616 0 28.16-12.544 28.16-28.16v-329.472c0-15.616-12.544-28.16-28.16-28.16zM148.48 476.928h273.152V750.08H148.48v-273.152zM903.68 420.608H574.208c-15.616 0-28.16 12.544-28.16 28.16V778.24c0 15.616 12.544 28.16 28.16 28.16H903.68c15.616 0 28.16-12.544 28.16-28.16v-329.472c0-15.616-12.544-28.16-28.16-28.16z m-301.312 56.32H875.52V750.08H602.368v-273.152zM449.792-38.4H120.32c-15.616 0-28.16 12.544-28.16 28.16V319.232c0 15.616 12.544 28.16 28.16 28.16h329.472c15.616 0 28.16-12.544 28.16-28.16V-10.24c0-15.616-12.544-28.16-28.16-28.16zM148.48 17.92h273.152V291.072H148.48V17.92zM903.424-38.4H573.952c-15.616 0-28.16 12.544-28.16 28.16V319.232c0 15.616 12.544 28.16 28.16 28.16h329.472c15.616 0 28.16-12.544 28.16-28.16V-10.24c0-15.616-12.544-28.16-28.16-28.16z m-301.312 56.32h273.152V291.072H602.112V17.92z"  horiz-adv-x="1024" />

    
    <glyph glyph-name="shandian" unicode="&#59514;" d="M819.2 896H307.2L204.8 384h93.184L204.8-128 716.8 435.2h-128L819.2 896z"  horiz-adv-x="1024" />

    
    <glyph glyph-name="dianboxindiantu" unicode="&#58921;" d="M891.1 315.1c-25.5 0-47.5-13.9-59.4-34.5H705.6l-99.8 199.5L529 198.5l-51.6 567.8-67.6 5.8-131-491.3H64v-68.9h267.7l94.6 354.9 51.3-564.7 67.6-5.9 79.6 292 38.1-76.2h168.8c11.9-20.5 33.9-34.5 59.4-34.5 38 0 68.9 30.9 68.9 68.9 0 38-30.9 68.7-68.9 68.7z"  horiz-adv-x="1024" />

    
    <glyph glyph-name="wenjianjia" unicode="&#59233;" d="M510.4 652.8c8-27.2 33.6-44.8 60.8-44.8h259.2c0 35.2-28.8 64-64 64H504l6.4-19.2zM484.8 736h281.6c70.4 0 128-57.6 128-128v-25.6c30.4-24 51.2-60.8 51.2-102.4v-384c0-70.4-57.6-128-128-128H208c-70.4 0-128 57.6-128 128V672c0 70.4 57.6 128 128 128h164.8c46.4 0 89.6-25.6 112-64z m-112 0H208c-35.2 0-64-28.8-64-64v-576c0-35.2 28.8-64 64-64h608c35.2 0 64 28.8 64 64V480c0 35.2-28.8 64-64 64H574.4c-56 0-105.6 36.8-121.6 89.6l-19.2 57.6c-8 27.2-32 44.8-60.8 44.8zM272 192h256c17.6 0 32-14.4 32-32s-14.4-32-32-32H272c-17.6 0-32 14.4-32 32s14.4 32 32 32z"  horiz-adv-x="1024" />

    
    <glyph glyph-name="jiantou_up" unicode="&#58905;" d="M512.289 543.589l270.188-270.23c0.287-0.264 0.573-0.531 0.851-0.809 10.935-10.935 10.935-28.663 0-39.598-10.935-10.935-28.663-10.935-39.598 0-0.278 0.278-0.545 0.564-0.809 0.851l-0.021-0.021-230.691 230.69-231.94-231.94c-10.935-10.935-28.663-10.935-39.598 0s-10.935 28.663 0 39.598l271.617 271.459z"  horiz-adv-x="1024" />

    
    <glyph glyph-name="xingmingyonghumingnicheng" unicode="&#58916;" d="M652.3 333.3C741.6 382.7 802 477.8 802 587c0 160.2-129.8 290-290 290-160.2 0-290-129.8-290-290 0-109.2 60.4-204.3 149.7-253.7C184 273.8 48 98.3 48-109l58 0c0 224.2 181.8 406 406 406 224.2 0 406-181.8 406-406l58 0C976 98.3 840 273.8 652.3 333.3zM280 587c0 128.1 103.9 232 232 232 128.1 0 232-103.9 232-232 0-128.1-103.9-232-232-232C383.9 355 280 458.9 280 587z"  horiz-adv-x="1024" />

    
    <glyph glyph-name="mima" unicode="&#58907;" d="M916.210526-128 107.789474-128C78.012632-128 53.894737-103.855158 53.894737-74.105263L53.894737 410.947368C53.894737 440.724211 78.012632 464.842105 107.789474 464.842105L188.631579 464.842105 188.631579 572.631579C188.631579 751.238737 333.419789 896 512 896 690.580211 896 835.368421 751.238737 835.368421 572.631579L835.368421 464.842105 916.210526 464.842105C945.987368 464.842105 970.105263 440.724211 970.105263 410.947368L970.105263-74.105263C970.105263-103.855158 945.987368-128 916.210526-128ZM781.473684 572.631579C781.473684 721.461895 660.830316 842.105263 512 842.105263 363.169684 842.105263 242.526316 721.461895 242.526316 572.631579L242.526316 464.842105 781.473684 464.842105 781.473684 572.631579ZM916.210526 410.947368 835.368421 410.947368 188.631579 410.947368 107.789474 410.947368 107.789474-74.105263 916.210526-74.105263 916.210526 410.947368ZM512 303.157895C526.874947 303.157895 538.947368 291.085474 538.947368 276.210526L538.947368 60.631579C538.947368 45.756632 526.874947 33.684211 512 33.684211 497.125053 33.684211 485.052632 45.756632 485.052632 60.631579L485.052632 276.210526C485.052632 291.085474 497.125053 303.157895 512 303.157895Z"  horiz-adv-x="1024" />

    
    <glyph glyph-name="gantanhao" unicode="&#59152;" d="M512 896C229.23 896 0 666.77 0 384s229.23-512 512-512 512 229.23 512 512S794.77 896 512 896z m44-256v-339.492c0-24.301-19.7-44-44-44s-44 19.699-44 44V640c0 24.3 19.7 44 44 44s44-19.7 44-44z m-44-428c35.346 0 64-28.654 64-64 0-35.346-28.654-64-64-64-35.346 0-64 28.654-64 64 0 35.346 28.654 64 64 64z"  horiz-adv-x="1024" />

    
    <glyph glyph-name="cha-fill-" unicode="&#58919;" d="M174.08 721.92c-186.368-186.368-186.368-489.472 0-675.84s489.472-186.368 675.84 0c186.368 186.368 186.368 489.472 0 675.84s-489.472 186.368-675.84 0z m509.952-197.973333L544.085333 384l172.032-172.032c-17.749333-17.749333-46.421333-17.749333-64.853333 0L512 351.914667l-172.032-172.032c-17.749333 17.749333-17.749333 46.421333 0 64.853333L479.914667 384 307.882667 556.032c17.749333 17.749333 46.421333 17.749333 64.853333 0L512 416.085333l172.032 172.032c17.749333-17.749333 17.749333-46.421333 0-64.170666z"  horiz-adv-x="1024" />

    
    <glyph glyph-name="dian" unicode="&#60446;" d="M512 272a112 112 0 1 1 0 224 112 112 0 0 1 0-224z"  horiz-adv-x="1024" />

    
    <glyph glyph-name="zhijiao-triangle-copy" unicode="&#60507;" d="M62 824.325l900 9.675-900-890.325z"  horiz-adv-x="1024" />

    
    <glyph glyph-name="renwu" unicode="&#58964;" d="M840.454 833.558h-638.605c-76.445 0-139.409-63.68-139.409-141.007v-614.048c0-77.326 62.963-141.007 139.408-141.007h638.605c76.454 0 139.408 63.68 139.408 141.007v614.048c0 77.326-58.454 141.007-139.408 141.007zM912.409 73.95c0-40.931-31.473-72.772-71.954-72.772h-638.605c-40.473 0-71.954 31.84-71.954 72.772v618.603c0 40.931 31.481 72.772 71.954 72.772h638.605c40.481 0 71.954-31.84 71.954-72.772v-618.603zM399.73 610.68l-98.936-100.065-44.973 45.477c-13.5 13.647-35.981 13.647-44.973 0-13.5-13.638-13.5-36.386 0-45.477l71.954-72.781c4.5-4.546 13.492-9.092 26.981-9.092 13.5 0 13.5 4.546 26.981 9.092l121.426 122.813c13.5 13.647 13.5 36.386 0 45.487-26.981 13.638-44.973 13.638-58.463 4.546zM813.473 556.092h-310.308c-22.481 0-31.481-13.638-31.481-31.84 0-22.739 13.5-31.84 31.481-31.84h310.316c22.481 0 31.473 13.647 31.473 31.84 0 18.202-13.5 31.84-31.481 31.84zM318.775 351.416c-58.463 0-103.436-45.487-103.436-104.62 0-59.125 44.973-104.611 103.436-104.611 58.473 0 103.436 45.487 103.436 104.611 0 63.68-49.463 104.62-103.436 104.62zM318.775 214.957c-22.481 0-35.973 13.647-35.973 36.386 0 22.747 13.492 36.395 35.973 36.395 22.492 0 35.981-13.647 35.981-36.395 0-22.739-17.992-36.386-35.981-36.386zM813.473 283.192h-310.308c-22.481 0-31.481-13.647-31.481-31.849 0-18.184 13.5-31.84 31.481-31.84h310.316c22.481 0 31.473 13.647 31.473 31.84 0 18.202-13.5 31.84-31.481 31.84z"  horiz-adv-x="1044" />

    
    <glyph glyph-name="icon-" unicode="&#58956;" d="M860.16 711.68H163.84a122.88 122.88 0 0 1-122.88-122.88v-40.96a122.88 122.88 0 0 1 122.88-122.88h696.32a122.88 122.88 0 0 1 122.88 122.88v40.96a122.88 122.88 0 0 1-122.88 122.88z m81.92-163.84a81.92 81.92 0 0 0-81.92-81.92H163.84a81.92 81.92 0 0 0-81.92 81.92v40.96a81.92 81.92 0 0 0 81.92 81.92h696.32a81.92 81.92 0 0 0 81.92-81.92zM860.16 343.04H163.84a122.88 122.88 0 0 1-122.88-122.88v-40.96a122.88 122.88 0 0 1 122.88-122.88h696.32a122.88 122.88 0 0 1 122.88 122.88v40.96a122.88 122.88 0 0 1-122.88 122.88z m81.92-163.84a81.92 81.92 0 0 0-81.92-81.92H163.84a81.92 81.92 0 0 0-81.92 81.92v40.96a81.92 81.92 0 0 0 81.92 81.92h696.32a81.92 81.92 0 0 0 81.92-81.92zM184.32 629.76a61.44 61.44 0 1 1 61.44-61.44 61.44 61.44 0 0 1-61.44 61.44z m0-81.92a20.48 20.48 0 1 0 20.48 20.48 20.48 20.48 0 0 0-20.48-20.48zM839.68 261.12a61.44 61.44 0 1 1 61.44-61.44 61.44 61.44 0 0 1-61.44 61.44z m0-81.92a20.48 20.48 0 1 0 20.48 20.48 20.48 20.48 0 0 0-20.48-20.48zM204.8 281.6a81.92 81.92 0 0 1-79.0528-102.4h43.8272A40.96 40.96 0 0 0 163.84 199.68a40.96 40.96 0 0 0 40.96 40.96h81.92v40.96zM860.16 568.32a40.96 40.96 0 0 0-5.7344-20.48h43.8272A81.92 81.92 0 0 1 819.2 650.24v-40.96a40.96 40.96 0 0 0 40.96-40.96zM737.28 650.24h40.96v-40.96h-40.96z"  horiz-adv-x="1024" />

    
    <glyph glyph-name="shezhi" unicode="&#58931;" d="M917.3 463.6c-7.2 38.2-33.7 63.5-68.6 63.5h-1.5c-35.3 0-64.1 28.9-64.1 64.4 0 8 3.9 19.7 5.6 23.8 15 33.8 3.5 75.3-27.7 97.2l-97.8 54.7-4 1.9c-9.8 4.3-20.7 6.3-31.5 6.3-22.6 0-45.4-8.8-60.7-24.7-14.6-15.1-40.8-32.6-52.8-32.6-12.1 0-38.5 17.9-53 33.2-15.3 16.2-38.1 25.3-60.9 25.3-10.7 0-21.5-2-31.5-6.3l-102.1-55.9-4-2.6c-30.4-21.2-41.9-62.6-27-96.4 1.9-4.4 5.8-16 5.8-24 0-35.5-28.8-64.4-66.6-64.4h-1.6c-32.4 0-58.9-25.3-66.1-64.1-2-10.9-8.4-48.9-8.4-80.4 0-31.6 6.4-69.5 8.5-81.1 7.2-38 33.8-63.5 66.2-63.5h3.9c35.3 0 64.1-28.9 64.1-64.3 0-7.7-3.6-19-5.7-23.8-14.9-33.8-3.5-75.2 27.1-96.8l96.4-54.4 3.9-1.9c9.8-4.4 20.6-6.4 31.5-6.4 23 0 46.3 9.3 61.5 26 14.3 15.5 42 34.7 53.9 34.7 12.4 0 39.4-19.1 54.2-35.4 15.3-16.9 37.6-26.7 61.4-26.7 11.2 0 21.8 2.1 31.7 6.4l100.3 55.3 4 2.6c30.3 21.2 41.8 62.6 26.9 96.3-1.8 4.4-5.7 16-5.7 24 0 35.5 28.8 64.3 66.8 64.3 32.6 0.4 60.1 24.9 67.5 64.1 2 10.9 8.4 48.9 8.4 80.4 0.2 31.7-6.3 69.8-8.3 81.3z m-58.1-150.8c-1.4-7.6-5.4-15.7-10.2-15.7-69.8 0-125-54.2-125-123.4 0-20.5 7.9-41 10.3-46.8 4-9 0.8-20.2-6.3-25.1l-0.2-0.1-95.5-52.7c-1.9-0.6-4-0.9-6.4-0.9-6.9 0-13.4 2.7-17.4 7.1-5.4 5.9-51.5 54.9-98.1 54.9-47.4 0-96.9-53.2-97.4-53.7-3.8-4.2-11.2-7-18.1-7-2.6 0-5.1 0.4-7.1 1.2l-1 0.5-91.3 51.5c-6.4 5.6-9 15.9-5.6 23.4 2.1 5 10.7 26.4 10.7 47.7 0 68-55.3 123.4-123.2 123.4h-3.9c-1.4 0.3-6.1 4.8-8.2 15.4-1.7 9.3-7.4 43.7-7.4 70.1 0 21 3.8 49.8 7.4 69.9 1.9 10.1 6.3 14.9 7.7 15.6h1.9c70.4 0.1 125.6 54.3 125.6 123.5 0 21.3-8.6 42.8-10.4 46.9-3.8 8.6-0.9 19.4 5.8 24.6l1 0.6 96.8 53.1c1.9 0.6 4.2 0.9 6.5 0.9 6.9 0 14.1-2.8 18-6.9 2-2.1 49.5-51.6 95.9-51.6 45.8 0 93.2 48.5 95.2 50.6 3.9 4 11.3 6.8 18.2 6.8 2.7 0 5.2-0.4 7.2-1.2l0.8-0.4 92.9-51.9c6.7-5.9 9.5-16.1 6.1-23.8-2.1-4.9-10.7-26.2-10.7-47.7 0-68.1 55.2-123.4 123.2-123.4 8.4 0 11.1-10.8 12-15.4 3.6-19.7 7.5-48.8 7.5-70.1 0.2-21.6-3.8-51.1-7.3-69.9zM512.3 540.3c-87 0-157.6-70.5-157.6-157.5s70.5-157.6 157.6-157.6c87 0 157.5 70.5 157.5 157.6 0 87-70.5 157.5-157.5 157.5z m0-256c-54.3 0-98.5 44.1-98.5 98.4 0 54.3 44.2 98.4 98.5 98.4s98.4-44.1 98.4-98.4c0-54.2-44.1-98.4-98.4-98.4z"  horiz-adv-x="1024" />

    
    <glyph glyph-name="shipin" unicode="&#58915;" d="M645.6 116.9c0 73.6-59.9 133.6-133.6 133.6s-133.6-59.9-133.6-133.6 60-133.6 133.6-133.6 133.6 59.9 133.6 133.6z m-222.6 0c0 49.1 39.9 89 89 89s89-39.9 89-89-39.9-89-89-89-89 39.9-89 89zM779.1 250.4c73.6 0 133.6 59.9 133.6 133.6s-59.9 133.6-133.6 133.6-133.5-60-133.5-133.6 59.9-133.6 133.5-133.6z m0 222.6c49.1 0 89-39.9 89-89s-39.9-89-89-89-89 39.9-89 89 39.9 89 89 89zM244.9 517.6c-73.6 0-133.6-59.9-133.6-133.6s59.9-133.6 133.6-133.6 133.5 60 133.5 133.6-59.9 133.6-133.5 133.6z m0-222.6c-49.1 0-89 39.9-89 89s39.9 89 89 89 89-39.9 89-89-39.9-89-89-89zM512 517.6c73.6 0 133.6 59.9 133.6 133.6s-60 133.5-133.6 133.5-133.6-59.9-133.6-133.6 60-133.5 133.6-133.5z m0 222.6c49.1 0 89-39.9 89-89s-39.9-89-89-89-89 39.9-89 89 39.9 89 89 89zM1001.7-83.5h-281C899.3-3.4 1024 176 1024 384 1024 666.3 794.3 896 512 896S0 666.3 0 384s229.7-512 512-512h489.7c12.3 0 22.3 10 22.3 22.3s-10 22.2-22.3 22.2zM44.5 384C44.5 641.8 254.2 851.5 512 851.5S979.5 641.8 979.5 384 769.8-83.5 512-83.5 44.5 126.2 44.5 384z"  horiz-adv-x="1024" />

    
    <glyph glyph-name="xitongpeizhi" unicode="&#58948;" d="M215.579 677.723v83.541c0 14.882-12.065 26.947-26.948 26.947-14.882 0-26.947-12.065-26.947-26.947v-83.541c-61.5-12.484-107.79-66.854-107.79-132.039s46.29-119.555 107.79-132.04v-460.803c0-14.882 12.065-26.947 26.947-26.947 14.883 0 26.948 12.065 26.948 26.947V413.645c61.5 12.484 107.789 66.855 107.789 132.04s-46.289 119.554-107.789 132.038z m-26.948-212.881c-44.647 0-80.842 36.194-80.842 80.843 0 44.647 36.194 80.842 80.842 80.842 44.648 0 80.842-36.194 80.842-80.842 0.001-44.649-36.194-80.843-80.842-80.843z m350.316 51.198V761.264c0 14.882-12.064 26.947-26.947 26.947s-26.947-12.065-26.947-26.947V516.04c-61.5-12.484-107.79-66.855-107.79-132.04 0-65.185 46.29-119.555 107.79-132.039v-299.119c0-14.882 12.064-26.947 26.947-26.947s26.947 12.065 26.947 26.947V251.961c61.5 12.484 107.789 66.854 107.789 132.039 0 65.184-46.289 119.555-107.789 132.04zM512 303.158c-44.647 0-80.842 36.194-80.842 80.842s36.194 80.842 80.842 80.842 80.842-36.194 80.842-80.842-36.195-80.842-80.842-80.842z m350.315-2.697V761.264c0 14.882-12.064 26.947-26.947 26.947s-26.947-12.065-26.947-26.947v-460.803c-61.5-12.484-107.789-66.855-107.789-132.04s46.289-119.555 107.789-132.039v-83.54c0-14.882 12.064-26.947 26.947-26.947s26.947 12.065 26.947 26.947v83.54c61.5 12.484 107.79 66.854 107.79 132.039s-46.29 119.556-107.79 132.04z m-26.947-212.882c-44.647 0-80.842 36.194-80.842 80.842 0 44.648 36.194 80.843 80.842 80.843 44.648 0 80.843-36.194 80.843-80.843 0-44.648-36.194-80.842-80.843-80.842z"  horiz-adv-x="1024" />

    
    <glyph glyph-name="sousuo1" unicode="&#58920;" d="M936.444898 9.651057 773.85894 172.237015c62.556755 72.204485 96.698343 163.441443 96.698343 259.928984 0 106.210997-41.361013 206.064192-116.463502 281.167704-75.102489 75.101465-174.956707 116.462478-281.168728 116.462478-106.210997 0-206.064192-41.361013-281.165658-116.463502C116.656907 638.230192 75.296917 538.375973 75.296917 432.165999s41.361013-206.064192 116.463502-281.167704c75.101465-75.102489 174.955684-116.463502 281.165658-116.463502 87.748507 0 171.141822 28.255531 239.839437 80.420611l164.492378-164.492378c8.172123-8.172123 18.883069-12.259208 29.594015-12.259208s21.421892 4.087085 29.594015 12.259208C952.789145-33.191704 952.789145-6.69319 936.444898 9.651057zM159.000294 432.165999c0 173.099407 140.826376 313.925782 313.924759 313.925782 173.099407 0 313.926806-140.826376 313.926806-313.925782s-140.827399-313.924759-313.926806-313.924759C299.82667 118.240217 159.000294 259.066593 159.000294 432.165999z"  horiz-adv-x="1024" />

    
    <glyph glyph-name="sousuo" unicode="&#58951;" d="M845.31681 91.720967 669.806116 267.231661c39.298021 47.792125 60.686788 107.250849 60.686788 169.984409 0 71.637018-27.938437 138.975815-78.493704 189.63342-50.657605 50.657605-117.996402 78.493704-189.63342 78.493704s-138.975815-27.938437-189.63342-78.493704c-50.657605-50.657605-78.493704-117.996402-78.493704-189.63342s27.938437-138.975815 78.493704-189.63342c50.657605-50.657605 117.996402-78.493704 189.63342-78.493704 65.394363 0 127.206876 23.230861 176.022387 65.906056l174.999001-174.999001c4.40056-4.40056 10.131521-6.54967 15.964821-6.54967s11.564261 2.149111 15.964821 6.54967C854.117929 68.694783 854.117929 82.919848 845.31681 91.720967zM239.267639 437.21607c0 123.010993 100.087148 223.098141 223.098141 223.098141s223.098141-100.087148 223.098141-223.098141-100.087148-223.098141-223.098141-223.098141S239.267639 314.205077 239.267639 437.21607z"  horiz-adv-x="1024" />

    
    <glyph glyph-name="jia11" unicode="&#58911;" d="M832 320 576 320 576 64C576 28.672 547.328 0 512 0 476.608 0 448 28.672 448 64L448 320 192 320C156.608 320 128 348.672 128 384 128 419.328 156.608 448 192 448L448 448 448 704C448 739.328 476.608 768 512 768 547.328 768 576 739.328 576 704L576 448 832 448C867.328 448 896 419.328 896 384 896 348.672 867.328 320 832 320Z"  horiz-adv-x="1024" />

    
    <glyph glyph-name="jia2" unicode="&#58922;" d="M1024 435.2H563.2V896h-102.4v-460.8H0v-102.4h460.8V-128h102.4V332.8H1024z"  horiz-adv-x="1024" />

    
    <glyph glyph-name="printdaoru" unicode="&#59081;" d="M937.2 44.5V297c-0.7 23.7-20.1 42.7-44 42.7s-43.3-19-44-42.7v-217H178.5V297c-0.7 23.7-20.1 42.7-44 42.7s-43.3-19-44-42.7v-252.5c0-28.9 23.6-52.5 52.5-52.5h741.8c28.8 0 52.4 23.6 52.4 52.5zM482.8 270.8c17.1-17.1 45.1-17.1 62.2 0l164 164c17.1 17.1 17.1 45.1 0 62.2s-45.1 17.1-62.2 0l-85.7-85.7V726.1c0 26-21.3 47.2-47.2 47.2-26 0-47.2-21.3-47.2-47.2v-314.7L381 497.1c-17.1 17.1-45.1 17.1-62.2 0s-17.1-45.1 0-62.2l164-164.1z"  horiz-adv-x="1024" />

    
    <glyph glyph-name="jia" unicode="&#58963;" d="M0.4335 894.742849h1021.478473v-1021.492923H0.4335zM0.4335 894.742849l1021.471248-1021.485698M0.4335-126.742849L1021.904748 894.742849M881.848021 456.546278H577.624723V760.762351a65.025048 65.025048 0 0 1-65.025048 65.025048 65.025048 65.025048 0 0 1-65.025047-65.025048v-304.216073H143.358555a65.025048 65.025048 0 0 1-65.025048-65.025047 65.025048 65.025048 0 0 1 65.025048-65.025048h304.216073v-304.223298a65.025048 65.025048 0 0 1 65.025047-65.025048 65.025048 65.025048 0 0 1 65.025048 65.025048V326.496183h304.223298a65.025048 65.025048 0 0 1 0 130.050095z"  horiz-adv-x="1024" />

    
    <glyph glyph-name="shanchu" unicode="&#58924;" d="M440.746667 810.666667h142.933333a32 32 0 1 1 0 64h-142.933333a32 32 0 1 1 0-64zM951.893333 761.173333H72.106667a32 32 0 0 1 0-64h879.786666a32 32 0 0 1 0 64zM866.56 637.44a32 32 0 0 1-32-32v-655.786667H189.44V605.44a32 32 0 1 1-64 0v-687.786667a32 32 0 0 1 32-32h709.12a32 32 0 0 1 32 32V605.44a32 32 0 0 1-32 32zM654.933333 42.666667V530.773333a32 32 0 1 1-64 0V42.666667a32 32 0 0 1 64 0zM430.08 42.666667V530.773333a32 32 0 0 1-64 0V42.666667a32 32 0 0 1 64 0z"  horiz-adv-x="1024" />

    
    <glyph glyph-name="xiugai" unicode="&#58896;" d="M922.048-14.72a34.496 34.496 0 0 0-29.376-15.808H130.24a34.496 34.496 0 0 0-29.376 15.808 29.824 29.824 0 0 0 0 31.68 34.432 34.432 0 0 0 29.376 16.064h762.368a34.432 34.432 0 0 0 29.376-15.808 29.696 29.696 0 0 0 0.064-31.936z m-388.672 247.104a234.624 234.624 0 0 0-128-59.328l-82.688-6.912c-40.064-3.264-62.08-5.12-66.24-5.12a32.384 32.384 0 0 0-22.72 9.344c-10.816 10.752-10.816 10.752-4.352 88.768l6.912 82.56a234.688 234.688 0 0 0 59.392 128l304.128 303.808a97.984 97.984 0 0 0 134.848 0l102.848-102.784a95.168 95.168 0 0 0 0-134.4z m259.136 393.6l-102.912 102.784a32 32 0 0 1-44.8 0l-304-303.744a169.28 169.28 0 0 1-40.96-88.384l-6.976-82.496-2.176-26.752 26.752 2.176 82.688 6.912a169.728 169.728 0 0 1 88.384 40.96l304.064 303.744a32 32 0 0 1-0.128 44.8z"  horiz-adv-x="1024" />

    
    <glyph glyph-name="39" unicode="&#58927;" d="M1035.343058 506.624239c-14.780294 9.82764-34.592715 5.82867-44.3752-8.875762l-14.449756-21.672827C933.432544 696.819149 738.776272 863.995597 505.598758 863.995597c-269.153793 0-479.995597-210.841804-479.995597-479.995597s210.841804-479.995597 479.995597-479.995597c156.967696 0 318.277544 93.717503 410.963696 238.762345 9.500714 14.906729 5.156757 34.686639-9.749973 44.201803-14.843512 9.515164-34.686639 5.171206-44.187353-9.733717-66.530288-104.155645-202.748135-209.232463-357.028176-209.232463-233.278662 0-415.995823 182.731611-415.995823 415.995823S272.320096 799.995823 505.598758 799.995823c207.780262 0 379.976195-153.295652 410.647607-352.639063l-40.90184 27.266689c-14.780294 9.82764-34.592715 5.84312-44.3752-8.875762-9.81319-14.702626-5.84312-34.578265 8.875762-44.3752l95.998758-63.999774c1.096375-0.729713 2.311961-1.047607 3.457104-1.625598 1.076507-0.549091 4.078444-1.090957 5.22178-1.515418 3.60702-1.342021 13.026455-2.234293 13.026455-2.234293l0 0.561734 0-0.171591c0 0-3.924915 0-3.908659 0 3.812929 0 7.522904 0.718875 11.088381 2.048253 0.718875 0.269127 1.419688 0.384725 2.113277 0.700813 3.220489 1.46665 6.200751 3.379437 8.830607 5.908144 0.509354 0.487679 0.886854 1.029545 1.363696 1.549736 1.08915 1.193911 2.259581 2.277643 3.184365 3.663013l63.999774 95.99334C1054.030205 476.958891 1050.061941 496.827305 1035.343058 506.624239z"  horiz-adv-x="1076" />

    
    <glyph glyph-name="daochu" unicode="&#58936;" d="M469.333333 213.333333V853.333333c0 23.466667 19.2 42.666667 42.666667 42.666667s42.666667-19.2 42.666667-42.666667v-640c0-23.466667-19.2-42.666667-42.666667-42.666666s-42.666667 19.2-42.666667 42.666666M226.210133 627.9424L481.826133 883.566933a42.7776 42.7776 0 0 0 60.330667 0c16.597333-16.597333 16.597333-43.776 0-60.330666L286.5408 567.611733a42.7776 42.7776 0 0 0-60.330667 0 42.7776 42.7776 0 0 0 0 60.330667M542.0544 883.5584l255.616-255.616a42.7776 42.7776 0 0 0 0-60.330667c-16.597333-16.605867-43.776-16.605867-60.330667 0L481.723733 823.210667a42.7776 42.7776 0 0 0 0 60.330666 42.7776 42.7776 0 0 0 60.330667 0M896-128H128c-70.570667 0-128 57.429333-128 128V256c0 23.594667 19.072 42.666667 42.666667 42.666667s42.666667-19.072 42.666666-42.666667v-256c0-23.552 19.114667-42.666667 42.666667-42.666667h768c23.552 0 42.666667 19.114667 42.666667 42.666667V256c0 23.594667 19.072 42.666667 42.666666 42.666667s42.666667-19.072 42.666667-42.666667v-256c0-70.570667-57.429333-128-128-128"  horiz-adv-x="1024" />

    
    <glyph glyph-name="cheliangguanli" unicode="&#58914;" d="M933.82 529.88h-83.36a22.22 22.22 0 0 1-10.9-3L802 641.18c-12 65-57.36 96.32-113 96.32H335.9c-63.93 0-102.74-42.08-113-96.28l-37.73-114.65a22.7 22.7 0 0 1-11.55 3.31h-83.4A23.32 23.32 0 0 1 67 506.45v-20.36a23.34 23.34 0 0 1 23.22-23.42l31.59-5.45c-10-19.67-15.68-42.17-15.68-68.33L94.47 254a98.91 98.91 0 0 1 0.77-11.92 41.24 41.24 0 0 1-0.77-7.6V72.3a41.62 41.62 0 0 1 41.44-41.8h63.24a41.59 41.59 0 0 1 41.39 41.8v52.13h543.68v-52.13a41.62 41.62 0 0 1 41.44-41.8h63.25a41.61 41.61 0 0 1 41.43 41.8V234.52a41.56 41.56 0 0 1-0.77 7.6 107.84 107.84 0 0 1 0.77 11.92l-11.71 134.85c0 26.25-5.69 48.74-15.71 68.49l30.9 5.29A23.31 23.31 0 0 1 957 486.1v20.35a23.26 23.26 0 0 1-23.18 23.43z m-683.1 24l27.59 74.15 0.4 1.73c2.75 15 8.89 17.65 17.93 29.25H728.7c9.17-11.91 14.86-14.94 17.36-29.08l28-76 10.26-41.31c-2.3-30.25-38.29-54.11-68.25-54.11H308.72c-30 0-66 23.86-68.3 54.11z m19.35-352.62c-34.65 0-62.72 28.36-62.72 63.33s28.07 63.33 62.72 63.33 62.71-28.31 62.71-63.33-28.07-63.33-62.71-63.33zM620.46 248a18.74 18.74 0 0 0-18.7-18.82h-176A18.73 18.73 0 0 0 407.14 248v53a18.71 18.71 0 0 0 18.66 18.77h176A18.73 18.73 0 0 0 620.46 301z m134.28-46.73c-34.65 0-62.75 28.36-62.75 63.33s28.1 63.33 62.75 63.33 62.72-28.31 62.72-63.33-28.07-63.33-62.72-63.33z m0 0"  horiz-adv-x="1024" />

    
    <glyph glyph-name="renlianshibie" unicode="&#59062;" d="M807.936 789.344h-76a24.32 24.32 0 0 1-17.92-7.936 27.744 27.744 0 0 1-7.424-19.104c0-6.944 2.464-13.792 7.424-19.104a24.32 24.32 0 0 1 17.92-7.904h76v-81.088c0-6.944 2.432-13.76 7.424-19.104a24.32 24.32 0 0 1 35.808 0 27.744 27.744 0 0 1 7.424 19.104V735.296c0 29.824-22.72 54.048-50.656 54.048zM833.248 384a25.12 25.12 0 0 1-17.92-7.392 25.12 25.12 0 0 1-7.392-17.92v-76h-76a25.12 25.12 0 0 1-17.92-7.424c-1.344-1.344-2.08-3.072-3.072-4.704-28.576 27.52-60.704 50.112-96.256 65.152 72.192 43.136 117.888 126.08 103.872 219.296-13.216 87.456-81.056 160.576-167.648 178.656a228.16 228.16 0 0 1-46.944 4.896 217.056 217.056 0 0 1-217.12-217.12c0-79.264 42.976-147.936 106.368-185.824-35.456-15.04-67.648-37.632-96.256-65.152-0.96 1.632-1.696 3.36-3.072 4.704a25.12 25.12 0 0 1-17.92 7.424H200v76a25.12 25.12 0 0 1-7.424 17.92 25.12 25.12 0 0 1-17.92 7.424 25.12 25.12 0 0 1-17.92-7.424 25.12 25.12 0 0 1-7.392-17.92v-76c0-27.936 22.72-50.656 50.656-50.656H262.4c-42.336-54.816-71.712-123.488-80.96-200.192-3.424-28.224 19.104-53.12 47.488-53.12h550.048c28.416 0 50.848 24.96 47.488 53.12-9.216 76.8-38.624 145.472-80.96 200.288h62.4c27.968 0 50.688 22.72 50.688 50.656V358.72a25.12 25.12 0 0 1-7.424 17.92 25.12 25.12 0 0 1-17.92 7.392zM174.72 627.2a24.32 24.32 0 0 1 17.888 7.904 27.744 27.744 0 0 1 7.424 19.104V735.296h76a24.32 24.32 0 0 1 17.92 7.904 27.744 27.744 0 0 1 7.392 19.104 27.744 27.744 0 0 1-7.424 19.104 24.32 24.32 0 0 1-17.92 7.936H200c-27.968 0-50.656-24.224-50.656-54.08v-81.056c0-6.944 2.432-13.76 7.392-19.104a24.32 24.32 0 0 1 17.92-7.904z"  horiz-adv-x="1024" />

    
    <glyph glyph-name="rentijiance" unicode="&#60506;" d="M615.168 312.736c-12.608 20.096-17.504 64.096 30.752 159.84a32.064 32.064 0 0 1-8.064 38.944c-0.448 0.352-0.992 0.48-1.44 0.832 1.216-0.032 2.368-0.352 3.584-0.352 88.224 0 160 71.776 160 160s-71.776 160-160 160-160-71.776-160-160c0-76.16 53.632-139.84 125.024-155.872-2.368-0.992-4.8-1.952-6.944-3.552l-218.976-164.352a32 32 0 1 1 38.4-51.168l130.848 98.208c-10.656-47.68-6.432-86.208 12.608-116.512 9.28-14.848 19.168-28.16 28.608-40.832 29.728-39.904 43.584-60.768 33.888-99.296-7.264-28.768-34.368-80.832-122.336-165.312a32 32 0 0 1 44.352-46.208c80.544 77.344 126.336 141.408 140.064 195.872 17.568 69.664-14.016 112.096-44.608 153.12-8.48 11.424-17.408 23.328-25.76 36.64zM544 672c0 52.928 43.072 96 96 96s96-43.072 96-96-43.072-96-96-96-96 43.072-96 96zM288 379.13599999999997a244.8 244.8 0 0 0 72.16 174.24 31.968 31.968 0 1 1-45.248 45.248C256.288 540 224 462.048 224 379.13599999999997s32.288-160.896 90.912-219.488a31.904 31.904 0 0 1 45.248 0 31.968 31.968 0 0 1 0 45.248A244.8 244.8 0 0 0 288 379.13599999999997zM128 375.904c0 115.392 44.928 223.872 126.528 305.472A31.968 31.968 0 1 1 209.28 726.624 492.736 492.736 0 0 1 64 375.904c0-132.48 51.584-257.024 145.28-350.72a31.904 31.904 0 0 1 45.248 0 31.968 31.968 0 0 1 0 45.248A429.216 429.216 0 0 0 128 375.904zM875.008 158.72000000000003c-31.744 73.024-83.104 126.272-152.608 158.336a31.968 31.968 0 1 1-26.816-58.112c55.552-25.632 95.072-66.752 120.704-125.728a1089.92 1089.92 0 0 0 64.8-201.696 32 32 0 0 1 62.528 13.664 1155.296 1155.296 0 0 1-68.608 213.536zM923.744 386.976c-41.856-8.064-79.616-5.024-115.584 9.44-34.624 13.984-59.456 35.776-75.904 66.656a32 32 0 0 1-56.512-30.112c23.488-44.032 60-76.32 108.48-95.872a254.528 254.528 0 0 1 95.968-18.432c18.208 0 36.832 1.856 55.744 5.536a32 32 0 0 1-12.192 62.784z"  horiz-adv-x="1024" />

    
    <glyph glyph-name="jiantou_down" unicode="&#58906;" d="M511.711 224.411l-270.188 270.23c-0.287 0.264-0.573 0.531-0.851 0.809-10.935 10.935-10.935 28.663 0 39.598 10.935 10.935 28.663 10.935 39.598 0 0.278-0.278 0.545-0.564 0.809-0.851l0.021 0.021 230.691-230.69 231.94 231.94c10.935 10.935 28.663 10.935 39.598 0s10.935-28.663 0-39.598l-271.617-271.459z"  horiz-adv-x="1024" />

    
    <glyph glyph-name="jiantou" unicode="&#58902;" d="M671.589 384.289l-270.231 270.189c-2.575 2.818-5.689 5.096-9.184 6.68-2.56 5.106-20.288 5.106-31.223-5.829-10.935-10.935-10.935-28.663 0-39.598 0.278-0.278 0.564-0.545 0.851-0.809l-0.021-0.021 230.691-230.691-231.94-231.94c-10.935-10.935-10.935-28.663 0-39.598s28.663-10.935 39.598 0l271.459 271.617z"  horiz-adv-x="1024" />

    
    <glyph glyph-name="biaoshilei_renlianzhuapai" unicode="&#58897;" d="M647.808 308.096a279.552 279.552 0 0 1 142.4 245.184C790.208 707.008 670.784 832 523.968 832S257.792 707.008 257.792 553.28c0-102.208 53.44-190.784 132.032-239.296C237.888 253.824 128 89.536 128-64h61.248c0 192.384 144.768 337.984 322.688 337.984 177.984 0 322.816-145.6 322.816-337.984H896c0 148.864-103.36 307.712-248.192 372.096zM319.04 553.28c0 118.336 91.968 214.592 204.928 214.592s204.992-96.256 204.992-214.592c0-118.272-91.968-214.528-204.992-214.528-112.96 0-204.928 96.256-204.928 214.528zM128 768H64V896h128v-64H128v-64z m832 128v-128h-64V832h-64V896h128zM192 256H64V384h64v-64h64v-64z m704 128h64v-128h-128V320h64V384z"  horiz-adv-x="1024" />

    
    <glyph glyph-name="xiangqing" unicode="&#58953;" d="M165.16129 896H33.032258C13.212903 896 0 882.787097 0 862.967742s13.212903-33.032258 33.032258-33.032258h132.129032c19.819355 0 33.032258 13.212903 33.032258 33.032258s-13.212903 33.032258-33.032258 33.032258zM165.16129 433.548387H33.032258c-16.516129 0-33.032258-13.212903-33.032258-33.032258 0-16.516129 13.212903-33.032258 33.032258-33.032258h132.129032c16.516129 0 33.032258 13.212903 33.032258 33.032258 0 16.516129-13.212903 33.032258-33.032258 33.032258zM1222.193548 896H363.354839c-19.819355 0-33.032258-13.212903-33.032258-33.032258s13.212903-33.032258 33.032258-33.032258h858.838709c19.819355 0 33.032258 13.212903 33.032258 33.032258s-13.212903 33.032258-33.032258 33.032258zM165.16129-61.935483999999974H33.032258c-16.516129 0-33.032258-13.212903-33.032258-33.032258 0-16.516129 13.212903-33.032258 33.032258-33.032258h132.129032c16.516129 0 33.032258 13.212903 33.032258 33.032258 0 16.516129-13.212903 33.032258-33.032258 33.032258zM1222.193548 433.548387H363.354839c-16.516129 0-33.032258-13.212903-33.032258-33.032258 0-16.516129 13.212903-33.032258 33.032258-33.032258h858.838709c16.516129 0 33.032258 13.212903 33.032258 33.032258 0 16.516129-13.212903 33.032258-33.032258 33.032258zM1222.193548-61.935483999999974H363.354839c-16.516129 0-33.032258-13.212903-33.032258-33.032258 0-16.516129 13.212903-33.032258 33.032258-33.032258h858.838709c16.516129 0 33.032258 13.212903 33.032258 33.032258 0 16.516129-13.212903 33.032258-33.032258 33.032258z"  horiz-adv-x="1255" />

    
    <glyph glyph-name="xiazai" unicode="&#58954;" d="M959.5 366.5c-2 84-59.4 161.2-144.4 192-46 126.4-165.9 211.5-300 213-132.5 1.4-253.2-79.2-303-202.5-87.4-32.2-146-112.6-147-199.5-1.2-104.1 80.7-199.5 193.9-216h12.8v0.1h0.5c23.5 0 42.5 19 42.5 42.5s-19 42.5-42.5 42.5H264v0.4c-65.5 5.3-117 60.2-117 127 0 70.2 56.7 127.1 126.8 127.5 23.4 110.2 121.3 192.9 238.5 192.9s215.1-82.7 238.5-192.9c70.1-0.4 126.8-57.3 126.8-127.5 0-67.9-53-123.3-119.9-127.2v-0.2h-6.6c-23.5 0-42.5-19-42.5-42.5s19-42.5 42.5-42.5h0.8v-0.1h19.3c111.2 17 190.7 111.4 188.3 213zM663.9 214.2c-17.6 15.6-44.7 13.9-60.3-3.7l-49.2-55.7V366.5c0 23.2-18.9 42.1-42.1 42.1-23.2 0-42.1-18.9-42.1-42.1v-211.6L421 210.5c-15.6 17.6-42.7 19.3-60.3 3.7-17.6-15.6-19.3-42.7-3.7-60.3l123.3-139.4c4.1-4.7 9-8.2 14.4-10.6 0.1 0 0.2-0.1 0.3-0.1l1.5-0.6c0.2-0.1 0.4-0.2 0.6-0.2 0.4-0.2 0.8-0.3 1.2-0.4 0.3-0.1 0.6-0.2 0.8-0.3 0.3-0.1 0.7-0.2 1-0.3 0.3-0.1 0.7-0.2 1-0.3 0.3-0.1 0.6-0.2 0.9-0.2 0.4-0.1 0.8-0.2 1.1-0.3 0.3-0.1 0.6-0.1 0.8-0.2 0.4-0.1 0.8-0.2 1.2-0.2 0.3 0 0.5-0.1 0.8-0.1 0.4-0.1 0.8-0.1 1.2-0.2 0.3 0 0.6-0.1 0.8-0.1 0.4 0 0.8-0.1 1.2-0.1 0.3 0 0.6 0 0.9-0.1h4.2c0.3 0 0.6 0 0.9 0.1 0.4 0 0.8 0.1 1.2 0.1 0.3 0 0.6 0.1 0.8 0.1 0.4 0 0.8 0.1 1.2 0.2 0.3 0 0.5 0.1 0.8 0.1 0.4 0.1 0.8 0.1 1.2 0.2 0.3 0.1 0.6 0.1 0.8 0.2 0.4 0.1 0.8 0.2 1.1 0.3 0.3 0.1 0.6 0.1 0.9 0.2 0.3 0.1 0.7 0.2 1 0.3 0.3 0.1 0.7 0.2 1 0.3 0.3 0.1 0.6 0.2 0.8 0.3 0.4 0.1 0.8 0.3 1.2 0.4 0.2 0.1 0.4 0.2 0.6 0.2l1.5 0.6c0.1 0 0.2 0.1 0.3 0.1 5.3 2.4 10.3 5.9 14.4 10.6l123.3 139.4c16 17.6 14.3 44.8-3.3 60.3z"  horiz-adv-x="1024" />

    


  </font>
</defs>
</svg>
