<svg width="26.000000" height="24.000000" viewBox="0 0 26 24" fill="none" xmlns="http://www.w3.org/2000/svg" xmlns:xlink="http://www.w3.org/1999/xlink">
	<desc>
			Created with Pixso.
	</desc>
	<path d="M14.8038 0L15.0057 0C15.3899 0.00872803 15.7664 0.0661621 16.1354 0.172424C16.5043 0.278625 16.8533 0.429993 17.1823 0.626587C17.5112 0.823181 17.8092 1.05835 18.0762 1.33209C18.3431 1.60577 18.5701 1.90894 18.7571 2.24146C18.9441 2.57397 19.0848 2.92468 19.1793 3.29364C19.2738 3.6626 19.3188 4.03741 19.3143 4.41803C19.3099 4.79865 19.2563 5.1723 19.1533 5.539C19.0504 5.90576 18.9016 6.25317 18.7069 6.58136C18.5123 6.90955 18.2783 7.20746 18.0051 7.4751C17.7319 7.74268 17.4286 7.97101 17.0951 8.1601C16.7617 8.34912 16.4093 8.49261 16.0381 8.59039C15.6667 8.68823 15.2889 8.73712 14.9048 8.73712C14.5206 8.73712 14.1428 8.68823 13.7716 8.59039C13.4003 8.49261 13.0479 8.34912 12.7145 8.1601C12.381 7.97101 12.0776 7.74268 11.8044 7.4751C11.5312 7.20746 11.2972 6.90955 11.1027 6.58136C10.9081 6.25317 10.7593 5.90576 10.6562 5.539C10.5533 5.1723 10.4996 4.79865 10.4952 4.41803C10.4908 4.03741 10.5359 3.6626 10.6302 3.29364C10.7247 2.92468 10.8655 2.57397 11.0525 2.24146C11.2395 1.90894 11.4664 1.60577 11.7334 1.33209C12.0004 1.05835 12.2983 0.823181 12.6273 0.626587C12.9564 0.429993 13.3053 0.278625 13.6743 0.172424C14.0432 0.0661621 14.4197 0.00872803 14.8038 0ZM14.5155 1.1756C14.0055 1.23474 13.5365 1.40503 13.1086 1.6864C12.6808 1.96777 12.3403 2.32983 12.0873 2.77258C11.8342 3.21533 11.6959 3.6908 11.6724 4.1991C11.6489 4.70734 11.7428 5.19336 11.9539 5.65717C12.165 6.12097 12.4707 6.51233 12.8708 6.8313C13.2709 7.15027 13.7222 7.3623 14.2246 7.46741C14.7272 7.57251 15.2264 7.55927 15.7225 7.42773C16.2186 7.29626 16.6578 7.06067 17.0402 6.72095C17.4225 6.38129 17.7067 5.9743 17.8925 5.5C18.0784 5.0257 18.1459 4.5354 18.095 4.02911C18.0442 3.52283 17.8805 3.0553 17.6039 2.62659C17.3273 2.19788 16.9679 1.85431 16.5254 1.59595C15.9032 1.23187 15.2332 1.09174 14.5155 1.1756ZM4.83984 1.85577C5.35486 1.82623 5.84753 1.91626 6.31799 2.12592C6.78845 2.33551 7.18347 2.64099 7.50293 3.0423C7.82227 3.4436 8.03003 3.89532 8.1261 4.39752C8.22217 4.89966 8.19568 5.39539 8.04663 5.88464C7.89758 6.37396 7.64282 6.80145 7.28247 7.16705C6.922 7.53271 6.4967 7.79517 6.00659 7.95441C5.51636 8.11365 5.01685 8.15161 4.50781 8.06836C3.9989 7.98511 3.53809 7.79004 3.12561 7.48315C2.71313 7.17627 2.39551 6.79236 2.17285 6.3313C1.9502 5.8703 1.84766 5.3844 1.86523 4.8736C1.88281 4.36279 2.01855 3.88495 2.27246 3.44C2.52637 2.99512 2.86963 2.63354 3.30225 2.35522C3.77014 2.05377 4.28271 1.88733 4.83984 1.85577ZM4.7323 3.0249C3.83801 3.15436 3.28723 3.65485 3.07996 4.52649C2.87268 5.39813 3.14014 6.0896 3.88208 6.60089C4.25586 6.85986 4.67041 6.97791 5.12585 6.95496C5.58142 6.93207 5.98181 6.77301 6.32703 6.47784C6.67236 6.18268 6.88977 5.81354 6.97949 5.37054C7.06909 4.92749 7.01196 4.50385 6.80823 4.09967C6.37927 3.24292 5.68738 2.88629 4.7323 3.0249Z" fill-rule="evenodd" fill="#FFFFFF"/>
	<path d="M14.6011 2.21399C14.9159 2.17145 15.2251 2.19641 15.5288 2.28876C15.8325 2.3811 16.1027 2.53241 16.3391 2.74261C16.5757 2.95282 16.7566 3.20251 16.8822 3.4917C17.0077 3.78082 17.066 4.08276 17.0575 4.3974C17.0488 4.7121 16.9739 5.01038 16.8326 5.29236C16.6914 5.57428 16.4969 5.81384 16.2493 6.01099C16.0016 6.20807 15.7235 6.3446 15.4152 6.42041C15.1068 6.49628 14.7966 6.50446 14.4846 6.44495C14.1727 6.3855 13.8877 6.26385 13.6298 6.08008C13.3718 5.8963 13.1648 5.66736 13.0085 5.39325C12.8524 5.11914 12.7616 4.8252 12.736 4.51147C12.7104 4.19769 12.7526 3.89313 12.8624 3.59778C13.1627 2.79211 13.7423 2.33081 14.6011 2.21399ZM14.7151 3.36456C14.4204 3.41772 14.1953 3.57111 14.0398 3.82465C13.8842 4.07819 13.8503 4.3468 13.9384 4.63043C14.0262 4.91406 14.2065 5.11749 14.4789 5.24072C14.7513 5.36395 15.0245 5.3656 15.2985 5.24567C15.5724 5.12573 15.7551 4.9245 15.8466 4.64191C15.938 4.35938 15.9075 4.09039 15.755 3.83496C15.5184 3.43964 15.1718 3.28394 14.7151 3.36456ZM0.441406 9.8114C0.788086 9.42487 1.22253 9.23126 1.74438 9.23047L19.5387 9.23047C20.0227 9.22821 20.4363 9.39624 20.7794 9.73444C21.1226 10.0727 21.2943 10.4816 21.2944 10.9612C21.2944 11.7653 21.2944 12.5695 21.2944 13.3737C22.3711 12.7524 23.4542 12.1416 24.5292 11.5179C24.5529 11.3444 24.5292 11.1653 24.5382 10.9902C24.5181 10.7796 24.536 10.5723 24.5919 10.3681C24.6868 10.1355 24.8577 9.99133 25.1045 9.93555C25.3513 9.8797 25.5684 9.93622 25.7557 10.1051C25.8969 10.2369 25.9783 10.3983 26 10.5892L26 22.3516C25.9884 22.5238 25.926 22.6755 25.8127 22.8066C25.6095 23.0344 25.3605 23.1062 25.0657 23.0221C24.7709 22.938 24.5985 22.7459 24.5488 22.446C24.5203 22.2039 24.5569 21.9554 24.53 21.7134C23.4551 21.0897 22.3711 20.4797 21.2944 19.8576C21.2944 20.6714 21.2944 21.4853 21.2944 22.2991C21.286 22.8407 21.0688 23.2812 20.6429 23.6208C20.3489 23.8527 20.0142 23.9792 19.6388 24L1.65405 24C1.20898 23.9746 0.828613 23.8059 0.513062 23.4939C0.19751 23.1819 0.0264893 22.8054 0 22.3645L0 10.8668C0.024292 10.4639 0.171387 10.1136 0.441406 9.8114ZM1.61243 10.3996C1.31335 10.4713 1.16406 10.6595 1.16455 10.9644C1.16455 14.7335 1.16455 18.5026 1.16455 22.2717C1.16602 22.5974 1.32898 22.787 1.6532 22.8405C1.7998 22.8567 1.94714 22.8405 2.0946 22.8486L19.5371 22.8486C19.8112 22.8524 19.9968 22.7273 20.0941 22.4734C20.1315 22.3319 20.1437 22.1883 20.1307 22.0425L20.1307 19.9036C20.1169 16.923 20.1307 13.9425 20.1307 10.9628C20.1285 10.5739 19.9313 10.3815 19.5387 10.3859L1.77612 10.3859C1.72131 10.3853 1.66614 10.3882 1.61243 10.3996ZM21.3043 14.7001C21.3043 15.9761 21.3043 17.2525 21.3043 18.5295C22.3801 19.1508 23.4615 19.7632 24.5389 20.3853C24.5389 17.8738 24.5389 15.3621 24.5389 12.85C23.4624 13.4673 22.3809 14.0797 21.3043 14.7001Z" fill-rule="evenodd" fill="#FFFFFF"/>
	<path d="M13.4601 14.9559C13.9644 14.8148 14.2861 14.9945 14.4253 15.495C14.5646 15.9954 14.3812 16.313 13.8751 16.4478C13.3691 16.5825 13.0498 16.3988 12.917 15.8967C12.7905 15.4088 12.9716 15.0952 13.4601 14.9559ZM16.5466 14.9559C17.0505 14.8151 17.3721 14.9948 17.5114 15.4947C17.6506 15.9947 17.4675 16.3123 16.9622 16.4476C16.4568 16.5829 16.1372 16.3998 16.0034 15.8983C15.8757 15.4094 16.0568 15.0953 16.5466 14.9559ZM4.49866 17.4184C4.7063 17.3864 4.91504 17.3753 5.12488 17.3853L16.479 17.3853C17.2224 17.3854 17.7517 17.7189 18.0671 18.3858C18.2247 18.7551 18.2738 19.1381 18.2145 19.5348C18.1141 20.2604 17.7115 20.7338 17.0067 20.9548C16.7001 21.0316 16.3889 21.0585 16.0735 21.0355L4.86267 21.0355C4.41907 21.0413 4.02954 20.9002 3.69421 20.6123C3.35901 20.3245 3.1626 19.9626 3.10522 19.5267C3.04089 19.1047 3.10168 18.7013 3.28772 18.3164C3.54651 17.8247 3.94971 17.5265 4.49866 17.4184ZM4.66882 18.5641C4.53662 18.6039 4.43188 18.6806 4.35449 18.7941C4.25354 18.9777 4.22205 19.1725 4.26001 19.3782C4.30835 19.7253 4.50928 19.8929 4.86267 19.8809L16.4473 19.8809C16.6921 19.892 16.874 19.7914 16.9929 19.5791C17.0647 19.4139 17.0875 19.2423 17.0614 19.0643C17.0286 18.7126 16.8339 18.5372 16.4774 18.5383C12.6449 18.5383 8.81213 18.5383 4.97913 18.5383C4.87439 18.5313 4.771 18.5399 4.66882 18.5641Z" fill-rule="evenodd" fill="#FFFFFF"/>
	<defs/>
</svg>
