<?xml version="1.0" standalone="no"?><!DOCTYPE svg PUBLIC "-//W3C//DTD SVG 1.1//EN" "http://www.w3.org/Graphics/SVG/1.1/DTD/svg11.dtd"><svg t="1684468747705" class="icon" viewBox="0 0 1024 1024" version="1.1" xmlns="http://www.w3.org/2000/svg" p-id="1125" xmlns:xlink="http://www.w3.org/1999/xlink" width="300" height="300"><path d="M512 0c282.76736 0 512 229.23264 512 512S794.76736 1024 512 1024 0 794.76736 0 512 229.23264 0 512 0z m0 222.35136c-119.02976 0-215.53152 96.50176-215.53152 215.53152v314.9824H196.608a32.768 32.768 0 0 0-32.768 32.768v0.79872A32.768 32.768 0 0 0 196.608 819.2h630.784a32.768 32.768 0 0 0 32.768-32.768v-0.77824a32.768 32.768 0 0 0-32.768-32.768l-99.88096-0.02048v-314.9824c0-119.02976-96.4608-215.53152-215.51104-215.53152z m0 66.31424a165.7856 165.7856 0 1 1 0 331.5712 165.7856 165.7856 0 0 1 0-331.5712z m0 17.44896a148.33664 148.33664 0 1 0 0 296.69376 148.33664 148.33664 0 0 0 0-296.69376z m34.01728 19.08736l-18.35008 114.36032 46.42816 1.8432-96.11264 142.336 18.37056-114.3808-46.44864-1.86368 96.11264-142.29504z m252.55936-6.144l-63.0784 20.48 10.24 31.5392 63.0784-20.48-10.24-31.5392z m-573.15328 0l-10.24 31.5392 63.0784 20.48 10.24-31.5392-63.0784-20.48z m453.4272-147.3536l-38.95296 53.6576 26.8288 19.49696 38.97344-53.6576-26.8288-19.49696z m-333.7216 0l-26.8288 19.49696 38.99392 53.6576 26.8288-19.49696-38.99392-53.6576zM528.5888 122.88h-33.1776v66.31424h33.1776V122.88z" fill="#ffffff" p-id="1126"></path></svg>