<svg width="24.000916" height="25.029175" viewBox="0 0 24.0009 25.0292" fill="none" xmlns="http://www.w3.org/2000/svg" xmlns:xlink="http://www.w3.org/1999/xlink">
	<desc>
			Created with Pixso.
	</desc>
	<path d="M23.0577 8.70343C22.123 6.53424 20.6555 4.7973 18.6551 3.49255C16.6547 2.18781 14.4532 1.53149 12.0502 1.52362L12.0502 0.21344C11.7079 -0.071167 11.3658 -0.071167 11.0235 0.21344L8.95953 2.01343C8.8172 2.13129 8.74603 2.28149 8.74603 2.46405C8.74603 2.64667 8.8172 2.79688 8.95953 2.91473L11.0235 4.71649C11.3658 5.0011 11.7079 5.0011 12.0502 4.71649L12.0502 3.2146C12.8163 3.21844 13.5726 3.30524 14.3189 3.47491C15.0652 3.64459 15.7831 3.89294 16.4728 4.22003C17.1624 4.54712 17.8067 4.94482 18.4055 5.41315C19.0042 5.88147 19.5429 6.40881 20.0212 6.99524C20.4996 7.58167 20.9059 8.21265 21.2403 8.88812C21.5745 9.5636 21.8286 10.267 22.0023 10.9982C22.176 11.7294 22.2651 12.4703 22.2696 13.221C22.2741 13.9717 22.1939 14.7137 22.029 15.4468C21.8641 16.18 21.6186 16.8862 21.2924 17.5655C20.9662 18.2448 20.5674 18.8804 20.0961 19.4723C19.6248 20.0642 19.0926 20.5977 18.4995 21.0729C17.9063 21.5482 17.2669 21.9532 16.5814 22.2883C15.8957 22.6233 15.1807 22.8799 14.4365 23.0582C13.6922 23.2365 12.9371 23.3319 12.1711 23.3446C11.405 23.3573 10.647 23.2869 9.89703 23.1334C9.14703 22.9799 8.42365 22.7471 7.72687 22.4351C7.02997 22.123 6.37701 21.7393 5.76776 21.284C5.15863 20.8287 4.60822 20.3132 4.11676 19.7372C3.62531 19.1613 3.2049 18.5393 2.85541 17.8712C2.50604 17.2031 2.23627 16.5054 2.04608 15.7781C1.8559 15.0509 1.75018 14.312 1.72882 13.5616C1.70734 12.8112 1.77081 12.0676 1.91925 11.3311C2.06757 10.5946 2.29718 9.88324 2.60797 9.19702C2.91876 8.5108 3.30304 7.86676 3.76093 7.26483C4.10614 6.81201 4.04779 6.41638 3.58575 6.07794C3.12372 5.7395 2.72003 5.79663 2.37445 6.24921C1.74677 7.07538 1.23871 7.96704 0.850281 8.92401C0.461731 9.88104 0.205933 10.871 0.0828857 11.8939C-0.0401001 12.9168 -0.0262451 13.9379 0.124573 14.9572C0.275391 15.9765 0.557922 16.9594 0.972351 17.9059C1.38678 18.8525 1.91888 19.7305 2.56879 20.54C3.21857 21.3496 3.96417 22.0631 4.80536 22.6807C5.64655 23.2982 6.55487 23.7988 7.53033 24.1825C8.5058 24.5662 9.51532 24.8199 10.5589 24.9436C11.6024 25.0673 12.6445 25.0569 13.6851 24.9123C14.7259 24.7677 15.7298 24.4938 16.6971 24.0907C17.6644 23.6876 18.5621 23.1689 19.3902 22.5346C20.2184 21.9004 20.9489 21.1721 21.5817 20.3497C22.2145 19.5273 22.7283 18.6388 23.1229 17.6841C23.5174 16.7295 23.7795 15.7411 23.909 14.7191C24.0385 13.6969 24.0311 12.6758 23.8868 11.6556C23.7424 10.6353 23.466 9.65247 23.0577 8.70343ZM9.2099 16.6315L14.7863 16.6315C15.097 16.632 15.3621 16.5248 15.582 16.3097C15.8018 16.0947 15.9117 15.835 15.9117 15.5306L15.9117 10.0638C15.9117 9.7594 15.8018 9.49969 15.582 9.28467C15.3621 9.06964 15.097 8.96234 14.7863 8.96283L9.2099 8.96283C8.89911 8.9621 8.63373 9.06927 8.41376 9.28436C8.19366 9.49945 8.08368 9.75922 8.08368 10.0638L8.08368 15.5297C8.08368 15.8337 8.19342 16.0933 8.41278 16.3082C8.63214 16.5232 8.8996 16.6315 9.2099 16.6315ZM9.81561 11.1849C9.81561 10.8332 9.99518 10.6573 10.3541 10.6573L13.643 10.6573C14.002 10.6573 14.1815 10.8332 14.1815 11.1849L14.1815 14.4077C14.1815 14.7595 14.002 14.9353 13.643 14.9353L10.3541 14.9353C9.99518 14.9353 9.81561 14.7595 9.81561 14.4077L9.81561 11.1849Z" fill-rule="evenodd" fill="#FFFFFF"/>
	<defs/>
</svg>
