<svg width="32.085571" height="32.078102" viewBox="0 0 32.0856 32.0781" fill="none" xmlns="http://www.w3.org/2000/svg" xmlns:xlink="http://www.w3.org/1999/xlink">
	<desc>
			Created with Pixso.
	</desc>
	<g filter="url(#filter_10_149_dd)">
		<path d="M18.8707 21.5643L15.0663 25.3699L11.2561 21.5619C10.9307 21.2487 10.6052 21.2487 10.2798 21.5619C10.1468 21.6966 10.0811 21.8586 10.0826 22.0479C10.0869 22.2397 10.1561 22.404 10.2903 22.5409L14.5806 26.8337C14.906 27.1596 15.2314 27.1596 15.5569 26.8337L19.847 22.5421C20.174 22.2165 20.174 21.891 19.847 21.5654C19.522 21.2518 19.1965 21.2514 18.8707 21.5643ZM15.558 3.22987C15.2322 2.92338 14.9064 2.92338 14.5806 3.22987L10.2809 7.52969C10.1519 7.66506 10.0858 7.82627 10.0826 8.01331C10.0855 8.31772 10.2275 8.52814 10.5087 8.64459C10.7899 8.76103 11.039 8.7126 11.2561 8.49928L15.0605 4.69248L18.8696 8.49577C19.195 8.80899 19.5204 8.80899 19.8459 8.49577C20.174 8.16982 20.174 7.84389 19.8459 7.51794L15.558 3.22987ZM8.71442 11.1252C8.71259 10.8202 8.57092 10.6092 8.28943 10.492C8.00793 10.3749 7.75842 10.4232 7.54095 10.6369L3.24603 14.9308C2.91797 15.2568 2.91797 15.5827 3.24603 15.9086L7.54443 20.2073C7.67938 20.3374 7.84052 20.4043 8.02789 20.408C8.33655 20.4075 8.54938 20.2644 8.66638 19.9787C8.78339 19.6931 8.73212 19.4417 8.51257 19.2248L4.70703 15.4227L8.51135 11.6159C8.64777 11.4807 8.71539 11.3172 8.71442 11.1252ZM26.8409 14.9285L22.5507 10.6404C22.4158 10.5048 22.2527 10.4367 22.0614 10.4361C21.7531 10.4354 21.54 10.5775 21.4222 10.8624C21.3043 11.1473 21.3546 11.3985 21.5732 11.6159L25.3776 15.4215L21.5721 19.2248C21.3602 19.4422 21.3124 19.6912 21.4285 19.9718C21.5446 20.2523 21.7544 20.3946 22.0579 20.3986C22.2491 20.3943 22.4131 20.325 22.5496 20.1908L26.8398 15.9004C27.1667 15.5749 27.1678 15.254 26.8409 14.9285ZM15.0429 19.4713C16.2687 19.4713 17.3151 19.0377 18.1819 18.1706C19.0487 17.3035 19.4821 16.2569 19.4821 15.0306C19.4821 13.8043 19.0487 12.7577 18.1819 11.8906C17.3151 11.0235 16.2687 10.5899 15.0429 10.5899C13.817 10.5899 12.7707 11.0235 11.9039 11.8906C11.037 12.7577 10.6037 13.8043 10.6037 15.0306C10.605 16.2563 11.0388 17.3025 11.9053 18.1693C12.7717 19.036 13.8176 19.47 15.0429 19.4713Z" fill-rule="evenodd" fill="#FFFFFF"/>
	</g>
	<defs>
		<filter id="filter_10_149_dd" x="0.000000" y="0.000000" width="32.085571" height="32.078102" filterUnits="userSpaceOnUse" color-interpolation-filters="sRGB">
			<feFlood flood-opacity="0" result="BackgroundImageFix"/>
			<feColorMatrix in="SourceAlpha" type="matrix" values="0 0 0 0 0 0 0 0 0 0 0 0 0 0 0 0 0 0 127 0"/>
			<feOffset dx="1" dy="1"/>
			<feGaussianBlur stdDeviation="1.33333"/>
			<feColorMatrix type="matrix" values="0 0 0 0 0 0 0 0 0 0 0 0 0 0 0 0 0 0 0.25 0"/>
			<feBlend mode="normal" in2="BackgroundImageFix" result="effect_dropShadow_1"/>
			<feBlend mode="normal" in="SourceGraphic" in2="effect_dropShadow_1" result="shape"/>
		</filter>
	</defs>
</svg>
