<svg width="23.537964" height="23.502869" viewBox="0 0 23.538 23.5029" fill="none" xmlns="http://www.w3.org/2000/svg" xmlns:xlink="http://www.w3.org/1999/xlink">
	<desc>
			Created with Pixso.
	</desc>
	<path d="M5.03503 3.25897L18.452 3.25897L18.452 2.20898L5.03503 2.20898C4.36731 2.20898 3.7251 2.33673 3.10815 2.59222C2.49133 2.84778 1.9469 3.21161 1.47473 3.68372C1.00256 4.15582 0.638794 4.70032 0.383301 5.3172C0.127808 5.93402 0 6.57629 0 7.24402C0 7.91168 0.127808 8.55396 0.383301 9.17078C0.638794 9.78766 1.00256 10.3322 1.47473 10.8043C1.9469 11.2764 2.49133 11.6402 3.10815 11.8958C3.7251 12.1512 4.36731 12.279 5.03503 12.279L18.452 12.279L18.452 11.23L5.03503 11.23C3.93433 11.23 2.99475 10.8408 2.21643 10.0625C1.43811 9.28424 1.04895 8.34473 1.04895 7.24402C1.04895 6.14331 1.43811 5.2038 2.21643 4.42548C2.99475 3.64716 3.93433 3.25897 5.03503 3.25897Z" fill-rule="evenodd" fill="#FDFDFD"/>
	<path d="M21.3219 13.447C21.8904 14.0172 22.2527 14.6973 22.4091 15.4871C22.5654 16.2769 22.4894 17.0437 22.181 17.7875C21.8727 18.5312 21.3839 19.1269 20.7146 19.5745C20.0453 20.022 19.3081 20.2462 18.5029 20.247L5.08594 20.247L5.08594 21.296L18.5029 21.296C19.1707 21.296 19.8129 21.1683 20.4297 20.9127C21.0466 20.6572 21.5911 20.2934 22.0632 19.8213C22.5353 19.3492 22.8992 18.8047 23.1547 18.1878C23.4102 17.571 23.538 16.9287 23.538 16.261C23.538 15.5933 23.4102 14.951 23.1547 14.3342C22.8992 13.7173 22.5353 13.1729 22.0632 12.7007C21.5911 12.2286 21.0466 11.8648 20.4297 11.6093C19.8129 11.3538 19.1707 11.226 18.5029 11.226L5.08594 11.226L5.08594 12.28L18.5029 12.28C19.6042 12.2785 20.5439 12.6675 21.3219 13.447ZM20.7859 0C20.0269 0 19.3789 0.268372 18.842 0.805176C18.3053 1.34192 18.0369 1.98987 18.0369 2.74902C18.0369 3.50812 18.3053 4.15607 18.842 4.69281C19.3789 5.22961 20.0269 5.49799 20.7859 5.49799C21.545 5.49799 22.193 5.22961 22.7297 4.69281C23.2665 4.15607 23.5349 3.50812 23.5349 2.74902C23.5349 1.98987 23.2665 1.34192 22.7297 0.805176C22.193 0.268372 21.545 0 20.7859 0ZM20.7859 4.44897C20.3165 4.44897 19.9158 4.28302 19.5839 3.95105C19.2518 3.61914 19.0859 3.21844 19.0859 2.74902C19.0859 2.27954 19.2518 1.87885 19.5839 1.54694C19.9158 1.21497 20.3165 1.04901 20.7859 1.04901C21.2554 1.04901 21.656 1.21497 21.988 1.54694C22.3199 1.87885 22.486 2.27954 22.486 2.74902C22.486 3.21844 22.3199 3.61914 21.988 3.95105C21.656 4.28302 21.2554 4.44897 20.7859 4.44897Z" fill-rule="evenodd" fill="#FDFDFD"/>
	<path d="M2.74902 18.0049C1.98987 18.0049 1.34192 18.2733 0.805176 18.8101C0.268433 19.3468 0 19.9948 0 20.7538C0 21.5129 0.268433 22.1609 0.805176 22.6977C1.34192 23.2345 1.98987 23.5029 2.74902 23.5029C3.50806 23.5029 4.15601 23.2345 4.69287 22.6977C5.22961 22.1609 5.49805 21.513 5.49805 20.7539C5.49805 19.9948 5.22961 19.3469 4.69287 18.8101C4.15601 18.2733 3.50806 18.0049 2.74902 18.0049ZM2.74902 22.4539C2.27954 22.4539 1.87891 22.2878 1.54688 21.9559C1.21497 21.6239 1.04895 21.2232 1.04895 20.7538C1.04895 20.2844 1.21497 19.8837 1.54688 19.5518C1.87891 19.2198 2.27954 19.0538 2.74902 19.0538C3.21838 19.0538 3.61914 19.2198 3.95105 19.5518C4.28308 19.8837 4.44897 20.2844 4.44897 20.7538C4.44897 21.2233 4.28308 21.624 3.95105 21.9559C3.61914 22.2878 3.21838 22.4539 2.74902 22.4539Z" fill-rule="evenodd" fill="#FDFDFD"/>
	<defs/>
</svg>
