<?xml version="1.0" standalone="no"?><!DOCTYPE svg PUBLIC "-//W3C//DTD SVG 1.1//EN" "http://www.w3.org/Graphics/SVG/1.1/DTD/svg11.dtd"><svg t="1684467856824" class="icon" viewBox="0 0 1024 1024" version="1.1" xmlns="http://www.w3.org/2000/svg" p-id="1125" xmlns:xlink="http://www.w3.org/1999/xlink" width="300" height="300"><path d="M128 64a64 64 0 0 0-64 64v768a64 64 0 0 0 64 64h768a64 64 0 0 0 64-64V128a64 64 0 0 0-64-64H128z m0-64h768a128 128 0 0 1 128 128v768a128 128 0 0 1-128 128H128a128 128 0 0 1-128-128V128a128 128 0 0 1 128-128z" fill="#ffffff" p-id="1126"></path><path d="M544 704a32 32 0 1 1-64 0V320a32 32 0 0 1 64 0v384z" fill="#ffffff" p-id="1127"></path><path d="M534.656 726.656a32 32 0 0 1-45.312-45.312l181.056-180.992a32 32 0 0 1 45.248 45.248l-180.992 181.056z" fill="#ffffff" p-id="1128"></path><path d="M486.912 726.656a34.56 34.56 0 0 0 47.296 0 31.04 31.04 0 0 0 0-45.312L345.088 500.352a34.56 34.56 0 0 0-47.296 0 31.04 31.04 0 0 0 0 45.248l189.12 181.056z" fill="#ffffff" p-id="1129"></path></svg>