<?xml version="1.0" standalone="no"?><!DOCTYPE svg PUBLIC "-//W3C//DTD SVG 1.1//EN" "http://www.w3.org/Graphics/SVG/1.1/DTD/svg11.dtd"><svg t="1668679203165" class="icon" viewBox="0 0 1024 1024" version="1.1" xmlns="http://www.w3.org/2000/svg" p-id="2786" xmlns:xlink="http://www.w3.org/1999/xlink" width="200" height="200"><path d="M844.3 881.5c-3.2 23.5-7.3 37.3-13.5 41.9-3.7 2.4-11.7 5.8-24.1 8.2-12.1 2.4-27.5 5.8-45.4 8-18.3 3.4-37.8 5.8-59.8 8.2-22 2.7-44.2 5.1-66.2 7-22.7 1.9-44 3.2-64.8 4.4-16.3 1-104.9 1-121 0-20.9-1.2-42.4-2.4-65.1-4.4-22-1.9-44.2-4.4-66-7-22-2.4-41.7-4.9-60-8.2-17.9-2.2-33-5.6-45.4-8-12.1-2.4-20.2-5.8-23.8-8.2-6.2-4.6-10.5-18.4-13.5-41.9-3.2-23.5-2.1-53.3 3.7-89.9 2.5-14.1 6.6-25.5 13.5-34.2 6.6-9 15.1-16.5 25-23.5 9.9-6.3 20.9-11.6 32.3-16 11.7-3.6 23.8-7.5 36.9-11.4 12.1-3.9 24.5-7.8 36-12.1 11.7-4.6 22.7-9.5 31.8-16 11.7-7.5 20.2-14.5 26.4-21.6 6.2-7 10.5-13.8 13.5-20.9 2.3-7 4.4-14.1 4.4-21.1 0-7.5 0-15-0.7-24.7-1.4-12.4-5.7-23.3-13.1-30.8-7.3-7.8-15.8-15.5-25-23.8-4.4-3.6-8.5-9.5-11.7-16.5-3.4-7-6.6-14.1-9.2-21.6-2.3-8.5-5.5-17.2-7.8-26.2-3.7-1.2-7.6-3.1-11.7-5.8-3.2-2.4-6.9-7-10.5-12.1-3.7-5.1-7.3-12.1-9.9-22.3-2.5-9.5-3.7-18.4-3-25.9 0.5-7.8 2.3-14.8 4.8-21.1 2.5-6.3 5.5-11.6 10.5-17.7 0-21.3 1.1-42.2 3-64 2.5-17.7 6-37.3 11.7-58.2 5.3-20.9 14-39.5 25-56 11-15.8 22.5-28.4 34.8-38.1 12.4-9.5 25.7-17.7 39.2-23.5 13.5-5.6 27-9.5 40.6-11.2 13.5-2.2 26.1-3.4 38.5-3.4 1.8 0 3.7 0 5.3 0.2 1.8-0.2 3.4-0.2 5.3-0.2 12.1 0 25 1.2 38.5 3.4 13.5 1.7 26.8 5.6 40.6 11.2 13.3 5.8 26.8 14.1 39 23.5 12.4 9.7 24.1 22.3 35.1 38.1 10.8 16.5 19.5 35.2 25 56 5.5 20.8 9.2 40.5 11.5 58.2 1.8 21.8 3.2 42.7 3.2 64 4.8 6.1 8 11.4 10.5 17.7 2.3 6.3 4.1 13.3 4.8 21.1 0.7 7.5-0.7 16.5-3.2 25.9-2.3 10.2-6 17.2-9.9 22.3-3.7 5.1-7.1 9.7-10.3 12.1-4.4 2.7-8 4.6-11.7 5.8-2.5 9-5.7 17.7-8 26.2-2.5 7.5-5.7 14.5-9.2 21.6-3 7-7.3 12.8-11.7 16.5-9.2 8.2-17.6 16-25 23.8-7.3 7.5-11.5 18.4-12.8 30.8-0.7 9.7-0.7 17.2-0.7 24.7 0 7 1.8 14.1 4.1 21.1 3.2 7 7.3 13.8 13.5 20.9 6.4 7 14.7 14.1 26.6 21.6 9.2 6.5 19.9 11.4 31.6 16 11.7 4.4 23.8 8.2 36.2 12.1 12.8 3.9 25 7.8 36.7 11.4 11.7 4.4 22.7 9.7 32.5 16 9.9 7 18.3 14.5 25 23.5 6.6 8.7 10.8 20.1 13.5 34.2 5.4 36.5 6.6 66.3 3.6 89.9zM320 96c0 8.8-3.6 16.8-9.4 22.6-5.8 5.8-13.8 9.4-22.6 9.4H176v112c0 17.7-14.3 32-32 32-8.8 0-16.8-3.6-22.6-9.4-5.8-5.8-9.4-13.8-9.4-22.6V96c0-17.7 14.3-32 32-32h144c17.7 0 32 14.3 32 32z" p-id="2787"></path><path d="M320 592c0 8.8-3.6 16.8-9.4 22.6-5.8 5.8-13.8 9.4-22.6 9.4H144c-17.7 0-32-14.3-32-32V448c0-17.7 14.3-32 32-32 8.8 0 16.8 3.6 22.6 9.4 5.8 5.8 9.4 13.8 9.4 22.6v112h112c17.7 0 32 14.3 32 32zM912 448v144c0 17.7-14.3 32-32 32H736c-17.7 0-32-14.3-32-32 0-8.8 3.6-16.8 9.4-22.6 5.8-5.8 13.8-9.4 22.6-9.4h112V448c0-17.7 14.3-32 32-32 8.8 0 16.8 3.6 22.6 9.4 5.8 5.8 9.4 13.8 9.4 22.6zM912 96v144c0 17.7-14.3 32-32 32-8.8 0-16.8-3.6-22.6-9.4S848 248.8 848 240V128H736c-17.7 0-32-14.3-32-32 0-8.8 3.6-16.8 9.4-22.6 5.8-5.8 13.8-9.4 22.6-9.4h144c17.7 0 32 14.3 32 32z" p-id="2788"></path></svg>