<svg width="31.202026" height="31.205566" viewBox="0 0 31.202 31.2056" fill="none" xmlns="http://www.w3.org/2000/svg" xmlns:xlink="http://www.w3.org/1999/xlink">
	<desc>
			Created with Pixso.
	</desc>
	<g filter="url(#filter_10_5_dd)">
		<path d="M15.6405 17.8795C15.0123 17.8795 14.4761 17.6574 14.0319 17.2132C13.5876 16.7689 13.3655 16.2327 13.3655 15.6045C13.3655 14.9763 13.5876 14.4401 14.0318 13.9958C14.4761 13.5516 15.0123 13.3295 15.6405 13.3295C16.2687 13.3295 16.8049 13.5516 17.2491 13.9958C17.6934 14.4401 17.9155 14.9763 17.9155 15.6045C17.9147 16.2324 17.6923 16.7683 17.2483 17.2123C16.8043 17.6562 16.2684 17.8787 15.6405 17.8795ZM15.6405 15.4705C15.5511 15.4705 15.5065 15.5151 15.5065 15.6045C15.5065 15.6938 15.5511 15.7385 15.6405 15.7385C15.7299 15.7385 15.7745 15.6938 15.7745 15.6045C15.7772 15.5125 15.7326 15.4705 15.6405 15.4705ZM15.6005 31.2055C15.2691 31.2055 14.9863 31.0883 14.752 30.854C14.5176 30.6197 14.4005 30.3369 14.4005 30.0055L14.4005 20.1245C14.4005 19.7919 14.5181 19.508 14.7533 19.2728C14.9885 19.0376 15.2724 18.92 15.605 18.92C15.9376 18.92 16.2215 19.0376 16.4567 19.2728C16.6919 19.508 16.8095 19.7919 16.8095 20.1245L16.8095 29.9975C16.8109 30.3316 16.6933 30.6166 16.4566 30.8525C16.22 31.0883 15.9346 31.208 15.6005 31.2055ZM15.6005 12.2845C15.2691 12.2845 14.9863 12.1674 14.752 11.933C14.5176 11.6987 14.4005 11.4159 14.4005 11.0845L14.4005 1.20453C14.4005 0.871887 14.5181 0.587982 14.7533 0.352783C14.9885 0.117584 15.2724 0 15.605 0C15.9376 0 16.2215 0.117584 16.4567 0.352783C16.6919 0.587982 16.8095 0.871887 16.8095 1.20453L16.8095 11.0795C16.8095 11.4127 16.6913 11.6965 16.4548 11.9312C16.2184 12.1659 15.9336 12.287 15.6005 12.2845ZM10.8875 12.0555C10.5545 12.056 10.2705 11.9384 10.0355 11.7025L6.83551 8.5025C6.60046 8.26782 6.48291 7.98444 6.48279 7.65228C6.4826 7.32019 6.59998 7.03668 6.83484 6.80182C7.0697 6.56702 7.35315 6.44965 7.6853 6.44977C8.01746 6.44989 8.30084 6.56744 8.53552 6.80249L11.7355 10.0025C12.1206 10.3808 12.2098 10.8193 12.0032 11.3179C11.7965 11.8167 11.4272 12.0605 10.8875 12.0555ZM23.5875 24.7555C23.2545 24.756 22.9705 24.6384 22.7355 24.4025L19.8995 21.5635C19.6645 21.3289 19.5469 21.0454 19.5468 20.7133C19.5466 20.3812 19.664 20.0977 19.8989 19.8629C20.1337 19.628 20.4172 19.5106 20.7493 19.5107C21.0814 19.5109 21.3648 19.6285 21.5995 19.8635L24.4365 22.7005C24.8216 23.0788 24.9108 23.5173 24.7042 24.0159C24.4975 24.5146 24.1273 24.7605 23.5875 24.7555ZM7.6875 24.7555C7.14771 24.7605 6.77448 24.5136 6.56787 24.015C6.36121 23.5163 6.45044 23.0778 6.83551 22.6995L9.85547 19.6795C10.0902 19.4448 10.3735 19.3274 10.7055 19.3274C11.0374 19.3274 11.3208 19.4448 11.5555 19.6795C11.7902 19.9142 11.9076 20.1976 11.9076 20.5295C11.9076 20.8615 11.7902 21.1448 11.5555 21.3795L8.53552 24.3995C8.3031 24.6333 8.01709 24.7533 7.6875 24.7555ZM20.5685 11.8795C20.0287 11.8845 19.6555 11.6376 19.4489 11.1389C19.2422 10.6403 19.3314 10.2018 19.7165 9.82349L22.7375 6.80249C22.9722 6.56775 23.2556 6.45044 23.5875 6.45044C23.9194 6.45044 24.2028 6.56775 24.4375 6.80249C24.6722 7.03723 24.7896 7.32056 24.7896 7.65253C24.7896 7.98444 24.6722 8.26776 24.4375 8.5025L21.4195 11.5245C21.1851 11.7609 20.9014 11.8792 20.5685 11.8795ZM29.9985 16.8075L20.1245 16.8075C19.7919 16.8075 19.508 16.6899 19.2728 16.4547C19.0376 16.2195 18.92 15.9356 18.92 15.603C18.92 15.2704 19.0376 14.9865 19.2728 14.7513C19.508 14.5161 19.7919 14.3985 20.1245 14.3985L29.9975 14.3985C30.3301 14.3985 30.614 14.5161 30.8492 14.7513C31.0844 14.9865 31.202 15.2704 31.202 15.603C31.202 15.9356 31.0844 16.2195 30.8492 16.4547C30.614 16.6899 30.3311 16.8075 29.9985 16.8075ZM11.0775 16.8075L1.20447 16.8075C0.871887 16.8075 0.588013 16.6899 0.352783 16.4547C0.117615 16.2195 0 15.9356 0 15.603C0 15.2704 0.117615 14.9865 0.352783 14.7513C0.588013 14.5161 0.871887 14.3985 1.20447 14.3985L11.0795 14.3985C11.4121 14.3985 11.696 14.5161 11.9312 14.7513C12.1664 14.9865 12.284 15.2704 12.284 15.603C12.284 15.9356 12.1664 16.2195 11.9312 16.4547C11.696 16.6899 11.4101 16.8075 11.0775 16.8075Z" fill-rule="evenodd" fill="#FBFDFF"/>
	</g>
	<defs>
		<filter id="filter_10_5_dd" x="0.000000" y="0.000000" width="31.202026" height="31.205566" filterUnits="userSpaceOnUse" color-interpolation-filters="sRGB">
			<feFlood flood-opacity="0" result="BackgroundImageFix"/>
			<feBlend mode="normal" in="SourceGraphic" in2="BackgroundImageFix" result="shape"/>
			<feColorMatrix in="SourceAlpha" type="matrix" values="0 0 0 0 0 0 0 0 0 0 0 0 0 0 0 0 0 0 127 0" result="hardAlpha"/>
			<feOffset dx="0" dy="4"/>
			<feGaussianBlur stdDeviation="1.33333"/>
			<feComposite in2="hardAlpha" operator="arithmetic" k2="-1" k3="1"/>
			<feColorMatrix type="matrix" values="0 0 0 0 0 0 0 0 0 0 0 0 0 0 0 0 0 0 0.25 0"/>
			<feBlend mode="normal" in2="shape" result="effect_innerShadow_1"/>
		</filter>
	</defs>
</svg>
