<?xml version="1.0" encoding="UTF-8"?>
<svg width="15px" height="14px" viewBox="0 0 15 14" version="1.1" xmlns="http://www.w3.org/2000/svg" xmlns:xlink="http://www.w3.org/1999/xlink">
    <g id="页面-1" stroke="none" stroke-width="1" fill="none" fill-rule="evenodd">
        <g id="视频预览-巡航" transform="translate(-168.000000, -173.000000)">
            <g id="编组-18" transform="translate(14.000000, 122.000000)">
                <g id="图标/主码流" transform="translate(154.000000, 51.000000)">
                    <g id="主" transform="translate(3.750000, 3.500000)" fill="#FFFFFF" fill-rule="nonzero">
                        <path d="M3.30167598,2.06800446 L3.30167598,3.60535117 L0.695530726,3.60535117 L0.695530726,4.37792642 L3.30167598,4.37792642 L3.30167598,6.20401338 L0,6.20401338 L0,7 L7.5,7 L7.5,6.20401338 L4.18994413,6.20401338 L4.18994413,4.37792642 L6.80446927,4.37792642 L6.80446927,3.60535117 L4.18994413,3.60535117 L4.18994413,2.06800446 L7.2150838,2.06800446 L7.2150838,1.27201784 L4.13128492,1.27201784 C4.02234637,0.889632107 3.87150838,0.468227425 3.67039106,0 L2.81564246,0.218506132 C2.98324022,0.554069119 3.1424581,0.905239688 3.27653631,1.27201784 L0.284916201,1.27201784 L0.284916201,2.06800446 L3.30167598,2.06800446 Z" id="路径"></path>
                    </g>
                    <path d="M13.0625,1.125 C13.2696068,1.125 13.4571068,1.20894661 13.5928301,1.34466991 C13.7285534,1.48039322 13.8125,1.66789322 13.8125,1.875 L13.8125,1.875 L13.8125,12.125 C13.8125,12.3321068 13.7285534,12.5196068 13.5928301,12.6553301 C13.4571068,12.7910534 13.2696068,12.875 13.0625,12.875 L13.0625,12.875 L1.9375,12.875 C1.73039322,12.875 1.54289322,12.7910534 1.40716991,12.6553301 C1.27144661,12.5196068 1.1875,12.3321068 1.1875,12.125 L1.1875,12.125 L1.1875,1.875 C1.1875,1.66789322 1.27144661,1.48039322 1.40716991,1.34466991 C1.54289322,1.20894661 1.73039322,1.125 1.9375,1.125 L1.9375,1.125 Z" id="矩形" stroke="#FFFFFF" stroke-width="0.5"></path>
                </g>
            </g>
        </g>
    </g>
</svg>