<?xml version="1.0" standalone="no"?><!DOCTYPE svg PUBLIC "-//W3C//DTD SVG 1.1//EN" "http://www.w3.org/Graphics/SVG/1.1/DTD/svg11.dtd"><svg t="1684487475291" class="icon" viewBox="0 0 1024 1024" version="1.1" xmlns="http://www.w3.org/2000/svg" p-id="1675" xmlns:xlink="http://www.w3.org/1999/xlink" width="300" height="300"><path d="M512 10.666667C376.512 10.666667 266.666667 120.512 266.666667 256v170.666667c0 135.488 109.845333 245.333333 245.333333 245.333333S757.333333 562.154667 757.333333 426.666667v-170.666667C757.333333 120.512 647.488 10.666667 512 10.666667z m0 64a181.333333 181.333333 0 0 1 181.333333 181.333333v170.666667a181.333333 181.333333 0 0 1-362.666666 0v-170.666667A181.333333 181.333333 0 0 1 512 74.666667z"  p-id="1676"></path><path d="M853.333333 416a32 32 0 0 1 31.850667 28.928L885.333333 448v3.093333C885.333333 655.637333 718.122667 821.333333 512 821.333333c-206.122667 0-373.333333-165.696-373.333333-370.24a32 32 0 0 1 64 0C202.666667 620.16 341.098667 757.333333 512 757.333333c168.661333 0 305.685333-133.589333 309.269333-299.584L821.333333 448a32 32 0 0 1 32-32z"  p-id="1677"></path><path d="M522.666667 800a32 32 0 0 1 31.850666 28.928L554.666667 832v128a32 32 0 0 1-63.850667 3.072L490.666667 960v-128a32 32 0 0 1 32-32z"  p-id="1678"></path><path d="M704 938.666667a32 32 0 0 1 3.072 63.850666L704 1002.666667H341.333333a32 32 0 0 1-3.072-63.850667L341.333333 938.666667h362.666667z"  p-id="1679"></path></svg>