<?xml version="1.0" standalone="no"?><!DOCTYPE svg PUBLIC "-//W3C//DTD SVG 1.1//EN" "http://www.w3.org/Graphics/SVG/1.1/DTD/svg11.dtd"><svg t="1660120748107" class="icon" viewBox="0 0 1024 1024" version="1.1" xmlns="http://www.w3.org/2000/svg" p-id="13886" xmlns:xlink="http://www.w3.org/1999/xlink" width="32" height="32"><defs><style type="text/css">@font-face { font-family: feedback-iconfont; src: url("//at.alicdn.com/t/font_1031158_u69w8yhxdu.woff2?t=1630033759944") format("woff2"), url("//at.alicdn.com/t/font_1031158_u69w8yhxdu.woff?t=1630033759944") format("woff"), url("//at.alicdn.com/t/font_1031158_u69w8yhxdu.ttf?t=1630033759944") format("truetype"); }
</style></defs><path d="M870.4 0H153.6C69.12 0 0 69.12 0 153.6v716.8c0 84.48 69.12 153.6 153.6 153.6h716.8c84.48 0 153.6-69.12 153.6-153.6V153.6c0-84.48-69.12-153.6-153.6-153.6z m102.4 870.4c0 56.32-46.08 102.4-102.4 102.4H153.6c-56.32 0-102.4-46.08-102.4-102.4V153.6c0-56.32 46.08-102.4 102.4-102.4h716.8c56.32 0 102.4 46.08 102.4 102.4v716.8z" fill="#333333" p-id="13887"></path><path d="M793.6 179.2H588.8c-14.08 0-25.6 11.52-25.6 25.6s11.52 25.6 25.6 25.6h168.96L570.88 417.28c-10.24 10.24-10.24 25.6 0 35.84 5.12 5.12 11.52 7.68 17.92 7.68s12.8-2.56 17.92-7.68L793.6 266.24V435.2c0 14.08 11.52 25.6 25.6 25.6s25.6-11.52 25.6-25.6V230.4c0-28.16-23.04-51.2-51.2-51.2zM453.12 570.88c-10.24-10.24-25.6-10.24-35.84 0L230.4 757.76V588.8c0-14.08-11.52-25.6-25.6-25.6s-25.6 11.52-25.6 25.6v204.8c0 28.16 23.04 51.2 51.2 51.2h204.8c14.08 0 25.6-11.52 25.6-25.6s-11.52-25.6-25.6-25.6H266.24l186.88-186.88c10.24-10.24 10.24-25.6 0-35.84z" fill="#333333" p-id="13888"></path></svg>