<svg width="23.003479" height="23.002136" viewBox="0 0 23.0035 23.0021" fill="none" xmlns="http://www.w3.org/2000/svg" xmlns:xlink="http://www.w3.org/1999/xlink">
	<desc>
			Created with Pixso.
	</desc>
	<path d="M3.33405 19.6125C2.98175 19.2567 2.98346 18.9027 3.33923 18.5504C3.69507 18.1981 4.04913 18.1999 4.40143 18.5556C5.27704 19.4332 6.28088 20.1247 7.4129 20.6301C8.54498 21.1354 9.72998 21.4212 10.968 21.4872C12.206 21.5533 13.4147 21.3953 14.5941 21.0132C15.7734 20.631 16.8452 20.0503 17.8092 19.2709L18.6086 18.5339C18.9749 18.1926 19.3285 18.2051 19.6696 18.5717C20.0107 18.9381 19.9978 19.2917 19.6309 19.6324L18.7985 20.3997C17.6904 21.3051 16.4566 21.9808 15.0969 22.4269C13.7372 22.873 12.3428 23.0596 10.9138 22.9868C9.48462 22.9138 8.11646 22.5863 6.8092 22.0042C5.50201 21.422 4.34424 20.6259 3.33405 19.6125ZM22.7316 14.0308C22.6241 14.5225 22.3245 14.7145 21.8328 14.6066C21.3411 14.4987 21.1494 14.199 21.2576 13.7075C21.5267 12.4927 21.5667 11.2705 21.3775 10.0408C21.1882 8.8111 20.7827 7.65747 20.1607 6.57983C19.5388 5.50226 18.7427 4.57385 17.7726 3.79474C16.8025 3.01562 15.7242 2.43866 14.5377 2.06384C14.062 1.91071 13.9006 1.59625 14.0538 1.12054C14.207 0.644897 14.5215 0.483643 14.9973 0.63678C16.3626 1.06726 17.6035 1.73053 18.72 2.62659C19.8365 3.52264 20.7525 4.59058 21.4682 5.83038C22.1839 7.07013 22.6505 8.39746 22.868 9.81232C23.0856 11.2272 23.0418 12.6334 22.7316 14.0308ZM6.18677 3.11639C4.41394 4.22345 3.11847 5.73859 2.30035 7.6618C1.48224 9.58502 1.28918 11.569 1.72125 13.6138C1.82465 14.1052 1.63062 14.4025 1.1391 14.5057C0.647583 14.6089 0.350281 14.4148 0.247253 13.9233C-0.0130005 12.6888 -0.0678101 11.4452 0.0829468 10.1926C0.233643 8.93994 0.581787 7.74481 1.12744 6.60718C1.67303 5.4696 2.38715 4.44995 3.26971 3.54822C4.15228 2.64655 5.15643 1.91071 6.28217 1.34076C7.87665 0.471436 9.58191 0.0298462 11.3979 0.0160522C11.61 -0.0272827 11.8016 0.0172729 11.9728 0.149536C12.1202 0.267883 12.2034 0.421021 12.2225 0.60907C12.2236 0.66803 12.2158 0.72583 12.1992 0.782471C12.1714 0.892334 12.1136 0.983093 12.0257 1.05469L7.66687 5.92627C7.47595 6.12408 7.2514 6.17584 6.99316 6.08148C6.72845 5.99957 6.57233 5.82208 6.5249 5.54913L6.18677 3.11639ZM6.07581 20.7552C6.00903 20.7448 5.91278 21.4678 5.30322 21.1575C3.66351 20.236 2.35333 18.9727 1.37268 17.3679C1.22668 17.2088 1.16656 17.0221 1.19232 16.8078C1.21661 16.6221 1.30328 16.4727 1.45245 16.3596C1.50391 16.3259 1.55945 16.3013 1.61896 16.2859C1.72784 16.2532 1.83563 16.2564 1.94238 16.2954L8.35883 17.5231C8.62683 17.5844 8.78699 17.7499 8.83917 18.0198C8.9057 18.2892 8.83405 18.5146 8.62415 18.696L6.07581 20.7552ZM22.1767 10.947C22.2018 11.0103 22.8704 10.7207 22.9181 11.4022C22.9733 13.2819 22.5649 15.0549 21.6929 16.7211C21.6323 16.9288 21.5034 17.077 21.3062 17.1658C21.1337 17.2407 20.9603 17.243 20.7859 17.1728C20.7304 17.1457 20.6807 17.1104 20.6368 17.067C20.553 16.9905 20.5004 16.8966 20.4789 16.7852L18.2245 10.6513C18.14 10.3903 18.1998 10.168 18.404 9.98462C18.6014 9.78705 18.8326 9.73218 19.0977 9.81989L22.1767 10.947Z" fill-rule="evenodd" fill="#FFFFFF"/>
	<defs/>
</svg>
