<?xml version="1.0" standalone="no"?><!DOCTYPE svg PUBLIC "-//W3C//DTD SVG 1.1//EN" "http://www.w3.org/Graphics/SVG/1.1/DTD/svg11.dtd"><svg t="1663751480056" class="icon" viewBox="0 0 1024 1024" version="1.1" xmlns="http://www.w3.org/2000/svg" p-id="1302" xmlns:xlink="http://www.w3.org/1999/xlink" width="200" height="200"><path d="M429.37 305.73c-1.17 0-2.35-0.05-3.53-0.16l-185.7-17.12c-20.43-1.88-38.76-13.6-49.04-31.33-10.2-17.61-11.26-39.14-2.83-57.59L266.69 27.8C275.41 8.71 297.95 0.3 317.04 9.02c19.09 8.72 27.5 31.26 18.78 50.35l-70.81 155.05 167.8 15.47c20.9 1.93 36.28 20.43 34.35 41.33-1.82 19.71-18.38 34.51-37.79 34.51zM494.75 650.33a37.95 37.95 0 0 1-26.77-11.04 38.004 38.004 0 0 1-11.22-26.96V400.16c0-20.99 17.01-38 38-38s38 17.01 38 38v173.89l173.84-1.22h0.27c20.86 0 37.85 16.84 37.99 37.73 0.15 20.99-16.75 38.12-37.73 38.27l-212.1 1.49c-0.11 0.01-0.2 0.01-0.28 0.01z"  p-id="1303"></path><path d="M512 1018.41c-63 0-124.13-12.35-181.7-36.7-55.59-23.51-105.5-57.16-148.36-100.02s-76.51-92.77-100.02-148.36c-24.35-57.57-36.7-118.7-36.7-181.7 0-27.28 2.38-54.63 7.06-81.29 3.63-20.67 23.33-34.48 44-30.85 20.67 3.63 34.48 23.33 30.85 44-3.92 22.33-5.91 45.26-5.91 68.14 0 215.47 175.3 390.77 390.78 390.77 215.47 0 390.78-175.3 390.78-390.77 0-215.47-175.3-390.78-390.78-390.78-90.13 0-178.06 31.41-247.61 88.44-16.23 13.31-40.17 10.94-53.48-5.29-13.31-16.23-10.94-40.17 5.29-53.48 40.83-33.49 86.59-59.6 136.01-77.6 51.14-18.63 104.9-28.08 159.8-28.08 63 0 124.13 12.35 181.7 36.7 55.59 23.51 105.5 57.16 148.36 100.02s76.51 92.77 100.02 148.36c24.35 57.57 36.7 118.7 36.7 181.7 0 63-12.35 124.13-36.7 181.7-23.51 55.59-57.16 105.5-100.02 148.36S749.29 958.2 693.7 981.72c-57.57 24.35-118.7 36.69-181.7 36.69z"  p-id="1304"></path></svg>