<?xml version="1.0" encoding="UTF-8"?>
<svg width="20px" height="20px" viewBox="0 0 20 20" version="1.1" xmlns="http://www.w3.org/2000/svg" xmlns:xlink="http://www.w3.org/1999/xlink">
    <g id="页面-1" stroke="none" stroke-width="1" fill="none" fill-rule="evenodd">
        <g id="视频预览1920" transform="translate(-235.000000, -228.000000)" fill-rule="nonzero">
            <g id="time-out" transform="translate(235.200000, 228.200000)">
                <rect id="矩形" fill="#000000" opacity="0" x="0" y="0" width="19.2" height="19.2"></rect>
                <path d="M9.6,1.2 C4.96125,1.2 1.2,4.96125 1.2,9.6 C1.2,14.23875 4.96125,18 9.6,18 C14.23875,18 18,14.23875 18,9.6 C18,4.96125 14.23875,1.2 9.6,1.2 Z M9.6,16.575 C5.74875,16.575 2.625,13.45125 2.625,9.6 C2.625,5.74875 5.74875,2.625 9.6,2.625 C13.45125,2.625 16.575,5.74875 16.575,9.6 C16.575,13.45125 13.45125,16.575 9.6,16.575 Z M7.95,6.6 L7.05,6.6 C6.9675,6.6 6.9,6.6675 6.9,6.75 L6.9,12.45 C6.9,12.5325 6.9675,12.6 7.05,12.6 L7.95,12.6 C8.0325,12.6 8.1,12.5325 8.1,12.45 L8.1,6.75 C8.1,6.6675 8.0325,6.6 7.95,6.6 Z M12.15,6.6 L11.25,6.6 C11.1675,6.6 11.1,6.6675 11.1,6.75 L11.1,12.45 C11.1,12.5325 11.1675,12.6 11.25,12.6 L12.15,12.6 C12.2325,12.6 12.3,12.5325 12.3,12.45 L12.3,6.75 C12.3,6.6675 12.2325,6.6 12.15,6.6 Z" id="形状" fill="#ECFDFF"></path>
            </g>
        </g>
    </g>
</svg>