<svg width="24.642029" height="22.070435" viewBox="0 0 24.642 22.0704" fill="none" xmlns="http://www.w3.org/2000/svg" xmlns:xlink="http://www.w3.org/1999/xlink">
	<desc>
			Created with Pixso.
	</desc>
	<path d="M11.533 13.3181L15.468 13.3181C16.048 13.32 16.3389 13.031 16.3409 12.451L16.3409 12.1511C16.3389 11.5717 16.0483 11.2823 15.4689 11.283L12.705 11.283L12.705 6.44098C12.7023 5.86102 12.4109 5.57172 11.8309 5.573L11.5309 5.573C10.9515 5.57166 10.6606 5.86066 10.658 6.44L10.658 12.271C10.6893 12.8376 10.981 13.1866 11.533 13.3181Z" fill-rule="evenodd" fill="#3A9DF0"/>
	<path d="M23.774 0L0.870972 0C0.290344 0 0 0.290344 0 0.870972C0 1.45166 0.290344 1.742 0.870972 1.742L1.74799 1.742L1.74799 21.549C1.74695 21.6922 1.7973 21.8142 1.89899 21.915C2.00018 22.0167 2.1225 22.0677 2.26599 22.068C2.31177 22.0679 2.35675 22.0618 2.401 22.05L11.478 19.45C11.9042 19.3406 12.3312 19.3376 12.759 19.441L22.248 22.049C22.5811 22.1253 22.7901 21.998 22.875 21.667C22.8848 21.627 22.8898 21.5862 22.89 21.545L22.89 1.742L23.771 1.742C24.3517 1.742 24.642 1.45166 24.642 0.870972C24.642 0.290344 24.3547 0 23.774 0ZM20.623 19.9C20.5753 19.9 20.5283 19.8943 20.482 19.883L12.736 17.71C12.321 17.6092 11.9067 17.6119 11.493 17.718L4.17603 19.864C4.00061 19.9106 3.83759 19.8833 3.68701 19.782C3.53284 19.6645 3.42914 19.4879 3.42999 19.294L3.42999 1.742L21.215 1.742L21.215 19.314C21.2079 19.7009 21.0099 19.8942 20.623 19.9Z" fill-rule="evenodd" fill="#3A9DF0"/>
	<defs/>
</svg>
