<?xml version="1.0" standalone="no"?><!DOCTYPE svg PUBLIC "-//W3C//DTD SVG 1.1//EN" "http://www.w3.org/Graphics/SVG/1.1/DTD/svg11.dtd"><svg t="1679906031571" class="icon" viewBox="0 0 1024 1024" version="1.1" xmlns="http://www.w3.org/2000/svg" p-id="7696" xmlns:xlink="http://www.w3.org/1999/xlink" width="200" height="200"><path d="M757.76 819.2h-491.52A61.44 61.44 0 0 1 204.8 757.76v-491.52A61.44 61.44 0 0 1 266.24 204.8h491.52A61.44 61.44 0 0 1 819.2 266.24v491.52a61.44 61.44 0 0 1-61.44 61.44zM266.24 245.76a20.48 20.48 0 0 0-20.48 20.48v491.52a20.48 20.48 0 0 0 20.48 20.48h491.52a20.48 20.48 0 0 0 20.48-20.48v-491.52a20.48 20.48 0 0 0-20.48-20.48z" p-id="7697" fill="#ffffff"></path><path d="M491.52 450.56h40.96v204.8h-40.96zM491.52 368.64h40.96v40.96h-40.96z" p-id="7698" fill="#ffffff"></path></svg>