<?xml version="1.0" standalone="no"?><!DOCTYPE svg PUBLIC "-//W3C//DTD SVG 1.1//EN" "http://www.w3.org/Graphics/SVG/1.1/DTD/svg11.dtd"><svg t="1666005987346" class="icon" viewBox="0 0 1024 1024" version="1.1" xmlns="http://www.w3.org/2000/svg" p-id="1536" xmlns:xlink="http://www.w3.org/1999/xlink" width="48" height="48"><path d="M591.3 456.2V343.07" fill="#FFFFFF" p-id="1537"></path><path d="M591.3 468.2a12 12 0 0 1-12-12V343.07a12 12 0 1 1 24 0V456.2a12 12 0 0 1-12 12z" p-id="1538"></path><path d="M704.43 456.2H591.3" fill="#FFFFFF" p-id="1539"></path><path d="M704.43 468.2H591.3a12 12 0 0 1 0-24h113.13a12 12 0 0 1 0 24z" p-id="1540"></path><path d="M591.3 456.2l269.4-269.4" fill="#FFFFFF" p-id="1541"></path><path d="M591.3 468.2a12 12 0 0 1-8.49-20.48l269.41-269.41a12 12 0 0 1 17 17L599.78 464.69a12 12 0 0 1-8.48 3.51z" p-id="1542"></path><path d="M591.3 616.8h113.13" fill="#FFFFFF" p-id="1543"></path><path d="M704.43 628.8H591.3a12 12 0 0 1 0-24h113.13a12 12 0 1 1 0 24z" p-id="1544"></path><path d="M591.3 729.93V616.8" fill="#FFFFFF" p-id="1545"></path><path d="M591.3 741.93a12 12 0 0 1-12-12V616.8a12 12 0 0 1 24 0v113.13a12 12 0 0 1-12 12z" p-id="1546"></path><path d="M591.3 616.8l269.4 269.4" fill="#FFFFFF" p-id="1547"></path><path d="M860.7 898.2a12 12 0 0 1-8.48-3.51L582.81 625.28a12 12 0 0 1 17-17l269.38 269.44a12 12 0 0 1-8.49 20.48z" p-id="1548"></path><path d="M430.7 616.8v113.13" fill="#FFFFFF" p-id="1549"></path><path d="M430.7 741.93a12 12 0 0 1-12-12V616.8a12 12 0 0 1 24 0v113.13a12 12 0 0 1-12 12z" p-id="1550"></path><path d="M317.57 616.8H430.7" fill="#FFFFFF" p-id="1551"></path><path d="M430.7 628.8H317.57a12 12 0 1 1 0-24H430.7a12 12 0 1 1 0 24z" p-id="1552"></path><path d="M430.7 616.8L161.3 886.2" fill="#FFFFFF" p-id="1553"></path><path d="M161.3 898.2a12 12 0 0 1-8.49-20.48l269.41-269.41a12 12 0 1 1 17 17L169.78 894.69a12 12 0 0 1-8.48 3.51z" p-id="1554"></path><path d="M430.7 456.2H317.57" fill="#FFFFFF" p-id="1555"></path><path d="M430.7 468.2H317.57a12 12 0 0 1 0-24H430.7a12 12 0 0 1 0 24z" p-id="1556"></path><path d="M430.7 343.07V456.2" fill="#FFFFFF" p-id="1557"></path><path d="M430.7 468.2a12 12 0 0 1-12-12V343.07a12 12 0 0 1 24 0V456.2a12 12 0 0 1-12 12z" p-id="1558"></path><path d="M430.7 456.2L161.3 186.8" p-id="1559"></path><path d="M430.7 468.2a12 12 0 0 1-8.48-3.51L152.81 195.28a12 12 0 0 1 17-17l269.38 269.44a12 12 0 0 1-8.49 20.48z" p-id="1560"></path></svg>