<?xml version="1.0" standalone="no"?><!DOCTYPE svg PUBLIC "-//W3C//DTD SVG 1.1//EN" "http://www.w3.org/Graphics/SVG/1.1/DTD/svg11.dtd"><svg t="1670295905655" class="icon" viewBox="0 0 1024 1024" version="1.1" xmlns="http://www.w3.org/2000/svg" p-id="4696" xmlns:xlink="http://www.w3.org/1999/xlink" width="200" height="200"><path d="M544 373.333333m-96 0a96 96 0 1 0 192 0 96 96 0 1 0-192 0Z" p-id="4697"></path><path d="M544 64c-181.333333 0-330.666667 162.133333-330.666667 362.666667v6.4l-53.333333 115.2c-2.133333 4.266667-2.133333 10.666667 0 17.066666 2.133333 4.266667 6.4 10.666667 10.666667 12.8l85.333333 40.533334v151.466666c0 12.8 8.533333 21.333333 21.333333 21.333334h106.666667v149.333333c0 12.8 8.533333 21.333333 21.333333 21.333333h298.666667c12.8 0 21.333333-8.533333 21.333333-21.333333v-209.066667c93.866667-68.266667 149.333333-181.333333 149.333334-302.933333 0-202.666667-149.333333-364.8-330.666667-364.8z m10.666667 42.666667c140.8 6.4 256 123.733333 275.2 277.333333h-83.2v-10.666667c0-42.666667-12.8-85.333333-38.4-119.466666-8.533333-12.8-19.2-23.466667-29.866667-32-34.133333-29.866667-76.8-46.933333-123.733333-49.066667v-66.133333z m93.866666 147.2c8.533333 8.533333 17.066667 17.066667 23.466667 25.6 21.333333 27.733333 32 59.733333 32 93.866666 0 87.466667-72.533333 160-160 160-42.666667 0-81.066667-17.066667-110.933333-44.8l38.4-38.4c19.2 17.066667 44.8 29.866667 72.533333 29.866667 59.733333 0 106.666667-46.933333 106.666667-106.666667s-46.933333-106.666667-106.666667-106.666666c-19.2 0-38.4 6.4-55.466667 14.933333l-38.4-38.4c25.6-19.2 57.6-29.866667 93.866667-29.866667 38.4 0 76.8 14.933333 104.533333 40.533334z m-38.4 170.666666l-29.866666-29.866666c4.266667-6.4 6.4-12.8 6.4-21.333334 0-23.466667-19.2-42.666667-42.666667-42.666666s-42.666667 19.2-42.666667 42.666666 19.2 42.666667 42.666667 42.666667c8.533333 0 14.933333-2.133333 21.333333-6.4l29.866667 29.866667c-14.933333 10.666667-32 19.2-51.2 19.2-46.933333 0-85.333333-38.4-85.333333-85.333334s38.4-85.333333 85.333333-85.333333 85.333333 38.4 85.333333 85.333333c0 19.2-6.4 38.4-19.2 51.2z m-66.133333-29.866666c-12.8 0-21.333333-8.533333-21.333333-21.333334s8.533333-21.333333 21.333333-21.333333 21.333333 8.533333 21.333333 21.333333-8.533333 21.333333-21.333333 21.333334z m-106.666667-21.333334c0 23.466667 8.533333 44.8 19.2 61.866667l-38.4 38.4c-21.333333-27.733333-34.133333-61.866667-34.133333-100.266667 0-44.8 19.2-87.466667 51.2-115.2l38.4 38.4c-23.466667 17.066667-36.266667 44.8-36.266667 76.8z m262.4 322.133334l-8.533333 6.4c-6.4 4.266667-8.533333 10.666667-8.533333 17.066666v198.4h-256v-149.333333c0-12.8-8.533333-21.333333-21.333334-21.333333h-106.666666v-142.933334c0-8.533333-4.266667-14.933333-12.8-19.2l-78.933334-36.266666 46.933334-100.266667c2.133333-2.133333 2.133333-6.4 2.133333-8.533333v-10.666667c0-172.8 123.733333-313.6 277.333333-320v64c-106.666667 6.4-192 93.866667-192 202.666667 0 110.933333 91.733333 202.666667 202.666667 202.666666 100.266667 0 183.466667-74.666667 200.533333-170.666666h87.466667v21.333333c0 106.666667-49.066667 206.933333-132.266667 266.666667z" p-id="4698"></path></svg>