<?xml version="1.0" encoding="UTF-8"?>
<svg width="15px" height="14px" viewBox="0 0 15 14" version="1.1" xmlns="http://www.w3.org/2000/svg" xmlns:xlink="http://www.w3.org/1999/xlink">
    <g id="页面-1" stroke="none" stroke-width="1" fill="none" fill-rule="evenodd">
        <g id="视频预览-巡航" transform="translate(-168.000000, -204.000000)">
            <g id="编组-18" transform="translate(14.000000, 122.000000)">
                <g id="图标/子码流" transform="translate(154.000000, 82.000000)">
                    <path d="M13.0625,1.125 C13.2696068,1.125 13.4571068,1.20894661 13.5928301,1.34466991 C13.7285534,1.48039322 13.8125,1.66789322 13.8125,1.875 L13.8125,1.875 L13.8125,12.125 C13.8125,12.3321068 13.7285534,12.5196068 13.5928301,12.6553301 C13.4571068,12.7910534 13.2696068,12.875 13.0625,12.875 L13.0625,12.875 L1.9375,12.875 C1.73039322,12.875 1.54289322,12.7910534 1.40716991,12.6553301 C1.27144661,12.5196068 1.1875,12.3321068 1.1875,12.125 L1.1875,12.125 L1.1875,1.875 C1.1875,1.66789322 1.27144661,1.48039322 1.40716991,1.34466991 C1.54289322,1.20894661 1.73039322,1.125 1.9375,1.125 L1.9375,1.125 Z" id="矩形" stroke="#FFFFFF" stroke-width="0.5"></path>
                    <g id="子" transform="translate(3.750000, 3.500000)" fill="#FFFFFF" fill-rule="nonzero">
                        <path d="M0,2.984625 L0,3.787875 L3.4509375,3.787875 L3.4509375,5.898375 C3.4509375,6.087375 3.34125,6.181875 3.1303125,6.181875 C2.6325,6.181875 2.176875,6.174 1.755,6.15825 L1.99125,6.953625 L3.493125,6.953625 C4.05,6.953625 4.336875,6.685875 4.336875,6.15825 L4.336875,3.787875 L7.441875,3.787875 L7.441875,2.984625 L4.336875,2.984625 L4.336875,2.433375 C5.146875,1.913625 5.8640625,1.3545 6.496875,0.77175 L6.496875,0 L0.8859375,0 L0.8859375,0.77175 L5.3240625,0.77175 C4.7165625,1.26 4.0921875,1.677375 3.4509375,2.023875 L3.4509375,2.984625 L0,2.984625 Z" id="路径"></path>
                    </g>
                </g>
            </g>
        </g>
    </g>
</svg>