<?xml version="1.0" standalone="no"?><!DOCTYPE svg PUBLIC "-//W3C//DTD SVG 1.1//EN" "http://www.w3.org/Graphics/SVG/1.1/DTD/svg11.dtd"><svg t="1660121527116" class="icon" viewBox="0 0 1024 1024" version="1.1" xmlns="http://www.w3.org/2000/svg" p-id="20505" xmlns:xlink="http://www.w3.org/1999/xlink" width="32" height="32"><defs><style type="text/css">@font-face { font-family: feedback-iconfont; src: url("//at.alicdn.com/t/font_1031158_u69w8yhxdu.woff2?t=1630033759944") format("woff2"), url("//at.alicdn.com/t/font_1031158_u69w8yhxdu.woff?t=1630033759944") format("woff"), url("//at.alicdn.com/t/font_1031158_u69w8yhxdu.ttf?t=1630033759944") format("truetype"); }
</style></defs><path d="M512 1020C231.9 1020 4 792.1 4 512S231.9 4 512 4c65.7 0 129.6 12.4 190.1 36.7 12.4 5 18.4 19.1 13.4 31.5-5 12.4-19.1 18.4-31.5 13.4-54.7-22-112.5-33.2-172-33.2C258.6 52.4 52.4 258.6 52.4 512S258.6 971.6 512 971.6 971.6 765.4 971.6 512c0-104.6-36.1-206.9-101.5-288.2-8.4-10.4-6.7-25.6 3.7-34 10.4-8.4 25.6-6.7 34 3.7C980.1 283.3 1020 396.4 1020 512c0 280.1-227.9 508-508 508z m251.9-584.5c0-13.4-10.8-24.2-24.2-24.2H346.3l92.5-103.1c8.9-9.9 8.1-25.2-1.8-34.2-10-8.9-25.3-8.1-34.2 1.8L274.1 419.3c-6.4 7.1-8 17.3-4.1 26 3.9 8.7 12.5 14.3 22.1 14.3h447.6c13.4 0.1 24.2-10.7 24.2-24.1zM629 759.5l128.7-143.4c6.4-7.1 8-17.3 4.1-26-3.9-8.7-12.5-14.3-22.1-14.3H292.1c-13.4 0-24.2 10.8-24.2 24.2 0 13.4 10.8 24.2 24.2 24.2h393.4l-92.5 103c-8.9 9.9-8.1 25.2 1.8 34.2 4.6 4.1 10.4 6.2 16.1 6.2 6.7 0 13.3-2.7 18.1-8.1z" p-id="20506"></path></svg>