<?xml version="1.0" standalone="no"?><!DOCTYPE svg PUBLIC "-//W3C//DTD SVG 1.1//EN" "http://www.w3.org/Graphics/SVG/1.1/DTD/svg11.dtd"><svg t="1666692579017" class="icon" viewBox="0 0 1257 1024" version="1.1" xmlns="http://www.w3.org/2000/svg" p-id="3796" xmlns:xlink="http://www.w3.org/1999/xlink" width="58.921875" height="48"><path d="M699.918842 746.578108a279.96679 279.96679 0 0 1 279.966791-279.966791 272.267704 272.267704 0 0 1 82.123592 12.3652 133.450837 133.450837 0 0 0-48.994189-59.026331 66.258807 66.258807 0 0 0-5.599335-132.517615H933.224501l-48.527577-187.811055a88.422845 88.422845 0 0 0-63.692445-63.225833 1129.432694 1129.432694 0 0 0-568.799196 0 88.422845 88.422845 0 0 0-63.692444 63.225833L139.985262 288.132488H88.891322a66.492113 66.492113 0 0 0-23.330565 129.01803A132.051003 132.051003 0 0 0 0.001866 531.936902v177.3123a88.65615 88.65615 0 0 0 67.19203 85.856483V839.900371a46.661132 46.661132 0 0 0 46.661132 46.661132h130.184557a46.661132 46.661132 0 0 0 46.661132-46.661132v-41.995018H704.584956A285.799432 285.799432 0 0 1 699.918842 746.578108zM178.947307 687.085165a88.65615 88.65615 0 1 1 89.356067-88.656151 89.122762 89.122762 0 0 1-89.356067 88.656151zM275.069238 121.318943A1071.106279 1071.106279 0 0 1 536.604881 88.65615a1031.444317 1031.444317 0 0 1 261.768949 33.596015l48.060966 233.305659H226.774967z m971.018151 825.668726l-71.624837-71.858143A231.205908 231.205908 0 0 0 1213.191292 746.578108a233.305659 233.305659 0 1 0-233.305659 233.305658 231.205908 231.205908 0 0 0 128.551418-38.728739l71.858143 71.624837a46.661132 46.661132 0 0 0 65.792195-65.792195zM839.902238 746.578108a139.983395 139.983395 0 1 1 139.983395 139.983395 139.983395 139.983395 0 0 1-139.983395-139.983395z" p-id="3797"></path></svg>