<?xml version="1.0" standalone="no"?><!DOCTYPE svg PUBLIC "-//W3C//DTD SVG 1.1//EN" "http://www.w3.org/Graphics/SVG/1.1/DTD/svg11.dtd"><svg t="1684468769679" class="icon" viewBox="0 0 1024 1024" version="1.1" xmlns="http://www.w3.org/2000/svg" p-id="1588" xmlns:xlink="http://www.w3.org/1999/xlink" width="300" height="300"><path d="M117.297548 128.825806h762.483613v172.659613a28.771097 28.771097 0 0 1-57.542193 0V186.401032H174.839742v115.084387a28.771097 28.771097 0 0 1-57.542194 0V128.825806zM117.297548 888.567742h762.483613v-172.626581a28.771097 28.771097 0 1 0-57.542193 0v115.084387H174.839742v-115.084387a28.771097 28.771097 0 1 0-57.542194 0V888.567742z" fill="#ffffff" p-id="1589"></path><path d="M392.588387 645.615484h-54.701419v-210.811871l-65.271742 20.248774V410.590968l114.093419-40.860903h5.879742v275.885419zM487.192774 618.727226c0-8.687484 2.906839-15.756387 8.687484-21.173678a31.545806 31.545806 0 0 1 22.131613-8.158967c8.984774 0 16.350968 2.741677 22.131613 8.158967a27.416774 27.416774 0 0 1 8.91871 21.173678c0 8.588387-2.906839 15.591226-8.687484 21.008516-5.813677 5.285161-13.245935 7.927742-22.329807 7.927742a31.545806 31.545806 0 0 1-22.131613-7.927742 27.449806 27.449806 0 0 1-8.720516-21.008516z m0-154.954323c0-8.720516 2.906839-15.756387 8.687484-21.206709a31.545806 31.545806 0 0 1 22.131613-8.125936c8.984774 0 16.350968 2.708645 22.131613 8.125936a27.416774 27.416774 0 0 1 8.91871 21.206709 27.416774 27.416774 0 0 1-8.687484 21.008516c-5.813677 5.285161-13.245935 7.927742-22.329807 7.927742a31.545806 31.545806 0 0 1-22.131613-7.927742 27.416774 27.416774 0 0 1-8.720516-21.008516zM724.463484 645.615484h-54.668387v-210.811871l-65.271742 20.248774V410.590968l114.093419-40.860903h5.84671v275.885419z" fill="#ffffff" p-id="1590"></path></svg>