<svg width="26.000000" height="22.000000" viewBox="0 0 26 22" fill="none" xmlns="http://www.w3.org/2000/svg" xmlns:xlink="http://www.w3.org/1999/xlink">
	<desc>
			Created with Pixso.
	</desc>
	<path d="M18.9288 18.5513L18.4429 18.1401C18.0829 17.8306 17.6971 17.5551 17.2858 17.3137C16.8744 17.0723 16.444 16.8688 15.9948 16.7034C15.5455 16.538 15.0845 16.4132 14.612 16.3291C14.1395 16.245 13.663 16.2029 13.1826 16.2029C12.7022 16.2029 12.2257 16.245 11.7532 16.3291C11.2806 16.4132 10.8197 16.538 10.3704 16.7034C9.92114 16.8688 9.49078 17.0723 9.07941 17.3137C8.66803 17.5551 8.28229 17.8306 7.92224 18.1401L7.46045 18.5424L0 7.0199L0.416504 6.72614C2.91235 5.02844 8.1214 2.27045 14.9843 2.87549C16.8965 3.05328 18.7523 3.46942 20.5516 4.12384C22.351 4.77832 24.0323 5.64868 25.5956 6.73499L26 7.02869L18.9288 18.5513ZM1.45465 7.31067L7.7019 16.974C8.09192 16.6827 8.50372 16.4244 8.93726 16.1989C9.37079 15.9734 9.82031 15.7837 10.2858 15.6299C10.7513 15.4762 11.2266 15.3603 11.7116 15.2824C12.1967 15.2045 12.6849 15.1655 13.1766 15.1655C13.6682 15.1655 14.1564 15.2045 14.6415 15.2824C15.1265 15.3603 15.6017 15.4762 16.0673 15.6299C16.5328 15.7837 16.9823 15.9734 17.4158 16.1989C17.8494 16.4244 18.2612 16.6827 18.6512 16.974L24.5665 7.32532C21.6387 5.38782 18.4125 4.25702 14.8878 3.93286C12.5169 3.73865 10.1797 3.93115 7.87616 4.51038C5.57257 5.0896 3.43213 6.02301 1.45465 7.31067ZM1.77759 0L7.39105 0L7.39105 1.04565L1.77759 1.04565L1.77759 0ZM10.1978 0L15.6362 0L15.6362 1.04565L10.1978 1.04565L10.1978 0ZM19.1461 0L24.0594 0L24.0594 1.04565L19.1461 1.04565L19.1461 0Z" fill-rule="evenodd" fill="#FFFFFF"/>
	<line x1="7.300049" y1="6.125671" x2="13.366699" y2="18.259033" stroke="#FFFFFF"/>
	<ellipse cx="14.299988" cy="19.884583" rx="1.666667" ry="1.615385" stroke="#FFFFFF"/>
	<defs/>
</svg>
