<svg width="28.565735" height="27.415222" viewBox="0 0 28.5657 27.4152" fill="none" xmlns="http://www.w3.org/2000/svg" xmlns:xlink="http://www.w3.org/1999/xlink">
	<desc>
			Created with Pixso.
	</desc>
	<g filter="url(#filter_9_179_dd)">
		<path d="M21.3377 22.5442C21.6523 22.8673 22.0352 23.0303 22.4861 23.0333C22.9371 23.0363 23.3221 22.8783 23.641 22.5594C23.9599 22.2405 24.1178 21.8556 24.1148 21.4046C24.1119 20.9536 23.9488 20.5708 23.6257 20.2562L18.6497 15.2832C19.0845 14.5683 19.4247 13.811 19.6705 13.0112C19.9163 12.2114 20.0599 11.3936 20.1016 10.558C20.1432 9.72232 20.0815 8.89435 19.9166 8.07407C19.7516 7.25381 19.4883 6.4664 19.1268 5.71182C18.7653 4.95728 18.3166 4.2587 17.7807 3.61612C17.2448 2.97354 16.6382 2.40668 15.9608 1.9155C15.2834 1.42435 14.5562 1.02393 13.7788 0.714294C13.0015 0.404663 12.1981 0.195282 11.3685 0.0861816C10.539 -0.0229187 9.70874 -0.0284424 8.87781 0.0696716C8.04688 0.167786 7.24078 0.366486 6.45941 0.665802C5.6781 0.965118 4.94556 1.35583 4.26172 1.83798C3.57788 2.32013 2.96381 2.87891 2.41949 3.51434C1.87512 4.14975 1.41724 4.84232 1.04572 5.59201C0.674194 6.34171 0.400574 7.12558 0.22467 7.9436C0.0488281 8.7616 -0.0238037 9.58868 0.0067749 10.4248C0.0373535 11.261 0.170227 12.0805 0.405334 12.8835C0.640442 13.6865 0.970642 14.4483 1.39587 15.1688C1.82117 15.8894 2.32843 16.5467 2.91772 17.1406C3.50702 17.7346 4.16028 18.247 4.8775 18.6779C5.59473 19.1089 6.35388 19.445 7.15497 19.6865C7.95605 19.9279 8.77454 20.0672 9.61041 20.1044C10.4463 20.1415 11.2739 20.0754 12.0933 19.906C12.9127 19.7366 13.6987 19.4691 14.4513 19.1035C15.2039 18.7379 15.9 18.2855 16.5397 17.7462L21.3377 22.5442ZM10.0797 16.8812C9.17969 16.8812 8.3139 16.709 7.48242 16.3645C6.65094 16.0201 5.91699 15.5297 5.28058 14.8933C4.64417 14.2569 4.15375 13.5229 3.80933 12.6914C3.4649 11.86 3.29272 10.9942 3.29272 10.0942C3.29272 9.19415 3.4649 8.3284 3.80933 7.49692C4.15375 6.66541 4.64417 5.93146 5.28058 5.29504C5.91699 4.65863 6.65094 4.16821 7.48242 3.82379C8.3139 3.47937 9.17969 3.30719 10.0797 3.30719C10.9797 3.30719 11.8455 3.47937 12.677 3.82379C13.5085 4.16821 14.2424 4.65863 14.8788 5.29504C15.5153 5.93146 16.0057 6.66541 16.35 7.49689C16.6945 8.3284 16.8667 9.19415 16.8667 10.0942C16.865 10.9937 16.6916 11.8589 16.3465 12.6897C16.0015 13.5204 15.5108 14.2538 14.8747 14.8899C14.2385 15.5259 13.5051 16.0164 12.6743 16.3614C11.8434 16.7063 10.9792 16.8796 10.0797 16.8812Z" fill-rule="evenodd" fill="#FBFDFF"/>
		<path d="M13.5317 8.1152L12.0577 8.1152L12.0577 6.64221C12.0577 6.09586 11.8646 5.62952 11.4782 5.24319C11.0919 4.85687 10.6255 4.6637 10.0792 4.6637C9.53284 4.6637 9.06653 4.85687 8.68018 5.24319C8.29388 5.62952 8.10071 6.09586 8.10071 6.64221L8.10071 8.11621L6.62671 8.11621C6.08038 8.11621 5.61401 8.30939 5.22772 8.69571C4.84137 9.08203 4.64819 9.54837 4.64819 10.0947C4.64819 10.6411 4.84137 11.1074 5.22772 11.4937C5.61401 11.88 6.08038 12.0732 6.62671 12.0732L8.10071 12.0732L8.10071 13.5472C8.10071 14.0936 8.29388 14.5599 8.68018 14.9462C9.06653 15.3326 9.53284 15.5257 10.0792 15.5257C10.6255 15.5257 11.0919 15.3326 11.4782 14.9462C11.8646 14.5599 12.0577 14.0936 12.0577 13.5472L12.0577 12.0722L13.5317 12.0722C14.0781 12.0722 14.5444 11.879 14.9307 11.4927C15.317 11.1064 15.5102 10.64 15.5102 10.0937C15.5102 9.54736 15.317 9.08102 14.9307 8.6947C14.5444 8.30838 14.0781 8.1152 13.5317 8.1152ZM23.6497 0.972198L20.2277 0.972198L20.2277 4.2092L23.6467 4.2092C24.1111 4.20947 24.5074 4.37378 24.8358 4.70215C25.1641 5.03049 25.3284 5.42685 25.3287 5.8912L25.3287 8.4552L28.5657 8.4552L28.5657 5.88818C28.5649 5.23645 28.4396 4.60959 28.1898 4.00763C27.94 3.40567 27.5847 2.8743 27.1237 2.41348C26.6628 1.95267 26.1313 1.59744 25.5294 1.34775C24.9274 1.09805 24.3015 0.97287 23.6497 0.972198ZM25.3317 22.4962C25.3314 22.9606 25.1671 23.3569 24.8387 23.6853C24.5104 24.0136 24.1141 24.1779 23.6497 24.1782L20.2277 24.1782L20.2277 27.4152L23.6467 27.4152C24.2988 27.4144 24.9259 27.2891 25.5282 27.0392C26.1305 26.7893 26.6622 26.4338 27.1232 25.9727C27.5843 25.5116 27.9398 24.9799 28.1897 24.3777C28.4396 23.7754 28.5649 23.1483 28.5657 22.4962L28.5657 19.9292L25.3287 19.9292L25.3317 22.4962ZM3.65271 22.4962L3.65271 19.9292L0.41571 19.9292L0.41571 22.4962C0.416504 23.1483 0.54187 23.7754 0.791748 24.3777C1.04163 24.98 1.39716 25.5117 1.85822 25.9727C2.31927 26.4338 2.85095 26.7893 3.45325 27.0392C4.05548 27.2891 4.68268 27.4144 5.33472 27.4152L8.75372 27.4152L8.75372 24.1782L5.33472 24.1782C4.87036 24.1779 4.474 24.0136 4.14563 23.6853C3.81732 23.3569 3.65295 22.9606 3.65271 22.4962Z" fill-rule="evenodd" fill="#FBFDFF"/>
	</g>
	<defs>
		<filter id="filter_9_179_dd" x="0.000000" y="0.000000" width="28.565735" height="27.415222" filterUnits="userSpaceOnUse" color-interpolation-filters="sRGB">
			<feFlood flood-opacity="0" result="BackgroundImageFix"/>
			<feBlend mode="normal" in="SourceGraphic" in2="BackgroundImageFix" result="shape"/>
			<feColorMatrix in="SourceAlpha" type="matrix" values="0 0 0 0 0 0 0 0 0 0 0 0 0 0 0 0 0 0 127 0" result="hardAlpha"/>
			<feOffset dx="0" dy="4"/>
			<feGaussianBlur stdDeviation="1.33333"/>
			<feComposite in2="hardAlpha" operator="arithmetic" k2="-1" k3="1"/>
			<feColorMatrix type="matrix" values="0 0 0 0 0 0 0 0 0 0 0 0 0 0 0 0 0 0 0.25 0"/>
			<feBlend mode="normal" in2="shape" result="effect_innerShadow_1"/>
		</filter>
	</defs>
</svg>
