<?xml version="1.0" encoding="UTF-8"?>
<svg width="16px" height="16px" viewBox="0 0 16 16" version="1.1" xmlns="http://www.w3.org/2000/svg" xmlns:xlink="http://www.w3.org/1999/xlink">
    <title>编组 40</title>
    <g id="页面-1" stroke="none" stroke-width="1" fill="none" fill-rule="evenodd">
        <g id="录像回放" transform="translate(-300.000000, -858.000000)">
            <g id="编组-40" transform="translate(300.000000, 858.000000)">
                <rect id="矩形" fill-opacity="0" fill="#D8D8D8" x="0" y="0" width="16" height="16"></rect>
                <path d="M1.36852249,7.42204445 C1.38652842,6.6351853 1.54858179,5.87173386 1.85288201,5.15329724 C2.16438461,4.4150541 2.61093168,3.75423646 3.17991907,3.18344847 C3.74890647,2.61266048 4.4115247,2.16611341 5.14976784,1.85461082 C5.91321929,1.53230467 6.72348615,1.3684507 7.56076191,1.3684507 C8.39803766,1.3684507 9.20830453,1.53230467 9.96995538,1.85461082 C10.7063979,2.16611341 11.3690162,2.61266048 11.9380036,3.18344847 C12.1162623,3.36170718 12.2837174,3.55076945 12.4385684,3.74883468 L11.3546114,4.5951134 C11.25918,4.66893772 11.2915907,4.82018753 11.4086292,4.84899702 L14.5722712,5.62325202 C14.6623008,5.64485914 14.7505299,5.5764366 14.7505299,5.48460636 L14.7649346,2.22733357 C14.7649346,2.10669384 14.6262889,2.03827131 14.5326581,2.11389621 L13.5171236,2.90795774 C12.1324676,1.1361742 9.97895834,0 7.55896131,0 C3.43380269,0 0.0774972901,3.3058888 3.5166097e-05,7.41484208 C-0.00172880304,7.49586877 0.0630925459,7.56249071 0.144119232,7.56249071 L1.22447505,7.56249071 C1.30370114,7.56249071 1.3667219,7.49946995 1.36852249,7.42204445 Z M14.9810058,7.56249071 L13.90065,7.56249071 C13.8214239,7.56249071 13.7584031,7.62551147 13.7566025,7.70293697 C13.7385966,8.48979612 13.5765432,9.25324756 13.272243,9.97168418 C12.9607404,10.7099273 12.5141933,11.3725456 11.9452059,11.9415329 C11.3762185,12.5105203 10.7136003,12.958868 9.97535716,13.2703706 C9.21190571,13.5926768 8.40163885,13.7565307 7.56436309,13.7565307 C6.72708734,13.7565307 5.91682047,13.5926768 5.15336903,13.2703706 C4.41692648,12.958868 3.75430825,12.5123209 3.18532085,11.9415329 C3.00706214,11.7632742 2.83960699,11.574212 2.68475599,11.3761467 L3.76871299,10.529868 C3.86414442,10.4560437 3.83173375,10.3047939 3.7146952,10.2759844 L0.551053256,9.5017294 C0.461023605,9.48012228 0.372794546,9.54854482 0.372794546,9.64037506 L0.360190395,12.8994484 C0.360190395,13.0200882 0.498836058,13.0885107 0.592466896,13.0128858 L1.60800136,12.2188243 C2.9926574,13.9888072 5.14616666,15.1249814 7.56616369,15.1249814 C11.6931229,15.1249814 15.0476277,11.817292 15.1250898,7.71013934 C15.1268538,7.62911265 15.0620325,7.56249071 14.9810058,7.56249071 Z" id="形状" fill="#FFFFFF" fill-rule="nonzero"></path>
                <path d="M6.05409996,4.2500611 C6.05409996,4.0453736 6.28378746,3.9281861 6.44941246,4.0484986 L6.44941246,4.0484986 L11.075975,7.4078736 C11.213475,7.5078736 11.213475,7.7109986 11.075975,7.8109986 L11.075975,7.8109986 L6.44941246,11.1703736 C6.28534996,11.2891236 6.05409996,11.1734986 6.05409996,10.9688111 L6.05409996,10.9688111 Z M7.05097496,5.7172486 L7.05097496,9.5016236 L9.65566246,7.6094361 L7.05097496,5.7172486 Z" id="形状结合" fill="#FFFFFF"></path>
            </g>
        </g>
    </g>
</svg>