<?xml version="1.0" encoding="UTF-8"?>
<svg width="14px" height="14px" viewBox="0 0 14 14" version="1.1" xmlns="http://www.w3.org/2000/svg" xmlns:xlink="http://www.w3.org/1999/xlink">
    <title>切片</title>
    <g id="页面-1" stroke="none" stroke-width="1" fill="none" fill-rule="evenodd">
        <g id="视频预览-巡航" transform="translate(-1364.000000, -687.000000)" fill="#FFFFFF" fill-rule="nonzero">
            <g id="编组-19备份" transform="translate(1226.000000, 678.000000)">
                <g id="stop" transform="translate(138.000000, 9.000000)">
                    <rect id="矩形" opacity="0" x="0" y="0" width="14" height="14"></rect>
                    <path d="M7,0.875 C3.61757813,0.875 0.875,3.61757813 0.875,7 C0.875,10.3824219 3.61757813,13.125 7,13.125 C10.3824219,13.125 13.125,10.3824219 13.125,7 C13.125,3.61757813 10.3824219,0.875 7,0.875 Z M7,12.0859375 C4.19179687,12.0859375 1.9140625,9.80820313 1.9140625,7 C1.9140625,5.78320312 2.34199219,4.66484375 3.05566406,3.78984375 L10.2101562,10.9443359 C9.33515625,11.6580078 8.21679687,12.0859375 7,12.0859375 Z M10.9443359,10.2101562 L3.78984375,3.05566406 C4.66484375,2.34199219 5.78320312,1.9140625 7,1.9140625 C9.80820312,1.9140625 12.0859375,4.19179687 12.0859375,7 C12.0859375,8.21679687 11.6580078,9.33515625 10.9443359,10.2101562 Z" id="形状"></path>
                </g>
            </g>
        </g>
    </g>
</svg>