<?xml version="1.0" encoding="UTF-8"?>
<svg width="14px" height="14px" viewBox="0 0 14 14" version="1.1" xmlns="http://www.w3.org/2000/svg" xmlns:xlink="http://www.w3.org/1999/xlink">
    <title>结束录制-line</title>
    <g id="页面-1" stroke="none" stroke-width="1" fill="none" fill-rule="evenodd">
        <g id="视频预览-轨迹" transform="translate(-1336.000000, -687.000000)" fill="#FF203B" fill-rule="nonzero">
            <g id="编组-18备份" transform="translate(1226.000000, 678.000000)">
                <g id="结束录制-line" transform="translate(110.000000, 9.000000)">
                    <rect id="矩形" opacity="0" x="0" y="0" width="14" height="14"></rect>
                    <path d="M7,12.8333379 C3.77825,12.8333379 1.16666211,10.22175 1.16666211,7 C1.16666211,3.77825 3.77825,1.16666211 7,1.16666211 C10.22175,1.16666211 12.8333379,3.77825 12.8333379,7 C12.8333379,10.22175 10.22175,12.8333379 7,12.8333379 Z M7,11.6666621 C9.57732632,11.6666621 11.6666621,9.57732632 11.6666621,7 C11.6666621,4.42267368 9.57732632,2.33333789 7,2.33333789 C4.42267368,2.33333789 2.33333789,4.42267368 2.33333789,7 C2.33333789,9.57732632 4.42267368,11.6666621 7,11.6666621 L7,11.6666621 Z M5.25,5.25 L8.75,5.25 L8.75,8.75 L5.25,8.75 L5.25,5.25 Z" id="形状"></path>
                </g>
            </g>
        </g>
    </g>
</svg>