<?xml version="1.0" encoding="UTF-8"?>
<svg width="14px" height="14px" viewBox="0 0 14 14" version="1.1" xmlns="http://www.w3.org/2000/svg" xmlns:xlink="http://www.w3.org/1999/xlink">
    <title>焦点 聚焦 定位</title>
    <g id="页面-1" stroke="none" stroke-width="1" fill="none" fill-rule="evenodd">
        <g id="视频预览" transform="translate(-1392.000000, -655.000000)" fill-rule="nonzero">
            <g id="焦点-聚焦-定位" transform="translate(1392.000000, 655.000000)">
                <rect id="矩形" fill="#000000" opacity="0" x="0" y="0" width="13.9999115" height="13.9999115"></rect>
                <path d="M12.4090124,6.52268602 L12.2181045,6.52268602 C11.9953787,4.00906556 9.9908459,2.00453278 7.47722544,1.78180692 L7.47722544,1.59089902 C7.47722544,1.33635518 7.25449958,1.11362931 6.99995573,1.11362931 C6.74541188,1.11362931 6.52268602,1.33635518 6.52268602,1.59089902 L6.52268602,1.78180692 C4.00906556,2.00453278 2.00453278,4.00906556 1.78180692,6.52268602 L1.59089902,6.52268602 C1.33635518,6.52268602 1.11362931,6.74541188 1.11362931,6.99995573 C1.11362931,7.25449958 1.33635518,7.47722544 1.59089902,7.47722544 L1.78180692,7.47722544 C2.00453278,9.9908459 4.00906556,11.9953787 6.52268602,12.2181045 L6.52268602,12.4090124 C6.52268602,12.6635563 6.74541188,12.8862821 6.99995573,12.8862821 C7.25449958,12.8862821 7.47722544,12.6635563 7.47722544,12.4090124 L7.47722544,12.2181045 C9.9908459,11.9953787 11.9953787,9.9908459 12.2181045,7.47722544 L12.4090124,7.47722544 C12.6635563,7.47722544 12.8862821,7.25449958 12.8862821,6.99995573 C12.8862821,6.74541188 12.6635563,6.52268602 12.4090124,6.52268602 Z M7.47722544,11.2635651 L7.47722544,10.4999336 C7.47722544,10.2453897 7.25449958,10.0226639 6.99995573,10.0226639 C6.74541188,10.0226639 6.52268602,10.2453897 6.52268602,10.4999336 L6.52268602,11.2635651 C4.54997122,11.0408393 2.9590722,9.44994023 2.73634634,7.47722544 L3.49997786,7.47722544 C3.75452171,7.47722544 3.97724757,7.25449958 3.97724757,6.99995573 C3.97724757,6.74541188 3.75452171,6.52268602 3.49997786,6.52268602 L2.73634634,6.52268602 C2.9590722,4.54997122 4.54997122,2.9590722 6.52268602,2.73634634 L6.52268602,3.49997786 C6.52268602,3.75452171 6.74541188,3.97724757 6.99995573,3.97724757 C7.25449958,3.97724757 7.47722544,3.75452171 7.47722544,3.49997786 L7.47722544,2.73634634 C9.44994023,2.9590722 11.0408393,4.54997122 11.2635651,6.52268602 L10.4999336,6.52268602 C10.2453897,6.52268602 10.0226639,6.74541188 10.0226639,6.99995573 C10.0226639,7.25449958 10.2453897,7.47722544 10.4999336,7.47722544 L11.2635651,7.47722544 C11.0408393,9.44994023 9.44994023,11.0408393 7.47722544,11.2635651 L7.47722544,11.2635651 Z M6.99995573,4.93178699 C5.85450843,4.93178699 4.93178699,5.85450843 4.93178699,6.99995573 C4.93178699,8.14540303 5.85450843,9.06812446 6.99995573,9.06812446 C8.14540303,9.06812446 9.06812446,8.14540303 9.06812446,6.99995573 C9.06812446,5.85450843 8.14540303,4.93178699 6.99995573,4.93178699 Z M6.99995573,8.11358504 C6.39541409,8.11358504 5.88632641,7.60449735 5.88632641,6.99995573 C5.88632641,6.39541411 6.39541411,5.88632641 6.99995573,5.88632641 C7.60449735,5.88632641 8.11358504,6.39541411 8.11358504,6.99995573 C8.11358504,7.60449735 7.60449735,8.11358504 6.99995573,8.11358504 Z" id="形状" fill="#ECFDFF"></path>
            </g>
        </g>
    </g>
</svg>