<?xml version="1.0" encoding="UTF-8"?>
<svg width="14px" height="14px" viewBox="0 0 14 14" version="1.1" xmlns="http://www.w3.org/2000/svg" xmlns:xlink="http://www.w3.org/1999/xlink">
    <title>实时录制-line</title>
    <g id="页面-1" stroke="none" stroke-width="1" fill="none" fill-rule="evenodd">
        <g id="视频预览-轨迹" transform="translate(-1336.000000, -719.000000)" fill-rule="nonzero">
            <g id="编组-18备份-3" transform="translate(1226.000000, 710.000000)">
                <g id="实时录制-line" transform="translate(110.000000, 9.000000)">
                    <rect id="矩形" fill="#000000" opacity="0" x="0" y="0" width="14" height="14"></rect>
                    <path d="M6.833338,12.666676 C3.61158794,12.666676 1,10.0550881 1,6.833338 C1,3.61158794 3.61158794,1 6.833338,1 C10.0550881,1 12.666676,3.61158794 12.666676,6.833338 C12.666676,10.0550881 10.0550881,12.666676 6.833338,12.666676 Z M6.833338,11.5000002 C9.41066436,11.5000002 11.5000002,9.41066436 11.5000002,6.833338 C11.5000002,4.25601164 9.41066436,2.1666758 6.833338,2.1666758 C4.25601164,2.1666758 2.1666758,4.25601164 2.1666758,6.833338 C2.1666758,9.41066436 4.25601164,11.5000002 6.833338,11.5000002 L6.833338,11.5000002 Z M6.833338,8.58333797 C5.86683967,8.58333797 5.08333797,7.79983633 5.08333797,6.833338 C5.08333797,5.86683967 5.86683967,5.08333797 6.833338,5.08333797 C7.79983633,5.08333797 8.58333797,5.86683967 8.58333797,6.833338 C8.58333797,7.79983633 7.79983633,8.58333797 6.833338,8.58333797 Z" id="形状" fill="#01D57D"></path>
                </g>
            </g>
        </g>
    </g>
</svg>