<?xml version="1.0" encoding="UTF-8"?>
<svg width="16px" height="17px" viewBox="0 0 16 17" version="1.1" xmlns="http://www.w3.org/2000/svg" xmlns:xlink="http://www.w3.org/1999/xlink">
    <title>编组 45</title>
    <g id="页面-1" stroke="none" stroke-width="1" fill="none" fill-rule="evenodd">
        <g id="录像回放" transform="translate(-264.000000, -857.000000)">
            <g id="编组-45" transform="translate(264.000000, 857.000000)">
                <rect id="矩形" fill-opacity="0" fill="#D8D8D8" x="0" y="0" width="16" height="16"></rect>
                <path d="M6.71601135,5.20311571 C6.71601135,4.99842821 6.94569885,4.88124071 7.11132385,5.00155321 L7.11132385,5.00155321 L11.7378864,8.36092821 C11.8753864,8.46092821 11.8753864,8.66405321 11.7378864,8.76405321 L11.7378864,8.76405321 L7.11132385,12.1234282 C6.94726135,12.2421782 6.71601135,12.1265532 6.71601135,11.9218657 L6.71601135,11.9218657 Z M7.71288635,6.67030321 L7.71288635,10.4546782 L10.3175739,8.56249071 L7.71288635,6.67030321 Z" id="形状结合备份-4" fill="#FFFFFF"></path>
                <path d="M15.5792396,3.11887504 L14.5604454,3.91548534 C13.1713449,2.1398211 11.0109233,1 8.58496494,1 C4.39598692,1 1.00542559,4.38694859 1,8.57773297 C0.994587355,12.7721301 4.39237418,16.1735297 8.58496494,16.1735297 C11.8599184,16.1735297 14.6507641,14.0962012 15.7129111,11.186135 C15.7400067,11.1102673 15.7002665,11.0253678 15.6243989,11.0000786 L14.6001856,10.6478359 C14.5261244,10.6225467 14.4448376,10.6604806 14.417742,10.7345418 C14.3852273,10.8248605 14.3490998,10.9151791 14.311166,11.0036913 C13.9986636,11.7443041 13.5506832,12.4090492 12.9798694,12.9798629 C12.4090557,13.5506767 11.7443106,13.9986571 11.0055042,14.3129659 C10.2414086,14.6363066 9.42673456,14.8006865 8.58857768,14.8006865 C7.74861443,14.8006865 6.93574677,14.6363066 6.17165117,14.3129659 C5.43284478,14.0004635 4.76809967,13.5524831 4.19728594,12.9798629 C3.6264722,12.4090492 3.1784918,11.7443041 2.86598935,11.0036913 C2.54264866,10.2377894 2.37826875,9.42492171 2.37826875,8.58495846 C2.37826875,7.74499521 2.54264866,6.93212755 2.86598935,6.16622558 C3.1784918,5.42561282 3.6264722,4.76086771 4.19728594,4.19005398 C4.76809967,3.61924024 5.43284478,3.17125984 6.17165117,2.85695101 C6.93574677,2.53361032 7.7504208,2.36923042 8.58857768,2.36923042 C9.42854093,2.36923042 10.2414086,2.53361032 11.0055042,2.85695101 C11.7443106,3.16945347 12.4090557,3.61743387 12.9798694,4.19005398 C13.1587003,4.36888486 13.326693,4.55855398 13.482041,4.75725497 L12.3946047,5.60625008 C12.298867,5.68031135 12.3313817,5.83204665 12.4487959,5.86094861 L15.6207861,6.63768882 C15.7111048,6.65936529 15.799617,6.59072313 15.799617,6.49859813 L15.814068,3.23087014 C15.8122616,3.11164955 15.6731709,3.04481376 15.5792396,3.11887504 L15.5792396,3.11887504 Z" id="路径" fill="#FFFFFF" fill-rule="nonzero" transform="translate(8.407034, 8.586765) scale(-1, 1) translate(-8.407034, -8.586765) "></path>
            </g>
        </g>
    </g>
</svg>