<?xml version="1.0" encoding="UTF-8"?>
<svg width="37px" height="37px" viewBox="0 0 37 37" version="1.1" xmlns="http://www.w3.org/2000/svg" xmlns:xlink="http://www.w3.org/1999/xlink">
    <title>箭头备份 4</title>
    <defs>
        <filter x="-69.4%" y="-69.4%" width="238.7%" height="238.7%" filterUnits="objectBoundingBox" id="filter-1">
            <feOffset dx="0" dy="2" in="SourceAlpha" result="shadowOffsetOuter1"></feOffset>
            <feGaussianBlur stdDeviation="2" in="shadowOffsetOuter1" result="shadowBlurOuter1"></feGaussianBlur>
            <feColorMatrix values="0 0 0 0 0.128915284   0 0 0 0 0.193287636   0 0 0 0 0.274238918  0 0 0 0.181514286 0" type="matrix" in="shadowBlurOuter1" result="shadowMatrixOuter1"></feColorMatrix>
            <feMerge>
                <feMergeNode in="shadowMatrixOuter1"></feMergeNode>
                <feMergeNode in="SourceGraphic"></feMergeNode>
            </feMerge>
        </filter>
        <linearGradient x1="0%" y1="50%" x2="100%" y2="50%" id="linearGradient-2">
            <stop stop-color="#F7FBFF" offset="0%"></stop>
            <stop stop-color="#81BDFF" offset="100%"></stop>
        </linearGradient>
    </defs>
    <g id="页面-1" stroke="none" stroke-width="1" fill="none" fill-rule="evenodd">
        <g id="视频预览1920" transform="translate(-1760.000000, -198.000000)" fill-rule="nonzero">
            <g id="编组-22" transform="translate(1637.000000, 102.000000)">
                <g id="编组-15" transform="translate(27.600000, 72.000000)">
                    <g id="箭头备份-4" filter="url(#filter-1)" transform="translate(113.999246, 42.641584) scale(-1, 1) rotate(-270.000000) translate(-113.999246, -42.641584) translate(105.350495, 33.992079)">
                        <rect id="矩形" fill="#000000" opacity="0" x="2.13397323e-15" y="0" width="17.2975016" height="17.2975016"></rect>
                        <path d="M14.8883887,1.43735755 L14.8883887,15.8545633 C14.8918024,16.4229944 14.5595426,16.9399197 14.0410282,17.1728755 C13.5225138,17.4058312 12.9153845,17.3109502 12.4926694,16.930901 L2.97923344,9.80195114 C2.34600279,9.32407441 2.21859938,8.42403097 2.69432053,7.78917932 C2.77340878,7.67955307 2.86960719,7.58335466 2.97923344,7.50426641 L12.5947887,0.285451607 C13.2293368,-0.188628005 14.1280153,-0.058808723 14.6024546,0.575470473 C14.7916223,0.821699286 14.8936368,1.12379162 14.8924833,1.43429396 L14.8883887,1.43735755 Z" id="路径" fill="url(#linearGradient-2)"></path>
                    </g>
                </g>
            </g>
        </g>
    </g>
</svg>